{
.appVersion = "1075";
copyright = "Copyright © 2018 by Cadson Demak Co.,Ltd.. All rights reserved.";
customParameters = (
{
name = vendorID;
value = CDK;
},
{
name = description;
value = "Copyright (c) 2018, Cadson Demak (info@cadsondemak.com)";
},
{
name = license;

glyphs = (
{
glyphname = A;
lastChange = "2018-03-09 06:21:23 +0000";
layers = (
{
anchors = (
{
name = bottom;
position = "{315, 0}";
},
{
name = ogonek;
position = "{553, -1}";
},
{
name = top;
position = "{325, 700}";
}
);
layerId = "0B1DFD06-3317-40CA-B510-4969A0718C16";
paths = (
{
closed = 1;
nodes = (
"563 -10 OFFCURVE",
"571 -6 OFFCURVE",
"571 3 CURVE SMOOTH",
"571 6 OFFCURVE",
"570 9 OFFCURVE",
"569 11 CURVE SMOOTH",
"551 65 OFFCURVE",
"411 532 OFFCURVE",
"384 616 CURVE SMOOTH",
"362 685 OFFCURVE",
"346 710 OFFCURVE",
"325 710 CURVE SMOOTH",
"300 710 OFFCURVE",
"281 677 OFFCURVE",
"258 605 CURVE SMOOTH",
"186 379 OFFCURVE",
"167 323 OFFCURVE",
"61 11 CURVE SMOOTH",
"60 8 OFFCURVE",
"60 7 OFFCURVE",
"60 5 CURVE SMOOTH",
"60 -2 OFFCURVE",
"66 -7 OFFCURVE",
"75 -7 CURVE SMOOTH",
"82 -7 OFFCURVE",
"86 -5 OFFCURVE",
"89 4 CURVE SMOOTH",
"201 334 OFFCURVE",
"266 538 OFFCURVE",
"288 604 CURVE SMOOTH",
"304 652 OFFCURVE",
"317 682 OFFCURVE",
"324 682 CURVE SMOOTH",
"331 682 OFFCURVE",
"345 653 OFFCURVE",
"359 607 CURVE SMOOTH",
"380 538 OFFCURVE",
"490 155 OFFCURVE",
"541 -1 CURVE SMOOTH",
"543 -6 OFFCURVE",
"549 -10 OFFCURVE",
"556 -10 CURVE SMOOTH"
);
},
{
closed = 1;
nodes = (
"545 189 OFFCURVE",
"550 196 OFFCURVE",
"550 203 CURVE SMOOTH",
"550 211 OFFCURVE",
"545 217 OFFCURVE",
"537 217 CURVE SMOOTH",
"154 221 LINE SMOOTH",
"140 221 OFFCURVE",
"135 213 OFFCURVE",
"135 207 CURVE SMOOTH",
"135 201 OFFCURVE",
"139 191 OFFCURVE",
"150 191 CURVE SMOOTH",
"535 189 LINE SMOOTH"
);
}
);
width = 631;
},
{
anchors = (
{
name = bottom;
position = "{348, 0}";
},
{
name = ogonek;
position = "{582, 26}";
},
{
name = top;
position = "{348, 700}";
}
);
layerId = "2F8C22CF-EC86-44F4-AF1A-A6C7F26A0C3C";
paths = (
{
closed = 1;
nodes = (
"596 -11 OFFCURVE",
"637 9 OFFCURVE",
"637 50 CURVE SMOOTH",
"637 56 OFFCURVE",
"636 62 OFFCURVE",
"634 69 CURVE SMOOTH",
"547 360 OFFCURVE",
"521 446 OFFCURVE",
"473 596 CURVE SMOOTH",
"445 682 OFFCURVE",
"416 712 OFFCURVE",
"357 712 CURVE SMOOTH",
"295 712 OFFCURVE",
"264 676 OFFCURVE",
"234 587 CURVE SMOOTH",
"178 418 OFFCURVE",
"160 360 OFFCURVE",
"63 70 CURVE SMOOTH",
"61 63 OFFCURVE",
"60 56 OFFCURVE",
"60 50 CURVE SMOOTH",
"60 12 OFFCURVE",
"102 -10 OFFCURVE",
"143 -10 CURVE SMOOTH",
"175 -10 OFFCURVE",
"201 2 OFFCURVE",
"212 34 CURVE SMOOTH",
"266 184 OFFCURVE",
"308 368 OFFCURVE",
"326 431 CURVE SMOOTH",
"337 470 OFFCURVE",
"341 501 OFFCURVE",
"351 501 CURVE SMOOTH",
"360 501 OFFCURVE",
"365 470 OFFCURVE",
"379 424 CURVE SMOOTH",
"399 358 OFFCURVE",
"436 182 OFFCURVE",
"485 31 CURVE SMOOTH",
"494 3 OFFCURVE",
"521 -11 OFFCURVE",
"555 -11 CURVE SMOOTH"
);
},
{
closed = 1;
nodes = (
"582 159 OFFCURVE",
"620 172 OFFCURVE",
"620 224 CURVE SMOOTH",
"620 268 OFFCURVE",
"589 286 OFFCURVE",
"545 287 CURVE SMOOTH",
"209 291 LINE SMOOTH",
"162 292 OFFCURVE",
"134 262 OFFCURVE",
"134 223 CURVE SMOOTH",
"134 188 OFFCURVE",
"158 161 OFFCURVE",
"200 161 CURVE SMOOTH",
"537 159 LINE SMOOTH"
);
}
);
width = 697;
},
{
anchors = (
{
name = bottom;
position = "{343, 0}";
},
{
name = ogonek;
position = "{579, 10}";
},
{
name = top;
position = "{349, 700}";
}
);
layerId = "17B9D149-A542-49FB-8130-D430586D7342";
paths = (
{
closed = 1;
nodes = (
"591 -10 OFFCURVE",
"612 0 OFFCURVE",
"612 22 CURVE SMOOTH",
"612 25 OFFCURVE",
"611 28 OFFCURVE",
"609 34 CURVE SMOOTH",
"561 192 OFFCURVE",
"466 510 OFFCURVE",
"434 608 CURVE SMOOTH",
"410 682 OFFCURVE",
"390 711 OFFCURVE",
"352 711 CURVE SMOOTH",
"312 711 OFFCURVE",
"289 676 OFFCURVE",
"263 598 CURVE SMOOTH",
"207 426 OFFCURVE",
"172 317 OFFCURVE",
"76 35 CURVE SMOOTH",
"75 30 OFFCURVE",
"74 27 OFFCURVE",
"74 23 CURVE SMOOTH",
"74 4 OFFCURVE",
"94 -9 OFFCURVE",
"116 -9 CURVE SMOOTH",
"133 -9 OFFCURVE",
"147 -2 OFFCURVE",
"153 16 CURVE SMOOTH",
"230 239 OFFCURVE",
"274 399 OFFCURVE",
"318 535 CURVE SMOOTH",
"332 579 OFFCURVE",
"341 610 OFFCURVE",
"349 610 CURVE SMOOTH",
"357 610 OFFCURVE",
"367 580 OFFCURVE",
"381 534 CURVE SMOOTH",
"420 405 OFFCURVE",
"482 168 OFFCURVE",
"533 12 CURVE SMOOTH",
"538 -2 OFFCURVE",
"552 -10 OFFCURVE",
"569 -10 CURVE SMOOTH"
);
},
{
closed = 1;
nodes = (
"585 167 OFFCURVE",
"592 184 OFFCURVE",
"592 206 CURVE SMOOTH",
"592 229 OFFCURVE",
"577 245 OFFCURVE",
"555 245 CURVE SMOOTH",
"190 249 LINE SMOOTH",
"163 249 OFFCURVE",
"150 233 OFFCURVE",
"150 208 CURVE SMOOTH",
"150 185 OFFCURVE",
"161 169 OFFCURVE",
"184 169 CURVE SMOOTH",
"561 167 LINE SMOOTH"
);
}
);
width = 692;
}
);
leftKerningGroup = A;
note = A;
rightKerningGroup = A;
unicode = 0041;
},
{
glyphname = B;
lastChange = "2018-03-09 06:09:29 +0000";
layers = (
{
anchors = (
{
name = bottom;
position = "{312, 0}";
},
{
name = top;
position = "{312, 700}";
}
);
layerId = "0B1DFD06-3317-40CA-B510-4969A0718C16";
paths = (
{
closed = 1;
nodes = (
"119 -16 OFFCURVE",
"125 -9 OFFCURVE",
"126 12 CURVE",
"113 3 LINE",
"174 3 OFFCURVE",
"195 4 OFFCURVE",
"255 0 CURVE SMOOTH",
"405 -9 OFFCURVE",
"534 41 OFFCURVE",
"534 174 CURVE SMOOTH",
"534 274 OFFCURVE",
"458 352 OFFCURVE",
"293 360 CURVE",
"293 351 LINE",
"458 358 OFFCURVE",
"544 410 OFFCURVE",
"544 519 CURVE SMOOTH",
"544 649 OFFCURVE",
"424 706 OFFCURVE",
"289 706 CURVE SMOOTH",
"222 706 OFFCURVE",
"157 692 OFFCURVE",
"104 670 CURVE SMOOTH",
"80 660 OFFCURVE",
"73 655 OFFCURVE",
"73 641 CURVE SMOOTH",
"73 631 OFFCURVE",
"80 627 OFFCURVE",
"86 627 CURVE SMOOTH",
"96 627 OFFCURVE",
"118 640 OFFCURVE",
"122 642 CURVE",
"108 653 LINE",
"114 557 OFFCURVE",
"113 478 OFFCURVE",
"113 381 CURVE SMOOTH",
"113 252 OFFCURVE",
"108 137 OFFCURVE",
"95 18 CURVE",
"107 32 LINE",
"67 33 LINE SMOOTH",
"55 33 OFFCURVE",
"50 29 OFFCURVE",
"50 18 CURVE SMOOTH",
"50 11 OFFCURVE",
"52 3 OFFCURVE",
"67 3 CURVE SMOOTH",
"105 3 LINE",
"95 13 LINE",
"92 -7 OFFCURVE",
"95 -16 OFFCURVE",
"107 -16 CURVE SMOOTH"
);
},
{
closed = 1;
nodes = (
"140 139 OFFCURVE",
"144 256 OFFCURVE",
"144 383 CURVE SMOOTH",
"144 477 OFFCURVE",
"144 560 OFFCURVE",
"141 668 CURVE",
"128 645 LINE",
"160 669 OFFCURVE",
"231 676 OFFCURVE",
"293 676 CURVE SMOOTH",
"406 676 OFFCURVE",
"513 630 OFFCURVE",
"513 517 CURVE SMOOTH",
"513 424 OFFCURVE",
"402 374 OFFCURVE",
"239 374 CURVE SMOOTH",
"222 374 OFFCURVE",
"215 369 OFFCURVE",
"215 358 CURVE SMOOTH",
"215 344 OFFCURVE",
"223 340 OFFCURVE",
"238 340 CURVE SMOOTH",
"402 340 OFFCURVE",
"503 274 OFFCURVE",
"503 174 CURVE SMOOTH",
"503 60 OFFCURVE",
"389 23 OFFCURVE",
"232 30 CURVE SMOOTH",
"176 33 OFFCURVE",
"142 32 OFFCURVE",
"113 32 CURVE",
"125 18 LINE"
);
}
);
width = 574;
},
{
anchors = (
{
name = bottom;
position = "{336, 0}";
},
{
name = top;
position = "{335, 700}";
}
);
background = {
paths = (
{
closed = 1;
nodes = (
"92 -16 OFFCURVE",
"97 -9 OFFCURVE",
"99 3 CURVE",
"144 3 OFFCURVE",
"181 3 OFFCURVE",
"230 0 CURVE SMOOTH",
"380 -9 OFFCURVE",
"509 41 OFFCURVE",
"509 174 CURVE SMOOTH",
"509 265 OFFCURVE",
"444 337 OFFCURVE",
"308 355 CURVE",
"435 370 OFFCURVE",
"519 420 OFFCURVE",
"519 519 CURVE SMOOTH",
"519 649 OFFCURVE",
"399 706 OFFCURVE",
"264 706 CURVE SMOOTH",
"197 706 OFFCURVE",
"132 692 OFFCURVE",
"79 670 CURVE SMOOTH",
"64 664 OFFCURVE",
"48 656 OFFCURVE",
"48 640 CURVE SMOOTH",
"48 636 OFFCURVE",
"49 626 OFFCURVE",
"57 626 CURVE SMOOTH",
"67 626 OFFCURVE",
"77 636 OFFCURVE",
"84 636 CURVE",
"88 574 OFFCURVE",
"88 502 OFFCURVE",
"88 435 CURVE SMOOTH",
"88 315 OFFCURVE",
"83 151 OFFCURVE",
"72 33 CURVE",
"42 33 LINE SMOOTH",
"30 33 OFFCURVE",
"25 29 OFFCURVE",
"25 18 CURVE SMOOTH",
"25 11 OFFCURVE",
"27 3 OFFCURVE",
"42 3 CURVE SMOOTH",
"69 3 LINE",
"69 -9 OFFCURVE",
"72 -16 OFFCURVE",
"82 -16 CURVE SMOOTH"
);
},
{
closed = 1;
nodes = (
"163 32 OFFCURVE",
"122 32 OFFCURVE",
"101 32 CURVE",
"114 146 OFFCURVE",
"119 271 OFFCURVE",
"119 417 CURVE SMOOTH",
"119 483 OFFCURVE",
"118 561 OFFCURVE",
"116 653 CURVE",
"150 669 OFFCURVE",
"200 677 OFFCURVE",
"248 677 CURVE SMOOTH",
"364 677 OFFCURVE",
"489 630 OFFCURVE",
"489 517 CURVE SMOOTH",
"489 402 OFFCURVE",
"361 373 OFFCURVE",
"214 370 CURVE SMOOTH",
"197 370 OFFCURVE",
"190 369 OFFCURVE",
"190 356 CURVE SMOOTH",
"190 342 OFFCURVE",
"198 340 OFFCURVE",
"213 340 CURVE SMOOTH",
"317 340 OFFCURVE",
"478 315 OFFCURVE",
"478 180 CURVE SMOOTH",
"478 66 OFFCURVE",
"364 23 OFFCURVE",
"207 30 CURVE SMOOTH"
);
}
);
};
layerId = "2F8C22CF-EC86-44F4-AF1A-A6C7F26A0C3C";
paths = (
{
closed = 1;
nodes = (
"219 -34 OFFCURVE",
"248 -23 OFFCURVE",
"253 40 CURVE",
"206 4 LINE",
"262 0 OFFCURVE",
"310 -4 OFFCURVE",
"355 -4 CURVE SMOOTH",
"497 -4 OFFCURVE",
"615 64 OFFCURVE",
"615 196 CURVE SMOOTH",
"615 269 OFFCURVE",
"579 336 OFFCURVE",
"445 373 CURVE",
"446 326 LINE",
"580 359 OFFCURVE",
"624 421 OFFCURVE",
"624 497 CURVE SMOOTH",
"624 622 OFFCURVE",
"504 708 OFFCURVE",
"336 708 CURVE SMOOTH",
"282 708 OFFCURVE",
"212 699 OFFCURVE",
"150 673 CURVE SMOOTH",
"102 653 OFFCURVE",
"80 631 OFFCURVE",
"80 593 CURVE SMOOTH",
"80 567 OFFCURVE",
"101 542 OFFCURVE",
"132 550 CURVE SMOOTH",
"144 553 OFFCURVE",
"156 558 OFFCURVE",
"164 562 CURVE",
"123 584 LINE",
"123 498 OFFCURVE",
"124 434 OFFCURVE",
"124 384 CURVE SMOOTH",
"124 274 OFFCURVE",
"120 186 OFFCURVE",
"112 99 CURVE",
"164 131 LINE",
"124 133 LINE SMOOTH",
"79 135 OFFCURVE",
"60 96 OFFCURVE",
"60 68 CURVE SMOOTH",
"60 34 OFFCURVE",
"73 16 OFFCURVE",
"113 10 CURVE SMOOTH",
"155 4 LINE",
"102 53 LINE",
"98 -5 OFFCURVE",
"137 -34 OFFCURVE",
"181 -34 CURVE SMOOTH"
);
},
{
closed = 1;
nodes = (
"264 230 OFFCURVE",
"269 280 OFFCURVE",
"269 384 CURVE SMOOTH",
"269 472 OFFCURVE",
"269 513 OFFCURVE",
"266 611 CURVE",
"227 573 LINE",
"253 576 OFFCURVE",
"296 579 OFFCURVE",
"332 579 CURVE SMOOTH",
"432 579 OFFCURVE",
"480 548 OFFCURVE",
"480 491 CURVE SMOOTH",
"480 409 OFFCURVE",
"293 417 OFFCURVE",
"216 417 CURVE SMOOTH",
"183 417 OFFCURVE",
"138 403 OFFCURVE",
"138 352 CURVE SMOOTH",
"138 304 OFFCURVE",
"173 289 OFFCURVE",
"221 289 CURVE SMOOTH",
"304 289 OFFCURVE",
"471 280 OFFCURVE",
"471 207 CURVE SMOOTH",
"471 143 OFFCURVE",
"414 123 OFFCURVE",
"338 123 CURVE SMOOTH",
"289 123 OFFCURVE",
"256 123 OFFCURVE",
"206 127 CURVE",
"253 87 LINE"
);
}
);
width = 674;
},
{
anchors = (
{
name = bottom;
position = "{310, 0}";
},
{
name = top;
position = "{310, 700}";
}
);
layerId = "17B9D149-A542-49FB-8130-D430586D7342";
paths = (
{
closed = 1;
nodes = (
"147 -23 OFFCURVE",
"163 -15 OFFCURVE",
"165 23 CURVE",
"139 3 LINE",
"275 -1 OFFCURVE",
"154 3 OFFCURVE",
"284 -2 CURVE SMOOTH",
"426 -8 OFFCURVE",
"555 50 OFFCURVE",
"555 181 CURVE SMOOTH",
"555 273 OFFCURVE",
"492 351 OFFCURVE",
"329 365 CURVE",
"330 341 LINE",
"485 356 OFFCURVE",
"565 416 OFFCURVE",
"565 516 CURVE SMOOTH",
"565 639 OFFCURVE",
"445 707 OFFCURVE",
"297 707 CURVE SMOOTH",
"235 707 OFFCURVE",
"168 695 OFFCURVE",
"111 671 CURVE SMOOTH",
"78 657 OFFCURVE",
"64 645 OFFCURVE",
"64 623 CURVE SMOOTH",
"64 602 OFFCURVE",
"78 594 OFFCURVE",
"93 596 CURVE SMOOTH",
"106 598 OFFCURVE",
"119 605 OFFCURVE",
"127 610 CURVE",
"103 625 LINE",
"106 533 OFFCURVE",
"106 460 OFFCURVE",
"106 382 CURVE SMOOTH",
"106 261 OFFCURVE",
"101 157 OFFCURVE",
"90 50 CURVE",
"118 72 LINE",
"78 73 LINE SMOOTH",
"53 74 OFFCURVE",
"43 57 OFFCURVE",
"43 37 CURVE SMOOTH",
"43 21 OFFCURVE",
"49 8 OFFCURVE",
"74 6 CURVE SMOOTH",
"114 3 LINE",
"86 29 LINE",
"83 -6 OFFCURVE",
"99 -23 OFFCURVE",
"127 -23 CURVE SMOOTH"
);
},
{
closed = 1;
nodes = (
"178 175 OFFCURVE",
"183 266 OFFCURVE",
"183 383 CURVE SMOOTH",
"183 475 OFFCURVE",
"183 541 OFFCURVE",
"180 645 CURVE",
"156 616 LINE",
"186 632 OFFCURVE",
"249 637 OFFCURVE",
"290 637 CURVE SMOOTH",
"404 637 OFFCURVE",
"488 599 OFFCURVE",
"488 514 CURVE SMOOTH",
"488 404 OFFCURVE",
"348 396 OFFCURVE",
"246 391 CURVE SMOOTH",
"227 390 OFFCURVE",
"201 387 OFFCURVE",
"201 355 CURVE SMOOTH",
"201 323 OFFCURVE",
"227 321 OFFCURVE",
"248 320 CURVE SMOOTH",
"383 312 OFFCURVE",
"479 286 OFFCURVE",
"479 186 CURVE SMOOTH",
"479 96 OFFCURVE",
"401 64 OFFCURVE",
"263 67 CURVE SMOOTH",
"229 68 OFFCURVE",
"209 68 OFFCURVE",
"139 70 CURVE",
"165 46 LINE"
);
}
);
width = 621;
}
);
note = B;
unicode = 0042;
},
{
glyphname = C;
lastChange = "2018-03-09 06:15:39 +0000";
layers = (
{
anchors = (
{
name = bottom;
position = "{344, 0}";
},
{
name = top;
position = "{344, 700}";
}
);
layerId = "0B1DFD06-3317-40CA-B510-4969A0718C16";
paths = (
{
closed = 1;
nodes = (
"540 -2 OFFCURVE",
"658 111 OFFCURVE",
"658 235 CURVE SMOOTH",
"658 245 OFFCURVE",
"658 257 OFFCURVE",
"644 257 CURVE SMOOTH",
"634 257 OFFCURVE",
"628 250 OFFCURVE",
"628 239 CURVE SMOOTH",
"628 124 OFFCURVE",
"510 29 OFFCURVE",
"385 29 CURVE SMOOTH",
"243 29 OFFCURVE",
"81 110 OFFCURVE",
"81 329 CURVE SMOOTH",
"81 537 OFFCURVE",
"230 681 OFFCURVE",
"381 681 CURVE SMOOTH",
"470 681 OFFCURVE",
"527 638 OFFCURVE",
"583 558 CURVE SMOOTH",
"591 547 OFFCURVE",
"597 547 OFFCURVE",
"604 547 CURVE SMOOTH",
"613 547 OFFCURVE",
"619 553 OFFCURVE",
"619 563 CURVE SMOOTH",
"620 610 OFFCURVE",
"620 648 OFFCURVE",
"621 693 CURVE SMOOTH",
"621 702 OFFCURVE",
"614 707 OFFCURVE",
"604 707 CURVE SMOOTH",
"595 707 OFFCURVE",
"588 701 OFFCURVE",
"588 692 CURVE SMOOTH",
"588 665 OFFCURVE",
"589 603 OFFCURVE",
"589 578 CURVE",
"601 579 LINE",
"550 663 OFFCURVE",
"474 712 OFFCURVE",
"380 712 CURVE SMOOTH",
"212 712 OFFCURVE",
"50 568 OFFCURVE",
"50 328 CURVE SMOOTH",
"50 82 OFFCURVE",
"227 -2 OFFCURVE",
"377 -2 CURVE SMOOTH"
);
}
);
width = 688;
},
{
anchors = (
{
name = bottom;
position = "{382, 0}";
},
{
name = top;
position = "{382, 700}";
}
);
background = {
paths = (
{
closed = 1;
nodes = (
"580 -2 OFFCURVE",
"685 106 OFFCURVE",
"685 235 CURVE SMOOTH",
"685 245 OFFCURVE",
"685 257 OFFCURVE",
"671 257 CURVE SMOOTH",
"661 257 OFFCURVE",
"655 250 OFFCURVE",
"655 239 CURVE SMOOTH",
"655 163 OFFCURVE",
"599 29 OFFCURVE",
"412 29 CURVE SMOOTH",
"262 29 OFFCURVE",
"107 110 OFFCURVE",
"107 329 CURVE SMOOTH",
"107 545 OFFCURVE",
"257 681 OFFCURVE",
"408 681 CURVE SMOOTH",
"502 681 OFFCURVE",
"552 628 OFFCURVE",
"623 550 CURVE SMOOTH",
"628 545 OFFCURVE",
"633 542 OFFCURVE",
"636 542 CURVE SMOOTH",
"640 542 OFFCURVE",
"643 546 OFFCURVE",
"645 555 CURVE SMOOTH",
"648 571 OFFCURVE",
"648 592 OFFCURVE",
"648 696 CURVE SMOOTH",
"648 705 OFFCURVE",
"641 707 OFFCURVE",
"631 707 CURVE SMOOTH",
"622 707 OFFCURVE",
"615 701 OFFCURVE",
"615 692 CURVE SMOOTH",
"615 672 OFFCURVE",
"614 638 OFFCURVE",
"614 611 CURVE",
"547 674 OFFCURVE",
"490 712 OFFCURVE",
"407 712 CURVE SMOOTH",
"245 712 OFFCURVE",
"77 568 OFFCURVE",
"77 328 CURVE SMOOTH",
"77 82 OFFCURVE",
"254 -2 OFFCURVE",
"404 -2 CURVE SMOOTH"
);
}
);
};
layerId = "2F8C22CF-EC86-44F4-AF1A-A6C7F26A0C3C";
paths = (
{
closed = 1;
nodes = (
"579 -4 OFFCURVE",
"712 103 OFFCURVE",
"712 252 CURVE SMOOTH",
"712 295 OFFCURVE",
"679 322 OFFCURVE",
"631 322 CURVE SMOOTH",
"585 322 OFFCURVE",
"563 293 OFFCURVE",
"563 254 CURVE SMOOTH",
"563 177 OFFCURVE",
"486 126 OFFCURVE",
"401 126 CURVE SMOOTH",
"288 126 OFFCURVE",
"195 210 OFFCURVE",
"195 333 CURVE SMOOTH",
"195 473 OFFCURVE",
"301 584 OFFCURVE",
"404 584 CURVE SMOOTH",
"486 584 OFFCURVE",
"516 537 OFFCURVE",
"552 487 CURVE SMOOTH",
"563 472 OFFCURVE",
"586 464 OFFCURVE",
"607 464 CURVE SMOOTH",
"658 464 OFFCURVE",
"677 497 OFFCURVE",
"679 552 CURVE SMOOTH",
"680 584 OFFCURVE",
"680 617 OFFCURVE",
"680 649 CURVE SMOOTH",
"680 685 OFFCURVE",
"654 710 OFFCURVE",
"608 710 CURVE SMOOTH",
"563 710 OFFCURVE",
"543 683 OFFCURVE",
"543 646 CURVE SMOOTH",
"543 629 OFFCURVE",
"542 599 OFFCURVE",
"542 576 CURVE",
"593 576 LINE",
"579 643 OFFCURVE",
"511 714 OFFCURVE",
"364 714 CURVE SMOOTH",
"188 714 OFFCURVE",
"50 547 OFFCURVE",
"50 332 CURVE SMOOTH",
"50 129 OFFCURVE",
"191 -4 OFFCURVE",
"401 -4 CURVE SMOOTH"
);
}
);
width = 742;
},
{
anchors = (
{
name = bottom;
position = "{359, 0}";
},
{
name = top;
position = "{359, 700}";
}
);
layerId = "17B9D149-A542-49FB-8130-D430586D7342";
paths = (
{
closed = 1;
nodes = (
"567 -3 OFFCURVE",
"680 121 OFFCURVE",
"680 231 CURVE SMOOTH",
"680 264 OFFCURVE",
"670 283 OFFCURVE",
"640 283 CURVE SMOOTH",
"605 283 OFFCURVE",
"603 258 OFFCURVE",
"602 245 CURVE SMOOTH",
"588 120 OFFCURVE",
"489 68 OFFCURVE",
"388 68 CURVE SMOOTH",
"261 68 OFFCURVE",
"127 150 OFFCURVE",
"127 332 CURVE SMOOTH",
"127 511 OFFCURVE",
"257 642 OFFCURVE",
"395 642 CURVE SMOOTH",
"486 642 OFFCURVE",
"531 584 OFFCURVE",
"571 530 CURVE SMOOTH",
"582 515 OFFCURVE",
"596 514 OFFCURVE",
"603 514 CURVE SMOOTH",
"629 514 OFFCURVE",
"642 528 OFFCURVE",
"643 559 CURVE SMOOTH",
"644 596 OFFCURVE",
"645 665 OFFCURVE",
"645 671 CURVE SMOOTH",
"645 696 OFFCURVE",
"630 708 OFFCURVE",
"607 708 CURVE SMOOTH",
"581 708 OFFCURVE",
"570 694 OFFCURVE",
"570 674 CURVE SMOOTH",
"570 651 OFFCURVE",
"570 601 OFFCURVE",
"570 577 CURVE",
"598 578 LINE",
"561 658 OFFCURVE",
"483 713 OFFCURVE",
"378 713 CURVE SMOOTH",
"202 713 OFFCURVE",
"50 560 OFFCURVE",
"50 335 CURVE SMOOTH",
"50 101 OFFCURVE",
"213 -3 OFFCURVE",
"382 -3 CURVE SMOOTH"
);
}
);
width = 714;
}
);
leftKerningGroup = C;
note = C;
rightKerningGroup = C;
unicode = 0043;
},
{
glyphname = D;
lastChange = "2018-03-09 06:17:47 +0000";
layers = (
{
anchors = (
{
name = bottom;
position = "{313, 0}";
},
{
name = center;
position = "{313, 350}";
},
{
name = top;
position = "{313, 700}";
}
);
layerId = "0B1DFD06-3317-40CA-B510-4969A0718C16";
paths = (
{
closed = 1;
nodes = (
"106 8 OFFCURVE",
"127 8 OFFCURVE",
"152 8 CURVE SMOOTH",
"431 8 OFFCURVE",
"593 142 OFFCURVE",
"593 356 CURVE SMOOTH",
"593 606 OFFCURVE",
"372 698 OFFCURVE",
"97 698 CURVE SMOOTH",
"68 698 OFFCURVE",
"60 697 OFFCURVE",
"60 683 CURVE SMOOTH",
"60 668 OFFCURVE",
"71 667 OFFCURVE",
"83 667 CURVE SMOOTH",
"270 667 OFFCURVE",
"562 630 OFFCURVE",
"562 359 CURVE SMOOTH",
"562 152 OFFCURVE",
"399 38 OFFCURVE",
"149 38 CURVE",
"159 30 LINE",
"142 692 LINE SMOOTH",
"142 705 OFFCURVE",
"138 713 OFFCURVE",
"127 713 CURVE SMOOTH",
"117 713 OFFCURVE",
"110 708 OFFCURVE",
"110 691 CURVE SMOOTH",
"128 30 LINE",
"136 38 LINE",
"76 38 LINE SMOOTH",
"66 38 OFFCURVE",
"61 32 OFFCURVE",
"61 23 CURVE SMOOTH",
"61 14 OFFCURVE",
"65 8 OFFCURVE",
"77 8 CURVE SMOOTH"
);
}
);
width = 643;
},
{
anchors = (
{
name = bottom;
position = "{347, 0}";
},
{
name = center;
position = "{357, 351}";
},
{
name = top;
position = "{347, 700}";
}
);
background = {
paths = (
{
closed = 1;
nodes = (
"473 8 OFFCURVE",
"635 142 OFFCURVE",
"635 357 CURVE SMOOTH",
"635 606 OFFCURVE",
"417 698 OFFCURVE",
"127 698 CURVE SMOOTH",
"114 698 OFFCURVE",
"102 699 OFFCURVE",
"102 686 CURVE SMOOTH",
"102 674 OFFCURVE",
"109 669 OFFCURVE",
"125 669 CURVE SMOOTH",
"413 669 OFFCURVE",
"606 581 OFFCURVE",
"606 358 CURVE SMOOTH",
"606 158 OFFCURVE",
"431 37 OFFCURVE",
"201 37 CURVE",
"183 686 LINE SMOOTH",
"183 703 OFFCURVE",
"182 712 OFFCURVE",
"168 712 CURVE SMOOTH",
"153 712 OFFCURVE",
"152 701 OFFCURVE",
"152 684 CURVE SMOOTH",
"170 37 LINE",
"115 37 LINE SMOOTH",
"108 37 OFFCURVE",
"103 34 OFFCURVE",
"103 25 CURVE SMOOTH",
"103 13 OFFCURVE",
"107 8 OFFCURVE",
"119 8 CURVE SMOOTH",
"148 8 OFFCURVE",
"169 8 OFFCURVE",
"194 8 CURVE SMOOTH"
);
}
);
};
layerId = "2F8C22CF-EC86-44F4-AF1A-A6C7F26A0C3C";
paths = (
{
closed = 1;
nodes = (
"178 5 OFFCURVE",
"197 5 OFFCURVE",
"218 5 CURVE SMOOTH",
"491 5 OFFCURVE",
"667 141 OFFCURVE",
"667 356 CURVE SMOOTH",
"667 590 OFFCURVE",
"458 703 OFFCURVE",
"205 703 CURVE SMOOTH",
"104 703 OFFCURVE",
"70 685 OFFCURVE",
"70 636 CURVE SMOOTH",
"70 577 OFFCURVE",
"120 575 OFFCURVE",
"159 574 CURVE SMOOTH",
"298 569 OFFCURVE",
"522 545 OFFCURVE",
"522 362 CURVE SMOOTH",
"522 219 OFFCURVE",
"385 133 OFFCURVE",
"233 133 CURVE",
"283 85 LINE",
"268 636 LINE SMOOTH",
"267 690 OFFCURVE",
"255 719 OFFCURVE",
"194 719 CURVE SMOOTH",
"129 719 OFFCURVE",
"122 687 OFFCURVE",
"123 637 CURVE SMOOTH",
"138 85 LINE",
"186 133 LINE",
"128 133 LINE SMOOTH",
"88 133 OFFCURVE",
"71 111 OFFCURVE",
"71 71 CURVE SMOOTH",
"71 23 OFFCURVE",
"95 5 OFFCURVE",
"153 5 CURVE SMOOTH"
);
}
);
width = 717;
},
{
anchors = (
{
name = bottom;
position = "{339, 0}";
},
{
name = center;
position = "{343, 350}";
},
{
name = top;
position = "{339, 700}";
}
);
layerId = "17B9D149-A542-49FB-8130-D430586D7342";
paths = (
{
closed = 1;
nodes = (
"148 7 OFFCURVE",
"168 7 OFFCURVE",
"191 7 CURVE SMOOTH",
"467 7 OFFCURVE",
"635 141 OFFCURVE",
"635 356 CURVE SMOOTH",
"635 600 OFFCURVE",
"419 700 OFFCURVE",
"152 700 CURVE SMOOTH",
"106 700 OFFCURVE",
"77 697 OFFCURVE",
"77 663 CURVE SMOOTH",
"77 633 OFFCURVE",
"101 631 OFFCURVE",
"126 630 CURVE SMOOTH",
"323 620 OFFCURVE",
"559 590 OFFCURVE",
"559 361 CURVE SMOOTH",
"559 177 OFFCURVE",
"406 76 OFFCURVE",
"195 76 CURVE",
"221 52 LINE",
"205 670 LINE SMOOTH",
"205 699 OFFCURVE",
"198 715 OFFCURVE",
"167 715 CURVE SMOOTH",
"139 715 OFFCURVE",
"127 703 OFFCURVE",
"128 669 CURVE SMOOTH",
"145 52 LINE",
"169 76 LINE",
"110 76 LINE SMOOTH",
"88 76 OFFCURVE",
"78 64 OFFCURVE",
"78 42 CURVE SMOOTH",
"78 16 OFFCURVE",
"92 7 OFFCURVE",
"120 7 CURVE SMOOTH"
);
}
);
width = 687;
}
);
note = D;
unicode = 0044;
},
{
glyphname = E;
lastChange = "2018-03-09 06:20:59 +0000";
layers = (
{
anchors = (
{
name = bottom;
position = "{311, 0}";
},
{
name = ogonek;
position = "{510, 30}";
},
{
name = top;
position = "{311, 700}";
},
{
name = topleft;
position = "{55, 700}";
}
);
layerId = "0B1DFD06-3317-40CA-B510-4969A0718C16";
paths = (
{
closed = 1;
nodes = (
"406 13 OFFCURVE",
"476 15 OFFCURVE",
"513 22 CURVE SMOOTH",
"526 24 OFFCURVE",
"528 28 OFFCURVE",
"528 36 CURVE SMOOTH",
"528 48 OFFCURVE",
"523 55 OFFCURVE",
"509 53 CURVE SMOOTH",
"456 47 OFFCURVE",
"428 44 OFFCURVE",
"346 44 CURVE SMOOTH",
"264 44 OFFCURVE",
"184 47 OFFCURVE",
"136 52 CURVE",
"147 41 LINE",
"157 160 OFFCURVE",
"169 209 OFFCURVE",
"169 437 CURVE SMOOTH",
"169 503 OFFCURVE",
"168 604 OFFCURVE",
"164 671 CURVE",
"155 660 LINE",
"198 663 OFFCURVE",
"242 666 OFFCURVE",
"325 666 CURVE SMOOTH",
"420 666 OFFCURVE",
"464 662 OFFCURVE",
"517 657 CURVE SMOOTH",
"525 656 OFFCURVE",
"534 660 OFFCURVE",
"534 672 CURVE SMOOTH",
"534 681 OFFCURVE",
"528 686 OFFCURVE",
"518 687 CURVE SMOOTH",
"461 693 OFFCURVE",
"420 696 OFFCURVE",
"311 696 CURVE SMOOTH",
"248 696 OFFCURVE",
"197 695 OFFCURVE",
"132 690 CURVE SMOOTH",
"118 689 OFFCURVE",
"112 685 OFFCURVE",
"112 673 CURVE SMOOTH",
"112 660 OFFCURVE",
"119 658 OFFCURVE",
"145 660 CURVE",
"134 670 LINE",
"139 603 OFFCURVE",
"138 490 OFFCURVE",
"138 406 CURVE SMOOTH",
"138 239 OFFCURVE",
"128 128 OFFCURVE",
"114 42 CURVE",
"127 52 LINE",
"110 54 OFFCURVE",
"100 55 OFFCURVE",
"96 55 CURVE SMOOTH",
"85 55 OFFCURVE",
"80 49 OFFCURVE",
"80 39 CURVE SMOOTH",
"80 30 OFFCURVE",
"84 25 OFFCURVE",
"96 24 CURVE SMOOTH",
"195 15 OFFCURVE",
"276 14 OFFCURVE",
"324 14 CURVE SMOOTH"
);
},
{
closed = 1;
nodes = (
"443 349 OFFCURVE",
"446 354 OFFCURVE",
"446 363 CURVE SMOOTH",
"446 375 OFFCURVE",
"440 380 OFFCURVE",
"430 380 CURVE SMOOTH",
"396 380 OFFCURVE",
"330 384 OFFCURVE",
"267 384 CURVE SMOOTH",
"217 384 OFFCURVE",
"145 387 OFFCURVE",
"109 387 CURVE SMOOTH",
"99 387 OFFCURVE",
"93 381 OFFCURVE",
"93 372 CURVE SMOOTH",
"93 363 OFFCURVE",
"98 356 OFFCURVE",
"110 356 CURVE SMOOTH",
"144 356 OFFCURVE",
"204 355 OFFCURVE",
"264 354 CURVE SMOOTH",
"341 353 OFFCURVE",
"399 349 OFFCURVE",
"431 349 CURVE SMOOTH"
);
}
);
width = 574;
},
{
anchors = (
{
name = bottom;
position = "{348, 0}";
},
{
name = ogonek;
position = "{540, 51}";
},
{
name = top;
position = "{348, 700}";
},
{
name = topleft;
position = "{118, 652}";
}
);
layerId = "2F8C22CF-EC86-44F4-AF1A-A6C7F26A0C3C";
paths = (
{
closed = 1;
nodes = (
"398 9 OFFCURVE",
"492 8 OFFCURVE",
"540 18 CURVE SMOOTH",
"578 26 OFFCURVE",
"594 47 OFFCURVE",
"594 81 CURVE SMOOTH",
"594 125 OFFCURVE",
"566 151 OFFCURVE",
"517 145 CURVE SMOOTH",
"468 139 OFFCURVE",
"438 136 OFFCURVE",
"361 136 CURVE SMOOTH",
"317 136 OFFCURVE",
"283 137 OFFCURVE",
"208 145 CURVE",
"259 93 LINE",
"278 213 OFFCURVE",
"278 254 OFFCURVE",
"278 382 CURVE SMOOTH",
"278 431 OFFCURVE",
"274 520 OFFCURVE",
"274 620 CURVE",
"227 567 LINE",
"260 570 OFFCURVE",
"317 574 OFFCURVE",
"382 574 CURVE SMOOTH",
"447 574 OFFCURVE",
"498 570 OFFCURVE",
"544 566 CURVE SMOOTH",
"579 563 OFFCURVE",
"600 592 OFFCURVE",
"600 631 CURVE SMOOTH",
"600 674 OFFCURVE",
"573 689 OFFCURVE",
"537 693 CURVE SMOOTH",
"504 697 OFFCURVE",
"431 701 OFFCURVE",
"336 701 CURVE SMOOTH",
"289 701 OFFCURVE",
"207 700 OFFCURVE",
"168 696 CURVE SMOOTH",
"123 691 OFFCURVE",
"98 675 OFFCURVE",
"98 631 CURVE SMOOTH",
"98 593 OFFCURVE",
"117 566 OFFCURVE",
"179 567 CURVE",
"132 620 LINE",
"132 506 OFFCURVE",
"131 416 OFFCURVE",
"131 376 CURVE SMOOTH",
"131 285 OFFCURVE",
"136 225 OFFCURVE",
"113 103 CURVE",
"169 148 LINE",
"147 148 OFFCURVE",
"126 148 OFFCURVE",
"111 147 CURVE SMOOTH",
"82 144 OFFCURVE",
"70 116 OFFCURVE",
"70 84 CURVE SMOOTH",
"70 50 OFFCURVE",
"83 28 OFFCURVE",
"114 24 CURVE SMOOTH",
"221 10 OFFCURVE",
"281 9 OFFCURVE",
"340 9 CURVE SMOOTH"
);
},
{
closed = 1;
nodes = (
"509 300 OFFCURVE",
"525 327 OFFCURVE",
"525 367 CURVE SMOOTH",
"525 420 OFFCURVE",
"497 425 OFFCURVE",
"481 427 CURVE SMOOTH",
"443 431 OFFCURVE",
"363 431 OFFCURVE",
"289 431 CURVE SMOOTH",
"215 431 OFFCURVE",
"154 433 OFFCURVE",
"141 433 CURVE SMOOTH",
"88 433 OFFCURVE",
"81 394 OFFCURVE",
"81 368 CURVE SMOOTH",
"81 324 OFFCURVE",
"101 303 OFFCURVE",
"134 303 CURVE SMOOTH",
"172 303 OFFCURVE",
"151 303 OFFCURVE",
"300 302 CURVE SMOOTH",
"439 301 OFFCURVE",
"412 300 OFFCURVE",
"481 300 CURVE SMOOTH"
);
}
);
width = 640;
},
{
anchors = (
{
name = bottom;
position = "{301, 0}";
},
{
name = ogonek;
position = "{497, 38}";
},
{
name = top;
position = "{301, 700}";
},
{
name = topleft;
position = "{55, 681}";
}
);
layerId = "17B9D149-A542-49FB-8130-D430586D7342";
paths = (
{
closed = 1;
nodes = (
"370 12 OFFCURVE",
"458 11 OFFCURVE",
"499 20 CURVE SMOOTH",
"515 23 OFFCURVE",
"529 30 OFFCURVE",
"529 55 CURVE SMOOTH",
"529 80 OFFCURVE",
"515 93 OFFCURVE",
"487 90 CURVE SMOOTH",
"434 84 OFFCURVE",
"403 81 OFFCURVE",
"325 81 CURVE SMOOTH",
"262 81 OFFCURVE",
"199 83 OFFCURVE",
"140 89 CURVE",
"167 62 LINE",
"179 161 OFFCURVE",
"188 234 OFFCURVE",
"188 391 CURVE SMOOTH",
"188 482 OFFCURVE",
"185 570 OFFCURVE",
"183 651 CURVE",
"159 623 LINE",
"198 626 OFFCURVE",
"249 629 OFFCURVE",
"319 629 CURVE SMOOTH",
"400 629 OFFCURVE",
"453 625 OFFCURVE",
"503 621 CURVE SMOOTH",
"522 619 OFFCURVE",
"535 633 OFFCURVE",
"535 656 CURVE SMOOTH",
"535 682 OFFCURVE",
"518 686 OFFCURVE",
"501 689 CURVE SMOOTH",
"466 694 OFFCURVE",
"395 698 OFFCURVE",
"293 698 CURVE SMOOTH",
"242 698 OFFCURVE",
"168 697 OFFCURVE",
"121 692 CURVE SMOOTH",
"103 690 OFFCURVE",
"81 687 OFFCURVE",
"81 656 CURVE SMOOTH",
"81 633 OFFCURVE",
"93 621 OFFCURVE",
"134 623 CURVE",
"108 650 LINE",
"111 564 OFFCURVE",
"110 455 OFFCURVE",
"110 392 CURVE SMOOTH",
"110 252 OFFCURVE",
"106 167 OFFCURVE",
"89 66 CURVE",
"119 90 LINE",
"100 92 OFFCURVE",
"86 92 OFFCURVE",
"76 92 CURVE SMOOTH",
"61 92 OFFCURVE",
"51 77 OFFCURVE",
"51 57 CURVE SMOOTH",
"51 39 OFFCURVE",
"59 26 OFFCURVE",
"78 24 CURVE SMOOTH",
"175 13 OFFCURVE",
"240 12 OFFCURVE",
"316 12 CURVE SMOOTH"
);
},
{
closed = 1;
nodes = (
"444 329 OFFCURVE",
"453 345 OFFCURVE",
"453 366 CURVE SMOOTH",
"453 385 OFFCURVE",
"446 399 OFFCURVE",
"425 399 CURVE SMOOTH",
"385 399 OFFCURVE",
"333 402 OFFCURVE",
"255 403 CURVE SMOOTH",
"180 404 OFFCURVE",
"146 405 OFFCURVE",
"94 405 CURVE SMOOTH",
"71 405 OFFCURVE",
"63 389 OFFCURVE",
"63 370 CURVE SMOOTH",
"63 347 OFFCURVE",
"76 335 OFFCURVE",
"98 335 CURVE SMOOTH",
"150 335 OFFCURVE",
"196 333 OFFCURVE",
"253 333 CURVE SMOOTH",
"340 333 OFFCURVE",
"385 329 OFFCURVE",
"425 329 CURVE SMOOTH"
);
}
);
width = 573;
}
);
note = E;
unicode = 0045;
},
{
glyphname = F;
lastChange = "2018-03-09 06:21:05 +0000";
layers = (
{
anchors = (
{
name = bottom;
position = "{306, 0}";
},
{
name = top;
position = "{306, 700}";
}
);
layerId = "0B1DFD06-3317-40CA-B510-4969A0718C16";
paths = (
{
closed = 1;
nodes = (
"168 6 OFFCURVE",
"175 10 OFFCURVE",
"176 18 CURVE SMOOTH",
"182 70 OFFCURVE",
"188 192 OFFCURVE",
"188 341 CURVE SMOOTH",
"188 533 OFFCURVE",
"174 644 OFFCURVE",
"168 728 CURVE SMOOTH",
"167 741 OFFCURVE",
"161 745 OFFCURVE",
"151 745 CURVE SMOOTH",
"141 745 OFFCURVE",
"135 739 OFFCURVE",
"136 727 CURVE SMOOTH",
"144 633 OFFCURVE",
"157 548 OFFCURVE",
"157 338 CURVE SMOOTH",
"157 162 OFFCURVE",
"150 75 OFFCURVE",
"145 20 CURVE SMOOTH",
"144 11 OFFCURVE",
"151 6 OFFCURVE",
"160 6 CURVE SMOOTH"
);
},
{
closed = 1;
nodes = (
"187 338 OFFCURVE",
"217 343 OFFCURVE",
"319 343 CURVE SMOOTH",
"384 343 OFFCURVE",
"416 341 OFFCURVE",
"456 339 CURVE SMOOTH",
"463 339 OFFCURVE",
"472 340 OFFCURVE",
"472 352 CURVE SMOOTH",
"472 363 OFFCURVE",
"465 368 OFFCURVE",
"455 369 CURVE SMOOTH",
"440 371 OFFCURVE",
"372 373 OFFCURVE",
"315 373 CURVE SMOOTH",
"224 373 OFFCURVE",
"189 368 OFFCURVE",
"95 356 CURVE SMOOTH",
"87 355 OFFCURVE",
"82 348 OFFCURVE",
"82 339 CURVE SMOOTH",
"82 327 OFFCURVE",
"91 324 OFFCURVE",
"98 325 CURVE SMOOTH"
);
},
{
closed = 1;
nodes = (
"528 655 OFFCURVE",
"533 661 OFFCURVE",
"533 670 CURVE SMOOTH",
"533 679 OFFCURVE",
"529 685 OFFCURVE",
"518 687 CURVE SMOOTH",
"465 697 OFFCURVE",
"419 700 OFFCURVE",
"321 700 CURVE SMOOTH",
"264 700 OFFCURVE",
"242 699 OFFCURVE",
"97 689 CURVE SMOOTH",
"83 688 OFFCURVE",
"80 681 OFFCURVE",
"80 673 CURVE SMOOTH",
"80 664 OFFCURVE",
"84 657 OFFCURVE",
"98 658 CURVE SMOOTH",
"210 666 OFFCURVE",
"253 670 OFFCURVE",
"324 670 CURVE SMOOTH",
"404 670 OFFCURVE",
"452 665 OFFCURVE",
"516 657 CURVE SMOOTH"
);
}
);
width = 573;
},
{
anchors = (
{
name = bottom;
position = "{367, 0}";
},
{
name = top;
position = "{367, 700}";
}
);
layerId = "2F8C22CF-EC86-44F4-AF1A-A6C7F26A0C3C";
paths = (
{
closed = 1;
nodes = (
"256 5 OFFCURVE",
"281 30 OFFCURVE",
"283 65 CURVE SMOOTH",
"287 132 OFFCURVE",
"292 214 OFFCURVE",
"292 344 CURVE SMOOTH",
"292 508 OFFCURVE",
"284 594 OFFCURVE",
"276 678 CURVE SMOOTH",
"272 720 OFFCURVE",
"251 746 OFFCURVE",
"205 746 CURVE SMOOTH",
"157 746 OFFCURVE",
"126 717 OFFCURVE",
"129 679 CURVE SMOOTH",
"138 572 OFFCURVE",
"147 519 OFFCURVE",
"147 331 CURVE SMOOTH",
"147 206 OFFCURVE",
"143 139 OFFCURVE",
"137 66 CURVE SMOOTH",
"134 30 OFFCURVE",
"164 5 OFFCURVE",
"210 5 CURVE SMOOTH"
);
},
{
closed = 1;
nodes = (
"185 287 OFFCURVE",
"249 294 OFFCURVE",
"340 294 CURVE SMOOTH",
"400 294 OFFCURVE",
"438 291 OFFCURVE",
"488 286 CURVE SMOOTH",
"534 282 OFFCURVE",
"551 314 OFFCURVE",
"551 348 CURVE SMOOTH",
"551 382 OFFCURVE",
"534 402 OFFCURVE",
"497 411 CURVE SMOOTH",
"454 421 OFFCURVE",
"372 422 OFFCURVE",
"336 422 CURVE SMOOTH",
"263 422 OFFCURVE",
"184 418 OFFCURVE",
"136 409 CURVE SMOOTH",
"102 403 OFFCURVE",
"73 391 OFFCURVE",
"73 345 CURVE SMOOTH",
"73 306 OFFCURVE",
"94 276 OFFCURVE",
"125 280 CURVE SMOOTH"
);
},
{
closed = 1;
nodes = (
"580 564 OFFCURVE",
"601 593 OFFCURVE",
"601 631 CURVE SMOOTH",
"601 663 OFFCURVE",
"587 686 OFFCURVE",
"544 695 CURVE SMOOTH",
"510 702 OFFCURVE",
"427 707 OFFCURVE",
"357 707 CURVE SMOOTH",
"312 707 OFFCURVE",
"169 705 OFFCURVE",
"129 701 CURVE SMOOTH",
"91 697 OFFCURVE",
"70 685 OFFCURVE",
"70 638 CURVE SMOOTH",
"70 589 OFFCURVE",
"92 575 OFFCURVE",
"142 575 CURVE SMOOTH",
"168 575 OFFCURVE",
"287 579 OFFCURVE",
"351 579 CURVE SMOOTH",
"436 579 OFFCURVE",
"503 572 OFFCURVE",
"541 568 CURVE SMOOTH"
);
}
);
width = 641;
},
{
anchors = (
{
name = bottom;
position = "{302, 0}";
},
{
name = top;
position = "{302, 700}";
}
);
layerId = "17B9D149-A542-49FB-8130-D430586D7342";
paths = (
{
closed = 1;
nodes = (
"171 6 OFFCURVE",
"185 18 OFFCURVE",
"187 37 CURVE SMOOTH",
"192 97 OFFCURVE",
"197 197 OFFCURVE",
"197 337 CURVE SMOOTH",
"197 524 OFFCURVE",
"188 628 OFFCURVE",
"179 707 CURVE SMOOTH",
"176 733 OFFCURVE",
"163 745 OFFCURVE",
"140 745 CURVE SMOOTH",
"115 745 OFFCURVE",
"99 731 OFFCURVE",
"101 708 CURVE SMOOTH",
"113 598 OFFCURVE",
"121 521 OFFCURVE",
"121 333 CURVE SMOOTH",
"121 171 OFFCURVE",
"115 98 OFFCURVE",
"110 38 CURVE SMOOTH",
"108 19 OFFCURVE",
"124 6 OFFCURVE",
"148 6 CURVE SMOOTH"
);
},
{
closed = 1;
nodes = (
"159 318 OFFCURVE",
"200 323 OFFCURVE",
"300 323 CURVE SMOOTH",
"364 323 OFFCURVE",
"394 321 OFFCURVE",
"437 318 CURVE SMOOTH",
"464 316 OFFCURVE",
"471 334 OFFCURVE",
"471 350 CURVE SMOOTH",
"471 368 OFFCURVE",
"462 382 OFFCURVE",
"440 386 CURVE SMOOTH",
"416 390 OFFCURVE",
"339 393 OFFCURVE",
"283 393 CURVE SMOOTH",
"197 393 OFFCURVE",
"149 386 OFFCURVE",
"79 377 CURVE SMOOTH",
"56 374 OFFCURVE",
"46 360 OFFCURVE",
"46 341 CURVE SMOOTH",
"46 319 OFFCURVE",
"59 305 OFFCURVE",
"77 307 CURVE SMOOTH"
);
},
{
closed = 1;
nodes = (
"517 618 OFFCURVE",
"528 635 OFFCURVE",
"528 655 CURVE SMOOTH",
"528 678 OFFCURVE",
"514 686 OFFCURVE",
"496 690 CURVE SMOOTH",
"466 697 OFFCURVE",
"393 703 OFFCURVE",
"302 703 CURVE SMOOTH",
"228 703 OFFCURVE",
"158 699 OFFCURVE",
"78 694 CURVE SMOOTH",
"50 692 OFFCURVE",
"44 678 OFFCURVE",
"44 660 CURVE SMOOTH",
"44 637 OFFCURVE",
"53 624 OFFCURVE",
"81 625 CURVE SMOOTH",
"149 628 OFFCURVE",
"231 634 OFFCURVE",
"307 634 CURVE SMOOTH",
"382 634 OFFCURVE",
"436 628 OFFCURVE",
"494 621 CURVE SMOOTH"
);
}
);
width = 559;
}
);
note = F;
unicode = 0046;
},
{
glyphname = G;
lastChange = "2018-03-09 06:02:42 +0000";
layers = (
{
anchors = (
{
name = bottom;
position = "{365, 0}";
},
{
name = top;
position = "{365, 700}";
}
);
layerId = "0B1DFD06-3317-40CA-B510-4969A0718C16";
paths = (
{
closed = 1;
nodes = (
"560 3 OFFCURVE",
"629 119 OFFCURVE",
"629 317 CURVE",
"619 305 LINE",
"676 304 LINE SMOOTH",
"684 304 OFFCURVE",
"690 309 OFFCURVE",
"690 319 CURVE SMOOTH",
"690 329 OFFCURVE",
"685 334 OFFCURVE",
"676 334 CURVE SMOOTH",
"431 339 LINE SMOOTH",
"424 339 OFFCURVE",
"414 336 OFFCURVE",
"414 323 CURVE SMOOTH",
"414 312 OFFCURVE",
"421 308 OFFCURVE",
"431 308 CURVE SMOOTH",
"611 305 LINE",
"598 317 LINE",
"598 139 OFFCURVE",
"542 34 OFFCURVE",
"381 34 CURVE SMOOTH",
"193 34 OFFCURVE",
"81 176 OFFCURVE",
"81 341 CURVE SMOOTH",
"81 505 OFFCURVE",
"191 657 OFFCURVE",
"376 657 CURVE SMOOTH",
"474 657 OFFCURVE",
"528 614 OFFCURVE",
"583 561 CURVE SMOOTH",
"593 551 OFFCURVE",
"598 548 OFFCURVE",
"607 548 CURVE SMOOTH",
"619 548 OFFCURVE",
"624 554 OFFCURVE",
"628 563 CURVE SMOOTH",
"635 580 OFFCURVE",
"637 616 OFFCURVE",
"637 644 CURVE SMOOTH",
"637 651 OFFCURVE",
"631 655 OFFCURVE",
"622 655 CURVE SMOOTH",
"612 655 OFFCURVE",
"608 651 OFFCURVE",
"608 635 CURVE SMOOTH",
"608 612 OFFCURVE",
"607 599 OFFCURVE",
"602 574 CURVE",
"615 574 LINE",
"559 639 OFFCURVE",
"483 688 OFFCURVE",
"373 688 CURVE SMOOTH",
"175 688 OFFCURVE",
"50 528 OFFCURVE",
"50 346 CURVE SMOOTH",
"50 169 OFFCURVE",
"168 3 OFFCURVE",
"382 3 CURVE SMOOTH"
);
}
);
width = 730;
},
{
anchors = (
{
name = bottom;
position = "{400, 0}";
},
{
name = top;
position = "{400, 700}";
}
);
layerId = "2F8C22CF-EC86-44F4-AF1A-A6C7F26A0C3C";
paths = (
{
closed = 1;
nodes = (
"580 -1 OFFCURVE",
"675 114 OFFCURVE",
"675 304 CURVE",
"632 259 LINE",
"669 258 LINE SMOOTH",
"714 257 OFFCURVE",
"740 285 OFFCURVE",
"740 324 CURVE SMOOTH",
"740 363 OFFCURVE",
"715 386 OFFCURVE",
"663 387 CURVE SMOOTH",
"435 392 LINE SMOOTH",
"390 393 OFFCURVE",
"364 365 OFFCURVE",
"364 324 CURVE SMOOTH",
"364 289 OFFCURVE",
"383 262 OFFCURVE",
"432 261 CURVE SMOOTH",
"575 258 LINE",
"536 304 LINE",
"536 184 OFFCURVE",
"482 129 OFFCURVE",
"398 129 CURVE SMOOTH",
"292 129 OFFCURVE",
"195 217 OFFCURVE",
"195 348 CURVE SMOOTH",
"195 476 OFFCURVE",
"288 561 OFFCURVE",
"412 561 CURVE SMOOTH",
"488 561 OFFCURVE",
"523 529 OFFCURVE",
"547 507 CURVE SMOOTH",
"578 480 OFFCURVE",
"593 471 OFFCURVE",
"621 471 CURVE SMOOTH",
"648 471 OFFCURVE",
"665 480 OFFCURVE",
"677 503 CURVE SMOOTH",
"690 528 OFFCURVE",
"693 563 OFFCURVE",
"691 616 CURVE SMOOTH",
"690 643 OFFCURVE",
"662 668 OFFCURVE",
"617 668 CURVE SMOOTH",
"573 668 OFFCURVE",
"549 644 OFFCURVE",
"549 607 CURVE SMOOTH",
"549 593 OFFCURVE",
"549 581 OFFCURVE",
"549 570 CURVE",
"596 570 LINE",
"596 604 OFFCURVE",
"531 692 OFFCURVE",
"385 692 CURVE SMOOTH",
"198 692 OFFCURVE",
"50 546 OFFCURVE",
"50 348 CURVE SMOOTH",
"50 149 OFFCURVE",
"198 -1 OFFCURVE",
"402 -1 CURVE SMOOTH"
);
}
);
width = 770;
},
{
anchors = (
{
name = bottom;
position = "{375, 0}";
},
{
name = top;
position = "{375, 700}";
}
);
layerId = "17B9D149-A542-49FB-8130-D430586D7342";
paths = (
{
closed = 1;
nodes = (
"562 1 OFFCURVE",
"643 115 OFFCURVE",
"643 312 CURVE",
"620 287 LINE",
"669 286 LINE SMOOTH",
"692 285 OFFCURVE",
"706 299 OFFCURVE",
"706 321 CURVE SMOOTH",
"706 343 OFFCURVE",
"693 355 OFFCURVE",
"667 355 CURVE SMOOTH",
"429 360 LINE SMOOTH",
"409 361 OFFCURVE",
"390 350 OFFCURVE",
"390 324 CURVE SMOOTH",
"390 307 OFFCURVE",
"398 290 OFFCURVE",
"427 289 CURVE SMOOTH",
"593 286 LINE",
"569 312 LINE",
"569 157 OFFCURVE",
"514 72 OFFCURVE",
"384 72 CURVE SMOOTH",
"228 72 OFFCURVE",
"123 193 OFFCURVE",
"123 344 CURVE SMOOTH",
"123 494 OFFCURVE",
"226 619 OFFCURVE",
"388 619 CURVE SMOOTH",
"477 619 OFFCURVE",
"519 581 OFFCURVE",
"565 539 CURVE SMOOTH",
"583 523 OFFCURVE",
"592 517 OFFCURVE",
"608 517 CURVE SMOOTH",
"622 517 OFFCURVE",
"636 522 OFFCURVE",
"644 539 CURVE SMOOTH",
"653 558 OFFCURVE",
"655 597 OFFCURVE",
"655 633 CURVE SMOOTH",
"654 648 OFFCURVE",
"639 660 OFFCURVE",
"616 660 CURVE SMOOTH",
"592 660 OFFCURVE",
"580 647 OFFCURVE",
"580 624 CURVE SMOOTH",
"580 605 OFFCURVE",
"580 592 OFFCURVE",
"577 572 CURVE",
"603 572 LINE",
"574 620 OFFCURVE",
"504 690 OFFCURVE",
"374 690 CURVE SMOOTH",
"181 690 OFFCURVE",
"46 536 OFFCURVE",
"46 347 CURVE SMOOTH",
"46 161 OFFCURVE",
"176 1 OFFCURVE",
"385 1 CURVE SMOOTH"
);
}
);
width = 741;
}
);
note = G;
unicode = 0047;
},
{
glyphname = H;
lastChange = "2018-03-09 06:17:55 +0000";
layers = (
{
anchors = (
{
name = bottom;
position = "{336, 0}";
},
{
name = center;
position = "{336, 350}";
},
{
name = top;
position = "{336, 700}";
},
{
name = topleft;
position = "{23, 700}";
}
);
layerId = "0B1DFD06-3317-40CA-B510-4969A0718C16";
paths = (
{
closed = 1;
nodes = (
"123 -5 OFFCURVE",
"127 -1 OFFCURVE",
"128 6 CURVE SMOOTH",
"184 702 LINE SMOOTH",
"185 713 OFFCURVE",
"181 721 OFFCURVE",
"170 721 CURVE SMOOTH",
"161 721 OFFCURVE",
"154 716 OFFCURVE",
"153 704 CURVE SMOOTH",
"97 10 LINE SMOOTH",
"96 1 OFFCURVE",
"101 -5 OFFCURVE",
"113 -5 CURVE SMOOTH"
);
},
{
closed = 1;
nodes = (
"618 297 OFFCURVE",
"624 302 OFFCURVE",
"624 313 CURVE SMOOTH",
"624 324 OFFCURVE",
"618 329 OFFCURVE",
"606 329 CURVE SMOOTH",
"75 337 LINE SMOOTH",
"68 337 OFFCURVE",
"60 333 OFFCURVE",
"60 322 CURVE SMOOTH",
"60 314 OFFCURVE",
"64 307 OFFCURVE",
"74 307 CURVE SMOOTH",
"607 297 LINE"
);
},
{
closed = 1;
nodes = (
"567 0 OFFCURVE",
"571 6 OFFCURVE",
"571 17 CURVE SMOOTH",
"551 705 LINE SMOOTH",
"551 714 OFFCURVE",
"546 721 OFFCURVE",
"535 721 CURVE SMOOTH",
"525 721 OFFCURVE",
"520 715 OFFCURVE",
"520 703 CURVE SMOOTH",
"540 16 LINE SMOOTH",
"540 5 OFFCURVE",
"545 0 OFFCURVE",
"557 0 CURVE"
);
}
);
width = 684;
},
{
anchors = (
{
name = bottom;
position = "{400, 0}";
},
{
name = center;
position = "{400, 351}";
},
{
name = top;
position = "{400, 700}";
},
{
name = topleft;
position = "{108, 700}";
}
);
layerId = "2F8C22CF-EC86-44F4-AF1A-A6C7F26A0C3C";
paths = (
{
closed = 1;
nodes = (
"229 -7 OFFCURVE",
"254 9 OFFCURVE",
"257 45 CURVE SMOOTH",
"305 651 LINE SMOOTH",
"308 693 OFFCURVE",
"284 723 OFFCURVE",
"236 723 CURVE SMOOTH",
"191 723 OFFCURVE",
"162 698 OFFCURVE",
"159 662 CURVE SMOOTH",
"111 55 LINE SMOOTH",
"108 13 OFFCURVE",
"136 -7 OFFCURVE",
"185 -7 CURVE SMOOTH"
);
},
{
closed = 1;
nodes = (
"698 254 OFFCURVE",
"735 270 OFFCURVE",
"735 319 CURVE SMOOTH",
"735 368 OFFCURVE",
"698 384 OFFCURVE",
"651 385 CURVE SMOOTH",
"155 392 LINE SMOOTH",
"110 393 OFFCURVE",
"70 371 OFFCURVE",
"70 328 CURVE SMOOTH",
"70 286 OFFCURVE",
"108 263 OFFCURVE",
"151 262 CURVE SMOOTH",
"650 254 LINE"
);
},
{
closed = 1;
nodes = (
"655 -2 OFFCURVE",
"682 25 OFFCURVE",
"681 67 CURVE SMOOTH",
"664 659 LINE SMOOTH",
"663 694 OFFCURVE",
"636 723 OFFCURVE",
"590 723 CURVE SMOOTH",
"543 723 OFFCURVE",
"516 694 OFFCURVE",
"517 655 CURVE SMOOTH",
"535 63 LINE SMOOTH",
"536 23 OFFCURVE",
"565 -2 OFFCURVE",
"609 -2 CURVE SMOOTH"
);
}
);
width = 805;
},
{
anchors = (
{
name = bottom;
position = "{356, 0}";
},
{
name = center;
position = "{356, 350}";
},
{
name = top;
position = "{356, 700}";
},
{
name = topleft;
position = "{51, 700}";
}
);
layerId = "17B9D149-A542-49FB-8130-D430586D7342";
paths = (
{
closed = 1;
nodes = (
"155 -6 OFFCURVE",
"172 0 OFFCURVE",
"174 22 CURVE SMOOTH",
"227 682 LINE SMOOTH",
"228 702 OFFCURVE",
"219 722 OFFCURVE",
"190 722 CURVE SMOOTH",
"170 722 OFFCURVE",
"152 712 OFFCURVE",
"150 687 CURVE SMOOTH",
"97 28 LINE SMOOTH",
"95 4 OFFCURVE",
"111 -6 OFFCURVE",
"136 -6 CURVE SMOOTH"
);
},
{
closed = 1;
nodes = (
"644 280 OFFCURVE",
"663 289 OFFCURVE",
"663 315 CURVE SMOOTH",
"663 342 OFFCURVE",
"644 351 OFFCURVE",
"618 351 CURVE SMOOTH",
"101 359 LINE SMOOTH",
"77 359 OFFCURVE",
"58 347 OFFCURVE",
"58 324 CURVE SMOOTH",
"58 300 OFFCURVE",
"79 289 OFFCURVE",
"99 289 CURVE SMOOTH",
"618 280 LINE"
);
},
{
closed = 1;
nodes = (
"596 -1 OFFCURVE",
"610 14 OFFCURVE",
"609 37 CURVE SMOOTH",
"590 687 LINE SMOOTH",
"590 706 OFFCURVE",
"576 722 OFFCURVE",
"551 722 CURVE SMOOTH",
"526 722 OFFCURVE",
"513 707 OFFCURVE",
"513 684 CURVE SMOOTH",
"532 35 LINE SMOOTH",
"533 12 OFFCURVE",
"547 -1 OFFCURVE",
"572 -1 CURVE"
);
}
);
width = 713;
}
);
note = H;
unicode = 0048;
},
{
glyphname = I;
lastChange = "2018-03-09 09:27:13 +0000";
layers = (
{
anchors = (
{
name = bottom;
position = "{223, 0}";
},
{
name = ogonek;
position = "{370, 14}";
},
{
name = top;
position = "{223, 700}";
},
{
name = topleft;
position = "{44, 700}";
}
);
layerId = "0B1DFD06-3317-40CA-B510-4969A0718C16";
paths = (
{
closed = 1;
nodes = (
"253 267 OFFCURVE",
"257 431 OFFCURVE",
"257 681 CURVE",
"226 681 LINE",
"226 431 OFFCURVE",
"220 268 OFFCURVE",
"205 30 CURVE",
"236 29 LINE"
);
},
{
closed = 1;
nodes = (
"384 5 OFFCURVE",
"388 11 OFFCURVE",
"388 21 CURVE SMOOTH",
"388 31 OFFCURVE",
"384 37 OFFCURVE",
"373 37 CURVE SMOOTH",
"70 41 LINE SMOOTH",
"62 41 OFFCURVE",
"55 37 OFFCURVE",
"55 26 CURVE SMOOTH",
"55 16 OFFCURVE",
"61 10 OFFCURVE",
"68 10 CURVE SMOOTH",
"373 5 LINE SMOOTH"
);
},
{
closed = 1;
nodes = (
"77 667 OFFCURVE",
"183 677 OFFCURVE",
"236 677 CURVE SMOOTH",
"314 677 OFFCURVE",
"327 676 OFFCURVE",
"371 672 CURVE SMOOTH",
"380 671 OFFCURVE",
"388 675 OFFCURVE",
"388 687 CURVE SMOOTH",
"388 698 OFFCURVE",
"382 701 OFFCURVE",
"374 702 CURVE SMOOTH",
"332 709 OFFCURVE",
"238 708 OFFCURVE",
"223 708 CURVE SMOOTH",
"185 708 OFFCURVE",
"83 701 OFFCURVE",
"66 698 CURVE SMOOTH",
"55 696 OFFCURVE",
"50 691 OFFCURVE",
"50 682 CURVE SMOOTH",
"50 673 OFFCURVE",
"56 667 OFFCURVE",
"65 667 CURVE SMOOTH"
);
}
);
width = 438;
},
{
anchors = (
{
name = bottom;
position = "{265, 0}";
},
{
name = ogonek;
position = "{418, 37}";
},
{
name = top;
position = "{265, 700}";
},
{
name = topleft;
position = "{104, 700}";
}
);
layerId = "2F8C22CF-EC86-44F4-AF1A-A6C7F26A0C3C";
paths = (
{
closed = 1;
nodes = (
"343 249 OFFCURVE",
"347 445 OFFCURVE",
"347 636 CURVE",
"202 636 LINE",
"202 445 OFFCURVE",
"196 253 OFFCURVE",
"184 78 CURVE",
"328 69 LINE"
);
},
{
closed = 1;
nodes = (
"452 2 OFFCURVE",
"470 29 OFFCURVE",
"470 68 CURVE SMOOTH",
"470 105 OFFCURVE",
"455 132 OFFCURVE",
"406 133 CURVE SMOOTH",
"105 137 LINE SMOOTH",
"76 137 OFFCURVE",
"45 119 OFFCURVE",
"45 71 CURVE SMOOTH",
"45 43 OFFCURVE",
"56 7 OFFCURVE",
"105 6 CURVE SMOOTH",
"405 2 LINE"
);
},
{
closed = 1;
nodes = (
"120 571 OFFCURVE",
"155 580 OFFCURVE",
"285 580 CURVE SMOOTH",
"360 580 OFFCURVE",
"389 577 OFFCURVE",
"407 577 CURVE SMOOTH",
"456 577 OFFCURVE",
"470 607 OFFCURVE",
"470 640 CURVE SMOOTH",
"470 676 OFFCURVE",
"452 702 OFFCURVE",
"413 705 CURVE SMOOTH",
"373 708 OFFCURVE",
"336 712 OFFCURVE",
"265 711 CURVE SMOOTH",
"189 710 OFFCURVE",
"118 705 OFFCURVE",
"97 702 CURVE SMOOTH",
"63 697 OFFCURVE",
"40 681 OFFCURVE",
"40 636 CURVE SMOOTH",
"40 596 OFFCURVE",
"59 571 OFFCURVE",
"97 571 CURVE SMOOTH"
);
}
);
width = 510;
},
{
anchors = (
{
name = bottom;
position = "{225, 0}";
},
{
name = ogonek;
position = "{375, 23}";
},
{
name = top;
position = "{225, 700}";
},
{
name = topleft;
position = "{54, 700}";
}
);
layerId = "17B9D149-A542-49FB-8130-D430586D7342";
paths = (
{
closed = 1;
nodes = (
"275 260 OFFCURVE",
"279 437 OFFCURVE",
"279 663 CURVE",
"202 663 LINE",
"202 437 OFFCURVE",
"196 262 OFFCURVE",
"182 49 CURVE",
"258 45 LINE"
);
},
{
closed = 1;
nodes = (
"397 4 OFFCURVE",
"406 18 OFFCURVE",
"406 40 CURVE SMOOTH",
"406 61 OFFCURVE",
"398 75 OFFCURVE",
"372 75 CURVE SMOOTH",
"70 79 LINE SMOOTH",
"53 79 OFFCURVE",
"37 69 OFFCURVE",
"37 44 CURVE SMOOTH",
"37 24 OFFCURVE",
"46 9 OFFCURVE",
"68 8 CURVE SMOOTH",
"371 4 LINE SMOOTH"
);
},
{
closed = 1;
nodes = (
"69 629 OFFCURVE",
"175 638 OFFCURVE",
"228 638 CURVE SMOOTH",
"325 638 OFFCURVE",
"338 637 OFFCURVE",
"371 634 CURVE SMOOTH",
"393 632 OFFCURVE",
"406 646 OFFCURVE",
"406 669 CURVE SMOOTH",
"406 695 OFFCURVE",
"391 700 OFFCURVE",
"375 703 CURVE SMOOTH",
"346 708 OFFCURVE",
"291 709 OFFCURVE",
"256 709 CURVE SMOOTH",
"178 709 OFFCURVE",
"87 704 OFFCURVE",
"64 700 CURVE SMOOTH",
"47 697 OFFCURVE",
"32 689 OFFCURVE",
"32 665 CURVE SMOOTH",
"32 642 OFFCURVE",
"45 629 OFFCURVE",
"58 629 CURVE SMOOTH"
);
}
);
width = 438;
}
);
note = I;
unicode = 0049;
},
{
glyphname = J;
lastChange = "2018-03-09 06:21:30 +0000";
layers = (
{
anchors = (
{
name = bottom;
position = "{270, 0}";
},
{
name = top;
position = "{425, 700}";
}
);
layerId = "0B1DFD06-3317-40CA-B510-4969A0718C16";
paths = (
{
closed = 1;
nodes = (
"356 2 OFFCURVE",
"442 83 OFFCURVE",
"442 259 CURVE SMOOTH",
"442 373 OFFCURVE",
"439 530 OFFCURVE",
"448 681 CURVE",
"418 681 LINE",
"409 532 OFFCURVE",
"411 373 OFFCURVE",
"411 258 CURVE SMOOTH",
"411 90 OFFCURVE",
"333 33 OFFCURVE",
"241 33 CURVE SMOOTH",
"171 33 OFFCURVE",
"81 51 OFFCURVE",
"81 251 CURVE SMOOTH",
"81 264 OFFCURVE",
"77 271 OFFCURVE",
"66 271 CURVE SMOOTH",
"54 271 OFFCURVE",
"50 264 OFFCURVE",
"50 251 CURVE SMOOTH",
"50 42 OFFCURVE",
"156 2 OFFCURVE",
"243 2 CURVE SMOOTH"
);
},
{
closed = 1;
nodes = (
"377 671 OFFCURVE",
"473 671 OFFCURVE",
"525 668 CURVE SMOOTH",
"532 668 OFFCURVE",
"537 674 OFFCURVE",
"537 683 CURVE SMOOTH",
"537 692 OFFCURVE",
"533 697 OFFCURVE",
"525 698 CURVE SMOOTH",
"506 700 OFFCURVE",
"465 699 OFFCURVE",
"426 699 CURVE SMOOTH",
"391 699 OFFCURVE",
"348 698 OFFCURVE",
"321 695 CURVE SMOOTH",
"313 694 OFFCURVE",
"308 688 OFFCURVE",
"308 679 CURVE SMOOTH",
"308 670 OFFCURVE",
"313 664 OFFCURVE",
"322 665 CURVE SMOOTH"
);
}
);
width = 587;
},
{
anchors = (
{
name = bottom;
position = "{279, 0}";
},
{
name = top;
position = "{435, 700}";
}
);
layerId = "2F8C22CF-EC86-44F4-AF1A-A6C7F26A0C3C";
paths = (
{
closed = 1;
nodes = (
"424 -2 OFFCURVE",
"511 103 OFFCURVE",
"511 272 CURVE SMOOTH",
"511 397 OFFCURVE",
"504 488 OFFCURVE",
"513 640 CURVE",
"368 639 LINE",
"360 488 OFFCURVE",
"362 397 OFFCURVE",
"362 271 CURVE SMOOTH",
"362 172 OFFCURVE",
"320 129 OFFCURVE",
"271 129 CURVE SMOOTH",
"221 129 OFFCURVE",
"188 170 OFFCURVE",
"186 264 CURVE SMOOTH",
"186 304 OFFCURVE",
"163 334 OFFCURVE",
"116 334 CURVE SMOOTH",
"65 334 OFFCURVE",
"40 307 OFFCURVE",
"40 259 CURVE SMOOTH",
"40 97 OFFCURVE",
"129 -2 OFFCURVE",
"276 -2 CURVE SMOOTH"
);
},
{
closed = 1;
nodes = (
"341 576 OFFCURVE",
"495 576 OFFCURVE",
"538 576 CURVE SMOOTH",
"581 576 OFFCURVE",
"599 605 OFFCURVE",
"599 639 CURVE SMOOTH",
"599 672 OFFCURVE",
"586 699 OFFCURVE",
"537 702 CURVE SMOOTH",
"517 703 OFFCURVE",
"462 704 OFFCURVE",
"434 704 CURVE SMOOTH",
"389 704 OFFCURVE",
"355 703 OFFCURVE",
"307 701 CURVE SMOOTH",
"281 700 OFFCURVE",
"261 678 OFFCURVE",
"261 639 CURVE SMOOTH",
"261 595 OFFCURVE",
"280 576 OFFCURVE",
"325 576 CURVE SMOOTH"
);
}
);
width = 659;
},
{
anchors = (
{
name = bottom;
position = "{251, 0}";
},
{
name = top;
position = "{406, 700}";
}
);
layerId = "17B9D149-A542-49FB-8130-D430586D7342";
paths = (
{
closed = 1;
nodes = (
"383 0 OFFCURVE",
"448 95 OFFCURVE",
"448 258 CURVE SMOOTH",
"448 378 OFFCURVE",
"449 509 OFFCURVE",
"451 665 CURVE",
"375 664 LINE",
"366 514 OFFCURVE",
"368 383 OFFCURVE",
"368 263 CURVE SMOOTH",
"368 123 OFFCURVE",
"306 71 OFFCURVE",
"226 71 CURVE SMOOTH",
"111 71 OFFCURVE",
"104 180 OFFCURVE",
"100 256 CURVE SMOOTH",
"99 282 OFFCURVE",
"89 296 OFFCURVE",
"60 296 CURVE SMOOTH",
"30 296 OFFCURVE",
"23 281 OFFCURVE",
"23 236 CURVE SMOOTH",
"23 64 OFFCURVE",
"127 0 OFFCURVE",
"242 0 CURVE SMOOTH"
);
},
{
closed = 1;
nodes = (
"313 629 OFFCURVE",
"492 631 OFFCURVE",
"502 631 CURVE SMOOTH",
"531 631 OFFCURVE",
"539 646 OFFCURVE",
"539 665 CURVE SMOOTH",
"539 684 OFFCURVE",
"531 698 OFFCURVE",
"507 700 CURVE SMOOTH",
"487 701 OFFCURVE",
"444 701 OFFCURVE",
"442 701 CURVE SMOOTH",
"371 701 OFFCURVE",
"328 700 OFFCURVE",
"292 697 CURVE SMOOTH",
"279 696 OFFCURVE",
"266 686 OFFCURVE",
"266 664 CURVE SMOOTH",
"266 641 OFFCURVE",
"281 629 OFFCURVE",
"304 629 CURVE SMOOTH"
);
}
);
width = 549;
}
);
note = J;
unicode = 004A;
},
{
glyphname = K;
lastChange = "2018-03-09 10:18:35 +0000";
layers = (
{
anchors = (
{
name = bottom;
position = "{286, 0}";
},
{
name = top;
position = "{286, 700}";
}
);
layerId = "0B1DFD06-3317-40CA-B510-4969A0718C16";
paths = (
{
closed = 1;
nodes = (
"104 2 OFFCURVE",
"112 6 OFFCURVE",
"112 23 CURVE SMOOTH",
"112 50 OFFCURVE",
"113 57 OFFCURVE",
"116 360 CURVE",
"106 360 LINE",
"180 279 OFFCURVE",
"215 245 OFFCURVE",
"298 176 CURVE SMOOTH",
"382 107 OFFCURVE",
"445 58 OFFCURVE",
"526 4 CURVE SMOOTH",
"533 -1 OFFCURVE",
"542 4 OFFCURVE",
"545 10 CURVE SMOOTH",
"549 17 OFFCURVE",
"545 29 OFFCURVE",
"540 32 CURVE SMOOTH",
"460 84 OFFCURVE",
"418 112 OFFCURVE",
"317 198 CURVE SMOOTH",
"228 273 OFFCURVE",
"200 306 OFFCURVE",
"137 369 CURVE",
"203 413 OFFCURVE",
"250 440 OFFCURVE",
"342 502 CURVE SMOOTH",
"425 558 OFFCURVE",
"524 629 OFFCURVE",
"562 658 CURVE SMOOTH",
"570 664 OFFCURVE",
"572 674 OFFCURVE",
"566 682 CURVE SMOOTH",
"562 687 OFFCURVE",
"554 692 OFFCURVE",
"545 685 CURVE SMOOTH",
"501 650 OFFCURVE",
"443 605 OFFCURVE",
"319 523 CURVE SMOOTH",
"252 479 OFFCURVE",
"181 433 OFFCURVE",
"106 389 CURVE",
"117 389 LINE",
"114 553 OFFCURVE",
"115 484 OFFCURVE",
"115 680 CURVE SMOOTH",
"115 690 OFFCURVE",
"109 697 OFFCURVE",
"100 697 CURVE SMOOTH",
"91 697 OFFCURVE",
"83 692 OFFCURVE",
"83 683 CURVE SMOOTH",
"83 561 OFFCURVE",
"84 468 OFFCURVE",
"84 390 CURVE SMOOTH",
"84 235 OFFCURVE",
"80 69 OFFCURVE",
"80 36 CURVE SMOOTH",
"80 8 OFFCURVE",
"83 2 OFFCURVE",
"95 2 CURVE SMOOTH"
);
}
);
width = 619;
},
{
anchors = (
{
name = bottom;
position = "{329, 0}";
},
{
name = top;
position = "{329, 700}";
}
);
layerId = "2F8C22CF-EC86-44F4-AF1A-A6C7F26A0C3C";
paths = (
{
closed = 1;
nodes = (
"186 -2 OFFCURVE",
"215 29 OFFCURVE",
"215 72 CURVE SMOOTH",
"215 154 OFFCURVE",
"217 183 OFFCURVE",
"218 290 CURVE",
"168 290 LINE",
"224 240 OFFCURVE",
"280 191 OFFCURVE",
"336 141 CURVE SMOOTH",
"385 97 OFFCURVE",
"434 54 OFFCURVE",
"483 10 CURVE SMOOTH",
"515 -13 OFFCURVE",
"564 -6 OFFCURVE",
"584 21 CURVE SMOOTH",
"605 49 OFFCURVE",
"612 87 OFFCURVE",
"573 119 CURVE SMOOTH",
"502 176 OFFCURVE",
"467 208 OFFCURVE",
"415 251 CURVE SMOOTH",
"370 288 OFFCURVE",
"325 326 OFFCURVE",
"267 371 CURVE",
"273 375 OFFCURVE",
"348 423 OFFCURVE",
"425 472 CURVE SMOOTH",
"511 528 OFFCURVE",
"547 551 OFFCURVE",
"596 586 CURVE SMOOTH",
"624 606 OFFCURVE",
"626 653 OFFCURVE",
"601 680 CURVE SMOOTH",
"577 706 OFFCURVE",
"528 709 OFFCURVE",
"499 688 CURVE SMOOTH",
"446 649 OFFCURVE",
"392 611 OFFCURVE",
"339 572 CURVE SMOOTH",
"282 530 OFFCURVE",
"225 489 OFFCURVE",
"168 447 CURVE",
"219 447 LINE",
"218 527 OFFCURVE",
"218 566 OFFCURVE",
"218 634 CURVE SMOOTH",
"218 673 OFFCURVE",
"191 701 OFFCURVE",
"146 701 CURVE SMOOTH",
"101 701 OFFCURVE",
"72 673 OFFCURVE",
"72 637 CURVE SMOOTH",
"73 533 OFFCURVE",
"75 470 OFFCURVE",
"75 353 CURVE SMOOTH",
"75 253 OFFCURVE",
"70 195 OFFCURVE",
"70 76 CURVE SMOOTH",
"70 26 OFFCURVE",
"93 -2 OFFCURVE",
"142 -2 CURVE SMOOTH"
);
}
);
width = 658;
},
{
anchors = (
{
name = bottom;
position = "{303, 0}";
},
{
name = top;
position = "{303, 700}";
}
);
layerId = "17B9D149-A542-49FB-8130-D430586D7342";
paths = (
{
closed = 1;
nodes = (
"137 0 OFFCURVE",
"153 12 OFFCURVE",
"153 37 CURVE SMOOTH",
"155 181 OFFCURVE",
"156 229 OFFCURVE",
"157 332 CURVE",
"131 332 LINE",
"198 263 OFFCURVE",
"244 220 OFFCURVE",
"313 162 CURVE SMOOTH",
"384 102 OFFCURVE",
"492 17 OFFCURVE",
"509 6 CURVE SMOOTH",
"530 -7 OFFCURVE",
"551 1 OFFCURVE",
"561 14 CURVE SMOOTH",
"573 30 OFFCURVE",
"570 55 OFFCURVE",
"553 67 CURVE SMOOTH",
"476 122 OFFCURVE",
"436 151 OFFCURVE",
"356 219 CURVE SMOOTH",
"285 279 OFFCURVE",
"250 314 OFFCURVE",
"189 370 CURVE",
"229 397 OFFCURVE",
"294 436 OFFCURVE",
"375 490 CURVE SMOOTH",
"466 550 OFFCURVE",
"561 618 OFFCURVE",
"576 629 CURVE SMOOTH",
"592 641 OFFCURVE",
"594 665 OFFCURVE",
"580 681 CURVE SMOOTH",
"566 696 OFFCURVE",
"543 698 OFFCURVE",
"527 686 CURVE SMOOTH",
"404 593 OFFCURVE",
"440 621 OFFCURVE",
"327 543 CURVE SMOOTH",
"264 499 OFFCURVE",
"199 455 OFFCURVE",
"131 412 CURVE",
"158 412 LINE",
"156 543 OFFCURVE",
"156 517 OFFCURVE",
"156 662 CURVE SMOOTH",
"156 683 OFFCURVE",
"142 699 OFFCURVE",
"118 699 CURVE SMOOTH",
"95 699 OFFCURVE",
"79 684 OFFCURVE",
"79 665 CURVE SMOOTH",
"79 552 OFFCURVE",
"81 464 OFFCURVE",
"81 380 CURVE SMOOTH",
"81 246 OFFCURVE",
"76 148 OFFCURVE",
"76 45 CURVE SMOOTH",
"76 15 OFFCURVE",
"88 0 OFFCURVE",
"114 0 CURVE SMOOTH"
);
}
);
width = 607;
}
);
note = K;
unicode = 004B;
},
{
glyphname = L;
lastChange = "2018-03-11 13:43:30 +0000";
layers = (
{
anchors = (
{
name = bottom;
position = "{251, 0}";
},
{
name = center;
position = "{276, 335}";
},
{
name = top;
position = "{127, 700}";
},
{
name = topright;
position = "{98, 549}";
}
);
layerId = "0B1DFD06-3317-40CA-B510-4969A0718C16";
paths = (
{
closed = 1;
nodes = (
"309 0 OFFCURVE",
"360 6 OFFCURVE",
"451 23 CURVE SMOOTH",
"462 25 OFFCURVE",
"468 31 OFFCURVE",
"468 42 CURVE SMOOTH",
"468 57 OFFCURVE",
"456 59 OFFCURVE",
"446 57 CURVE SMOOTH",
"341 37 OFFCURVE",
"295 31 OFFCURVE",
"229 31 CURVE SMOOTH",
"94 31 OFFCURVE",
"91 66 OFFCURVE",
"91 217 CURVE SMOOTH",
"91 362 OFFCURVE",
"101 437 OFFCURVE",
"137 682 CURVE SMOOTH",
"139 696 OFFCURVE",
"134 702 OFFCURVE",
"124 702 CURVE SMOOTH",
"115 702 OFFCURVE",
"108 697 OFFCURVE",
"106 685 CURVE SMOOTH",
"74 486 OFFCURVE",
"60 342 OFFCURVE",
"60 202 CURVE SMOOTH",
"60 38 OFFCURVE",
"79 0 OFFCURVE",
"244 0 CURVE SMOOTH"
);
}
);
width = 508;
},
{
anchors = (
{
name = bottom;
position = "{280, 0}";
},
{
name = center;
position = "{373, 350}";
},
{
name = top;
position = "{177, 700}";
},
{
name = topright;
position = "{166, 564}";
}
);
layerId = "2F8C22CF-EC86-44F4-AF1A-A6C7F26A0C3C";
paths = (
{
closed = 1;
nodes = (
"359 -3 OFFCURVE",
"402 6 OFFCURVE",
"473 19 CURVE SMOOTH",
"522 28 OFFCURVE",
"550 48 OFFCURVE",
"550 86 CURVE SMOOTH",
"550 122 OFFCURVE",
"525 159 OFFCURVE",
"479 150 CURVE SMOOTH",
"443 143 OFFCURVE",
"335 124 OFFCURVE",
"274 122 CURVE SMOOTH",
"210 120 OFFCURVE",
"200 137 OFFCURVE",
"200 235 CURVE SMOOTH",
"200 377 OFFCURVE",
"221 500 OFFCURVE",
"243 626 CURVE SMOOTH",
"251 671 OFFCURVE",
"230 705 OFFCURVE",
"176 705 CURVE SMOOTH",
"132 705 OFFCURVE",
"104 683 OFFCURVE",
"99 652 CURVE SMOOTH",
"81 546 OFFCURVE",
"60 412 OFFCURVE",
"60 239 CURVE SMOOTH",
"60 50 OFFCURVE",
"85 -3 OFFCURVE",
"279 -3 CURVE SMOOTH"
);
}
);
width = 580;
},
{
anchors = (
{
name = bottom;
position = "{263, 0}";
},
{
name = center;
position = "{315, 341}";
},
{
name = top;
position = "{158, 700}";
},
{
name = topright;
position = "{127, 564}";
}
);
layerId = "17B9D149-A542-49FB-8130-D430586D7342";
paths = (
{
closed = 1;
nodes = (
"330 -1 OFFCURVE",
"377 6 OFFCURVE",
"460 21 CURVE SMOOTH",
"487 26 OFFCURVE",
"501 38 OFFCURVE",
"501 60 CURVE SMOOTH",
"501 79 OFFCURVE",
"491 98 OFFCURVE",
"460 94 CURVE SMOOTH",
"436 91 OFFCURVE",
"332 67 OFFCURVE",
"242 68 CURVE SMOOTH",
"144 70 OFFCURVE",
"135 100 OFFCURVE",
"135 217 CURVE SMOOTH",
"135 367 OFFCURVE",
"150 465 OFFCURVE",
"180 660 CURVE SMOOTH",
"184 685 OFFCURVE",
"174 703 OFFCURVE",
"145 703 CURVE SMOOTH",
"121 703 OFFCURVE",
"107 690 OFFCURVE",
"104 672 CURVE SMOOTH",
"77 505 OFFCURVE",
"61 373 OFFCURVE",
"61 219 CURVE SMOOTH",
"61 43 OFFCURVE",
"82 -1 OFFCURVE",
"259 -1 CURVE SMOOTH"
);
}
);
width = 526;
}
);
note = L;
unicode = 004C;
},
{
glyphname = M;
lastChange = "2018-03-11 11:01:31 +0000";
layers = (
{
anchors = (
{
name = bottom;
position = "{393, 0}";
},
{
name = top;
position = "{393, 700}";
}
);
layerId = "0B1DFD06-3317-40CA-B510-4969A0718C16";
paths = (
{
closed = 1;
nodes = (
"692 -5 OFFCURVE",
"695 3 OFFCURVE",
"695 12 CURVE SMOOTH",
"695 123 OFFCURVE",
"694 224 OFFCURVE",
"693 311 CURVE SMOOTH",
"690 585 OFFCURVE",
"662 711 OFFCURVE",
"605 711 CURVE SMOOTH",
"540 711 OFFCURVE",
"410 541 OFFCURVE",
"382 302 CURVE",
"391 302 LINE",
"352 540 OFFCURVE",
"251 711 OFFCURVE",
"178 711 CURVE SMOOTH",
"118 711 OFFCURVE",
"82 596 OFFCURVE",
"82 322 CURVE SMOOTH",
"82 194 OFFCURVE",
"80 85 OFFCURVE",
"80 13 CURVE SMOOTH",
"80 3 OFFCURVE",
"91 0 OFFCURVE",
"97 0 CURVE SMOOTH",
"104 0 OFFCURVE",
"112 4 OFFCURVE",
"112 14 CURVE SMOOTH",
"112 192 OFFCURVE",
"113 80 OFFCURVE",
"113 323 CURVE SMOOTH",
"113 512 OFFCURVE",
"137 682 OFFCURVE",
"182 682 CURVE SMOOTH",
"214 682 OFFCURVE",
"270 594 OFFCURVE",
"299 524 CURVE SMOOTH",
"334 440 OFFCURVE",
"356 319 OFFCURVE",
"369 282 CURVE SMOOTH",
"372 272 OFFCURVE",
"376 268 OFFCURVE",
"388 268 CURVE SMOOTH",
"396 268 OFFCURVE",
"402 270 OFFCURVE",
"404 282 CURVE SMOOTH",
"420 363 OFFCURVE",
"441 460 OFFCURVE",
"480 535 CURVE SMOOTH",
"508 589 OFFCURVE",
"570 679 OFFCURVE",
"600 679 CURVE SMOOTH",
"638 679 OFFCURVE",
"661 537 OFFCURVE",
"662 311 CURVE SMOOTH",
"663 181 OFFCURVE",
"663 121 OFFCURVE",
"664 12 CURVE SMOOTH",
"664 3 OFFCURVE",
"665 -5 OFFCURVE",
"680 -5 CURVE SMOOTH"
);
}
);
width = 775;
},
{
anchors = (
{
name = bottom;
position = "{412, 0}";
},
{
name = top;
position = "{412, 700}";
}
);
layerId = "2F8C22CF-EC86-44F4-AF1A-A6C7F26A0C3C";
paths = (
{
closed = 1;
nodes = (
"713 -7 OFFCURVE",
"739 19 OFFCURVE",
"739 64 CURVE SMOOTH",
"739 202 OFFCURVE",
"736 272 OFFCURVE",
"735 335 CURVE SMOOTH",
"731 574 OFFCURVE",
"709 713 OFFCURVE",
"602 713 CURVE SMOOTH",
"443 713 OFFCURVE",
"408 407 OFFCURVE",
"385 357 CURVE",
"420 357 LINE",
"394 411 OFFCURVE",
"373 713 OFFCURVE",
"210 713 CURVE SMOOTH",
"114 713 OFFCURVE",
"76 607 OFFCURVE",
"73 336 CURVE SMOOTH",
"72 256 OFFCURVE",
"70 183 OFFCURVE",
"70 77 CURVE SMOOTH",
"70 15 OFFCURVE",
"100 -3 OFFCURVE",
"141 -3 CURVE SMOOTH",
"189 -3 OFFCURVE",
"216 22 OFFCURVE",
"216 57 CURVE SMOOTH",
"216 162 OFFCURVE",
"213 226 OFFCURVE",
"216 333 CURVE SMOOTH",
"218 423 OFFCURVE",
"221 536 OFFCURVE",
"230 536 CURVE SMOOTH",
"237 536 OFFCURVE",
"270 453 OFFCURVE",
"283 415 CURVE SMOOTH",
"298 371 OFFCURVE",
"317 296 OFFCURVE",
"324 277 CURVE SMOOTH",
"335 245 OFFCURVE",
"359 228 OFFCURVE",
"405 228 CURVE SMOOTH",
"449 228 OFFCURVE",
"475 244 OFFCURVE",
"485 281 CURVE SMOOTH",
"488 294 OFFCURVE",
"503 355 OFFCURVE",
"520 411 CURVE SMOOTH",
"529 441 OFFCURVE",
"559 536 OFFCURVE",
"572 536 CURVE SMOOTH",
"583 536 OFFCURVE",
"593 466 OFFCURVE",
"593 329 CURVE SMOOTH",
"593 240 OFFCURVE",
"593 154 OFFCURVE",
"593 59 CURVE SMOOTH",
"593 20 OFFCURVE",
"621 -7 OFFCURVE",
"667 -7 CURVE SMOOTH"
);
}
);
width = 809;
},
{
anchors = (
{
name = bottom;
position = "{405, 0}";
},
{
name = top;
position = "{405, 700}";
}
);
layerId = "17B9D149-A542-49FB-8130-D430586D7342";
paths = (
{
closed = 1;
nodes = (
"705 -6 OFFCURVE",
"717 11 OFFCURVE",
"717 32 CURVE SMOOTH",
"717 132 OFFCURVE",
"715 228 OFFCURVE",
"714 321 CURVE SMOOTH",
"711 567 OFFCURVE",
"691 712 OFFCURVE",
"609 712 CURVE SMOOTH",
"506 712 OFFCURVE",
"414 488 OFFCURVE",
"388 324 CURVE",
"407 324 LINE",
"374 487 OFFCURVE",
"304 712 OFFCURVE",
"196 712 CURVE SMOOTH",
"117 712 OFFCURVE",
"86 591 OFFCURVE",
"83 328 CURVE SMOOTH",
"82 242 OFFCURVE",
"80 74 OFFCURVE",
"80 38 CURVE SMOOTH",
"80 18 OFFCURVE",
"84 -1 OFFCURVE",
"117 -1 CURVE SMOOTH",
"144 -1 OFFCURVE",
"158 11 OFFCURVE",
"158 31 CURVE SMOOTH",
"158 144 OFFCURVE",
"157 237 OFFCURVE",
"159 327 CURVE SMOOTH",
"162 472 OFFCURVE",
"173 624 OFFCURVE",
"205 624 CURVE SMOOTH",
"228 624 OFFCURVE",
"273 541 OFFCURVE",
"297 480 CURVE SMOOTH",
"324 410 OFFCURVE",
"346 305 OFFCURVE",
"355 280 CURVE SMOOTH",
"362 260 OFFCURVE",
"375 252 OFFCURVE",
"398 252 CURVE SMOOTH",
"418 252 OFFCURVE",
"436 258 OFFCURVE",
"441 282 CURVE SMOOTH",
"454 342 OFFCURVE",
"471 419 OFFCURVE",
"500 485 CURVE SMOOTH",
"520 530 OFFCURVE",
"569 622 OFFCURVE",
"596 622 CURVE SMOOTH",
"621 622 OFFCURVE",
"639 543 OFFCURVE",
"639 189 CURVE SMOOTH",
"639 150 OFFCURVE",
"639 127 OFFCURVE",
"640 31 CURVE SMOOTH",
"640 10 OFFCURVE",
"654 -6 OFFCURVE",
"679 -6 CURVE SMOOTH"
);
}
);
width = 803;
}
);
note = M;
unicode = 004D;
},
{
glyphname = N;
lastChange = "2018-03-11 11:06:07 +0000";
layers = (
{
anchors = (
{
name = bottom;
position = "{359, 0}";
},
{
name = top;
position = "{359, 700}";
}
);
layerId = "0B1DFD06-3317-40CA-B510-4969A0718C16";
paths = (
{
closed = 1;
nodes = (
"107 12 OFFCURVE",
"114 18 OFFCURVE",
"114 23 CURVE SMOOTH",
"114 44 OFFCURVE",
"113 337 OFFCURVE",
"113 359 CURVE SMOOTH",
"112 512 OFFCURVE",
"110 532 OFFCURVE",
"111 675 CURVE",
"101 675 LINE",
"118 671 OFFCURVE",
"250 469 OFFCURVE",
"325 351 CURVE SMOOTH",
"396 239 OFFCURVE",
"538 14 OFFCURVE",
"582 14 CURVE SMOOTH",
"614 14 OFFCURVE",
"628 42 OFFCURVE",
"629 256 CURVE SMOOTH",
"629 407 OFFCURVE",
"630 528 OFFCURVE",
"630 691 CURVE SMOOTH",
"630 703 OFFCURVE",
"624 711 OFFCURVE",
"612 711 CURVE SMOOTH",
"602 711 OFFCURVE",
"596 705 OFFCURVE",
"596 694 CURVE SMOOTH",
"596 539 OFFCURVE",
"597 356 OFFCURVE",
"597 295 CURVE SMOOTH",
"597 91 OFFCURVE",
"586 61 OFFCURVE",
"576 42 CURVE",
"589 42 LINE",
"558 49 OFFCURVE",
"419 264 OFFCURVE",
"350 370 CURVE SMOOTH",
"280 477 OFFCURVE",
"142 704 OFFCURVE",
"108 704 CURVE SMOOTH",
"83 704 OFFCURVE",
"80 680 OFFCURVE",
"80 662 CURVE SMOOTH",
"80 522 OFFCURVE",
"82 470 OFFCURVE",
"82 356 CURVE SMOOTH",
"82 181 OFFCURVE",
"82 146 OFFCURVE",
"82 23 CURVE SMOOTH",
"82 16 OFFCURVE",
"91 12 OFFCURVE",
"98 12 CURVE SMOOTH"
);
}
);
width = 710;
},
{
anchors = (
{
name = bottom;
position = "{388, 0}";
},
{
name = top;
position = "{388, 700}";
}
);
layerId = "2F8C22CF-EC86-44F4-AF1A-A6C7F26A0C3C";
paths = (
{
closed = 1;
nodes = (
"188 8 OFFCURVE",
"218 36 OFFCURVE",
"218 70 CURVE SMOOTH",
"218 189 OFFCURVE",
"217 250 OFFCURVE",
"217 325 CURVE SMOOTH",
"217 410 OFFCURVE",
"216 467 OFFCURVE",
"216 517 CURVE",
"182 517 LINE",
"197 496 OFFCURVE",
"251 405 OFFCURVE",
"334 272 CURVE SMOOTH",
"461 68 OFFCURVE",
"506 10 OFFCURVE",
"577 10 CURVE SMOOTH",
"668 10 OFFCURVE",
"687 105 OFFCURVE",
"687 344 CURVE SMOOTH",
"687 451 OFFCURVE",
"689 550 OFFCURVE",
"689 637 CURVE SMOOTH",
"689 691 OFFCURVE",
"666 715 OFFCURVE",
"617 715 CURVE SMOOTH",
"563 715 OFFCURVE",
"543 686 OFFCURVE",
"543 653 CURVE SMOOTH",
"543 551 OFFCURVE",
"542 465 OFFCURVE",
"542 370 CURVE SMOOTH",
"542 275 OFFCURVE",
"542 201 OFFCURVE",
"542 157 CURVE",
"576 157 LINE",
"525 226 OFFCURVE",
"558 184 OFFCURVE",
"401 435 CURVE SMOOTH",
"259 662 OFFCURVE",
"224 708 OFFCURVE",
"155 708 CURVE SMOOTH",
"84 708 OFFCURVE",
"70 660 OFFCURVE",
"70 519 CURVE SMOOTH",
"70 465 OFFCURVE",
"72 405 OFFCURVE",
"72 331 CURVE SMOOTH",
"72 233 OFFCURVE",
"72 178 OFFCURVE",
"72 70 CURVE SMOOTH",
"72 35 OFFCURVE",
"102 8 OFFCURVE",
"145 8 CURVE SMOOTH"
);
}
);
width = 759;
},
{
anchors = (
{
name = bottom;
position = "{375, 0}";
},
{
name = top;
position = "{375, 700}";
}
);
layerId = "17B9D149-A542-49FB-8130-D430586D7342";
paths = (
{
closed = 1;
nodes = (
"144 10 OFFCURVE",
"160 25 OFFCURVE",
"160 42 CURVE SMOOTH",
"160 62 OFFCURVE",
"159 327 OFFCURVE",
"159 345 CURVE SMOOTH",
"158 539 OFFCURVE",
"157 496 OFFCURVE",
"157 612 CURVE",
"138 612 LINE",
"182 557 OFFCURVE",
"224 491 OFFCURVE",
"332 319 CURVE SMOOTH",
"464 109 OFFCURVE",
"527 12 OFFCURVE",
"588 12 CURVE SMOOTH",
"635 12 OFFCURVE",
"656 69 OFFCURVE",
"657 296 CURVE SMOOTH",
"657 424 OFFCURVE",
"658 529 OFFCURVE",
"658 673 CURVE SMOOTH",
"658 697 OFFCURVE",
"645 713 OFFCURVE",
"618 713 CURVE SMOOTH",
"594 713 OFFCURVE",
"579 700 OFFCURVE",
"579 678 CURVE SMOOTH",
"579 530 OFFCURVE",
"579 413 OFFCURVE",
"579 309 CURVE SMOOTH",
"579 160 OFFCURVE",
"570 112 OFFCURVE",
"567 88 CURVE",
"584 88 LINE",
"546 136 OFFCURVE",
"488 214 OFFCURVE",
"371 400 CURVE SMOOTH",
"247 597 OFFCURVE",
"192 706 OFFCURVE",
"125 706 CURVE SMOOTH",
"91 706 OFFCURVE",
"80 684 OFFCURVE",
"80 643 CURVE SMOOTH",
"80 595 OFFCURVE",
"82 431 OFFCURVE",
"82 346 CURVE SMOOTH",
"82 202 OFFCURVE",
"82 159 OFFCURVE",
"82 42 CURVE SMOOTH",
"82 24 OFFCURVE",
"100 10 OFFCURVE",
"121 10 CURVE SMOOTH"
);
}
);
width = 743;
}
);
note = N;
unicode = 004E;
},
{
glyphname = O;
lastChange = "2018-03-11 11:12:43 +0000";
layers = (
{
anchors = (
{
name = bottom;
position = "{384, 0}";
},
{
name = center;
position = "{384, 350}";
},
{
name = ogonek;
position = "{391, 18}";
},
{
name = top;
position = "{384, 700}";
},
{
name = topleft;
position = "{101, 518}";
},
{
name = topright;
position = "{665, 518}";
}
);
layerId = "0B1DFD06-3317-40CA-B510-4969A0718C16";
paths = (
{
closed = 1;
nodes = (
"538 10 OFFCURVE",
"716 101 OFFCURVE",
"716 337 CURVE SMOOTH",
"716 556 OFFCURVE",
"562 705 OFFCURVE",
"370 705 CURVE SMOOTH",
"175 705 OFFCURVE",
"50 552 OFFCURVE",
"50 341 CURVE SMOOTH",
"50 96 OFFCURVE",
"218 10 OFFCURVE",
"376 10 CURVE SMOOTH"
);
},
{
closed = 1;
nodes = (
"260 41 OFFCURVE",
"81 104 OFFCURVE",
"81 345 CURVE SMOOTH",
"81 545 OFFCURVE",
"205 674 OFFCURVE",
"373 674 CURVE SMOOTH",
"549 674 OFFCURVE",
"685 534 OFFCURVE",
"685 339 CURVE SMOOTH",
"685 117 OFFCURVE",
"510 41 OFFCURVE",
"379 41 CURVE SMOOTH"
);
}
);
width = 766;
},
{
anchors = (
{
name = bottom;
position = "{401, 0}";
},
{
name = center;
position = "{407, 351}";
},
{
name = ogonek;
position = "{478, 36}";
},
{
name = top;
position = "{401, 700}";
},
{
name = topleft;
position = "{136, 500}";
},
{
name = topright;
position = "{688, 500}";
}
);
layerId = "2F8C22CF-EC86-44F4-AF1A-A6C7F26A0C3C";
paths = (
{
closed = 1;
nodes = (
"611 6 OFFCURVE",
"762 137 OFFCURVE",
"762 342 CURVE SMOOTH",
"762 549 OFFCURVE",
"607 709 OFFCURVE",
"396 709 CURVE SMOOTH",
"191 709 OFFCURVE",
"50 558 OFFCURVE",
"50 346 CURVE SMOOTH",
"50 136 OFFCURVE",
"188 6 OFFCURVE",
"399 6 CURVE SMOOTH"
);
},
{
closed = 1;
nodes = (
"286 136 OFFCURVE",
"195 208 OFFCURVE",
"195 351 CURVE SMOOTH",
"195 482 OFFCURVE",
"272 579 OFFCURVE",
"402 579 CURVE SMOOTH",
"532 579 OFFCURVE",
"617 483 OFFCURVE",
"617 348 CURVE SMOOTH",
"617 207 OFFCURVE",
"523 136 OFFCURVE",
"405 136 CURVE SMOOTH"
);
}
);
width = 812;
},
{
anchors = (
{
name = bottom;
position = "{394, 0}";
},
{
name = center;
position = "{397, 350}";
},
{
name = ogonek;
position = "{429, 25}";
},
{
name = top;
position = "{394, 700}";
},
{
name = topleft;
position = "{119, 511}";
},
{
name = topright;
position = "{678, 511}";
}
);
layerId = "17B9D149-A542-49FB-8130-D430586D7342";
paths = (
{
closed = 1;
nodes = (
"571 8 OFFCURVE",
"738 115 OFFCURVE",
"738 338 CURVE SMOOTH",
"738 553 OFFCURVE",
"584 707 OFFCURVE",
"384 707 CURVE SMOOTH",
"185 707 OFFCURVE",
"54 554 OFFCURVE",
"54 343 CURVE SMOOTH",
"54 112 OFFCURVE",
"210 8 OFFCURVE",
"389 8 CURVE SMOOTH"
);
},
{
closed = 1;
nodes = (
"275 79 OFFCURVE",
"130 145 OFFCURVE",
"130 348 CURVE SMOOTH",
"130 519 OFFCURVE",
"234 636 OFFCURVE",
"388 636 CURVE SMOOTH",
"546 636 OFFCURVE",
"661 513 OFFCURVE",
"661 342 CURVE SMOOTH",
"661 153 OFFCURVE",
"519 79 OFFCURVE",
"394 79 CURVE SMOOTH"
);
}
);
width = 792;
}
);
note = O;
unicode = 004F;
},
{
glyphname = P;
lastChange = "2018-03-11 11:35:54 +0000";
layers = (
{
anchors = (
{
name = bottom;
position = "{105, 0}";
},
{
name = top;
position = "{301, 700}";
}
);
layerId = "0B1DFD06-3317-40CA-B510-4969A0718C16";
paths = (
{
closed = 1;
nodes = (
"113 -6 OFFCURVE",
"123 -4 OFFCURVE",
"123 14 CURVE SMOOTH",
"126 317 LINE",
"163 294 OFFCURVE",
"216 277 OFFCURVE",
"288 277 CURVE SMOOTH",
"440 277 OFFCURVE",
"550 354 OFFCURVE",
"550 483 CURVE SMOOTH",
"550 626 OFFCURVE",
"413 704 OFFCURVE",
"282 704 CURVE SMOOTH",
"191 704 OFFCURVE",
"119 666 OFFCURVE",
"55 631 CURVE SMOOTH",
"48 627 OFFCURVE",
"50 616 OFFCURVE",
"53 611 CURVE SMOOTH",
"56 607 OFFCURVE",
"62 600 OFFCURVE",
"69 604 CURVE SMOOTH",
"126 636 OFFCURVE",
"191 673 OFFCURVE",
"279 673 CURVE SMOOTH",
"406 673 OFFCURVE",
"519 596 OFFCURVE",
"519 485 CURVE SMOOTH",
"519 386 OFFCURVE",
"431 308 OFFCURVE",
"278 308 CURVE SMOOTH",
"232 308 OFFCURVE",
"183 315 OFFCURVE",
"126 348 CURVE",
"125 375 OFFCURVE",
"126 364 OFFCURVE",
"124 504 CURVE SMOOTH",
"123 550 OFFCURVE",
"122 675 OFFCURVE",
"121 689 CURVE SMOOTH",
"121 701 OFFCURVE",
"115 705 OFFCURVE",
"104 705 CURVE SMOOTH",
"90 705 OFFCURVE",
"87 697 OFFCURVE",
"87 684 CURVE SMOOTH",
"87 665 OFFCURVE",
"94 576 OFFCURVE",
"94 340 CURVE SMOOTH",
"94 162 OFFCURVE",
"90 49 OFFCURVE",
"90 24 CURVE SMOOTH",
"90 -1 OFFCURVE",
"94 -6 OFFCURVE",
"106 -6 CURVE SMOOTH"
);
}
);
width = 580;
},
{
anchors = (
{
name = bottom;
position = "{180, 0}";
},
{
name = top;
position = "{350, 700}";
}
);
layerId = "2F8C22CF-EC86-44F4-AF1A-A6C7F26A0C3C";
paths = (
{
closed = 1;
nodes = (
"227 -9 OFFCURVE",
"256 19 OFFCURVE",
"256 57 CURVE SMOOTH",
"258 257 LINE",
"281 250 OFFCURVE",
"328 240 OFFCURVE",
"378 240 CURVE SMOOTH",
"528 240 OFFCURVE",
"643 332 OFFCURVE",
"643 463 CURVE SMOOTH",
"643 603 OFFCURVE",
"511 707 OFFCURVE",
"348 707 CURVE SMOOTH",
"237 707 OFFCURVE",
"144 659 OFFCURVE",
"109 632 CURVE SMOOTH",
"71 603 OFFCURVE",
"56 565 OFFCURVE",
"82 534 CURVE SMOOTH",
"104 508 OFFCURVE",
"140 501 OFFCURVE",
"174 519 CURVE SMOOTH",
"231 550 OFFCURVE",
"283 577 OFFCURVE",
"343 577 CURVE SMOOTH",
"420 577 OFFCURVE",
"477 532 OFFCURVE",
"477 468 CURVE SMOOTH",
"477 408 OFFCURVE",
"427 358 OFFCURVE",
"354 358 CURVE SMOOTH",
"321 358 OFFCURVE",
"277 368 OFFCURVE",
"258 377 CURVE",
"257 419 OFFCURVE",
"256 455 OFFCURVE",
"254 515 CURVE SMOOTH",
"252 572 OFFCURVE",
"253 528 OFFCURVE",
"250 642 CURVE SMOOTH",
"249 680 OFFCURVE",
"227 708 OFFCURVE",
"174 708 CURVE SMOOTH",
"122 708 OFFCURVE",
"104 681 OFFCURVE",
"104 622 CURVE SMOOTH",
"104 583 OFFCURVE",
"112 571 OFFCURVE",
"112 294 CURVE SMOOTH",
"112 156 OFFCURVE",
"110 113 OFFCURVE",
"108 61 CURVE SMOOTH",
"106 19 OFFCURVE",
"135 -9 OFFCURVE",
"181 -9 CURVE SMOOTH"
);
}
);
width = 683;
},
{
anchors = (
{
name = bottom;
position = "{132, 0}";
},
{
name = top;
position = "{322, 700}";
}
);
layerId = "17B9D149-A542-49FB-8130-D430586D7342";
paths = (
{
closed = 1;
nodes = (
"154 -7 OFFCURVE",
"170 7 OFFCURVE",
"170 31 CURVE SMOOTH",
"173 293 LINE",
"209 274 OFFCURVE",
"260 262 OFFCURVE",
"318 262 CURVE SMOOTH",
"470 262 OFFCURVE",
"581 345 OFFCURVE",
"581 474 CURVE SMOOTH",
"581 616 OFFCURVE",
"448 705 OFFCURVE",
"299 705 CURVE SMOOTH",
"205 705 OFFCURVE",
"137 669 OFFCURVE",
"71 631 CURVE SMOOTH",
"48 618 OFFCURVE",
"50 593 OFFCURVE",
"59 580 CURVE SMOOTH",
"69 567 OFFCURVE",
"89 561 OFFCURVE",
"105 570 CURVE SMOOTH",
"161 601 OFFCURVE",
"223 635 OFFCURVE",
"300 635 CURVE SMOOTH",
"405 635 OFFCURVE",
"496 571 OFFCURVE",
"496 477 CURVE SMOOTH",
"496 391 OFFCURVE",
"419 328 OFFCURVE",
"304 328 CURVE SMOOTH",
"265 328 OFFCURVE",
"217 335 OFFCURVE",
"173 360 CURVE",
"172 415 OFFCURVE",
"172 434 OFFCURVE",
"170 508 CURVE SMOOTH",
"168 593 OFFCURVE",
"168 541 OFFCURVE",
"167 670 CURVE SMOOTH",
"167 693 OFFCURVE",
"152 706 OFFCURVE",
"126 706 CURVE SMOOTH",
"98 706 OFFCURVE",
"88 692 OFFCURVE",
"88 661 CURVE SMOOTH",
"88 635 OFFCURVE",
"95 574 OFFCURVE",
"95 318 CURVE SMOOTH",
"95 125 OFFCURVE",
"91 42 OFFCURVE",
"91 30 CURVE SMOOTH",
"91 8 OFFCURVE",
"106 -7 OFFCURVE",
"131 -7 CURVE SMOOTH"
);
}
);
width = 611;
}
);
note = P;
unicode = 0050;
},
{
glyphname = Q;
lastChange = "2018-03-11 11:38:57 +0000";
layers = (
{
anchors = (
{
name = bottom;
position = "{379, 0}";
},
{
name = top;
position = "{379, 700}";
}
);
layerId = "0B1DFD06-3317-40CA-B510-4969A0718C16";
paths = (
{
closed = 1;
nodes = (
"551 15 OFFCURVE",
"705 153 OFFCURVE",
"705 359 CURVE SMOOTH",
"705 578 OFFCURVE",
"532 709 OFFCURVE",
"374 709 CURVE SMOOTH",
"222 709 OFFCURVE",
"50 588 OFFCURVE",
"50 350 CURVE SMOOTH",
"50 152 OFFCURVE",
"169 15 OFFCURVE",
"360 15 CURVE SMOOTH"
);
},
{
closed = 1;
nodes = (
"689 24 OFFCURVE",
"696 32 OFFCURVE",
"696 41 CURVE SMOOTH",
"696 46 OFFCURVE",
"694 50 OFFCURVE",
"690 54 CURVE SMOOTH",
"663 82 OFFCURVE",
"509 236 OFFCURVE",
"502 242 CURVE SMOOTH",
"500 244 OFFCURVE",
"497 245 OFFCURVE",
"494 245 CURVE SMOOTH",
"488 245 OFFCURVE",
"474 239 OFFCURVE",
"474 227 CURVE SMOOTH",
"474 223 OFFCURVE",
"476 220 OFFCURVE",
"478 218 CURVE SMOOTH",
"483 212 OFFCURVE",
"497 199 OFFCURVE",
"668 29 CURVE SMOOTH",
"671 26 OFFCURVE",
"676 24 OFFCURVE",
"680 24 CURVE SMOOTH"
);
},
{
closed = 1;
nodes = (
"190 46 OFFCURVE",
"81 175 OFFCURVE",
"81 348 CURVE SMOOTH",
"81 565 OFFCURVE",
"238 678 OFFCURVE",
"378 678 CURVE SMOOTH",
"518 678 OFFCURVE",
"674 557 OFFCURVE",
"674 356 CURVE SMOOTH",
"674 176 OFFCURVE",
"531 46 OFFCURVE",
"360 46 CURVE SMOOTH"
);
}
);
width = 755;
},
{
anchors = (
{
name = bottom;
position = "{403, 0}";
},
{
name = top;
position = "{396, 700}";
}
);
layerId = "2F8C22CF-EC86-44F4-AF1A-A6C7F26A0C3C";
paths = (
{
closed = 1;
nodes = (
"595 11 OFFCURVE",
"753 161 OFFCURVE",
"753 359 CURVE SMOOTH",
"753 556 OFFCURVE",
"595 713 OFFCURVE",
"397 713 CURVE SMOOTH",
"201 713 OFFCURVE",
"50 558 OFFCURVE",
"50 349 CURVE SMOOTH",
"50 150 OFFCURVE",
"186 11 OFFCURVE",
"387 11 CURVE SMOOTH"
);
},
{
closed = 1;
nodes = (
"708 8 OFFCURVE",
"742 45 OFFCURVE",
"742 85 CURVE SMOOTH",
"742 101 OFFCURVE",
"736 118 OFFCURVE",
"720 133 CURVE SMOOTH",
"636 214 OFFCURVE",
"606 242 OFFCURVE",
"533 309 CURVE SMOOTH",
"524 317 OFFCURVE",
"514 321 OFFCURVE",
"502 321 CURVE SMOOTH",
"462 321 OFFCURVE",
"419 275 OFFCURVE",
"419 241 CURVE SMOOTH",
"419 228 OFFCURVE",
"425 215 OFFCURVE",
"439 201 CURVE SMOOTH",
"518 124 OFFCURVE",
"571 71 OFFCURVE",
"615 29 CURVE",
"632 14 OFFCURVE",
"650 8 OFFCURVE",
"667 8 CURVE SMOOTH"
);
},
{
closed = 1;
nodes = (
"284 141 OFFCURVE",
"196 219 OFFCURVE",
"196 357 CURVE SMOOTH",
"196 493 OFFCURVE",
"282 583 OFFCURVE",
"400 583 CURVE SMOOTH",
"523 583 OFFCURVE",
"607 486 OFFCURVE",
"607 365 CURVE SMOOTH",
"607 224 OFFCURVE",
"494 141 OFFCURVE",
"387 141 CURVE SMOOTH"
);
}
);
width = 803;
},
{
anchors = (
{
name = bottom;
position = "{391, 0}";
},
{
name = top;
position = "{388, 700}";
}
);
layerId = "17B9D149-A542-49FB-8130-D430586D7342";
paths = (
{
closed = 1;
nodes = (
"571 13 OFFCURVE",
"727 156 OFFCURVE",
"727 359 CURVE SMOOTH",
"727 569 OFFCURVE",
"559 711 OFFCURVE",
"385 711 CURVE SMOOTH",
"216 711 OFFCURVE",
"52 576 OFFCURVE",
"52 350 CURVE SMOOTH",
"52 152 OFFCURVE",
"178 13 OFFCURVE",
"373 13 CURVE SMOOTH"
);
},
{
closed = 1;
nodes = (
"699 18 OFFCURVE",
"717 37 OFFCURVE",
"717 58 CURVE SMOOTH",
"717 68 OFFCURVE",
"713 77 OFFCURVE",
"704 86 CURVE SMOOTH",
"665 124 OFFCURVE",
"531 257 OFFCURVE",
"517 269 CURVE SMOOTH",
"512 273 OFFCURVE",
"506 275 OFFCURVE",
"500 275 CURVE SMOOTH",
"480 275 OFFCURVE",
"454 253 OFFCURVE",
"454 233 CURVE SMOOTH",
"454 225 OFFCURVE",
"458 218 OFFCURVE",
"465 211 CURVE SMOOTH",
"502 174 OFFCURVE",
"646 32 OFFCURVE",
"649 29 CURVE SMOOTH",
"655 23 OFFCURVE",
"666 18 OFFCURVE",
"677 18 CURVE SMOOTH"
);
},
{
closed = 1;
nodes = (
"230 84 OFFCURVE",
"129 193 OFFCURVE",
"129 352 CURVE SMOOTH",
"129 533 OFFCURVE",
"261 640 OFFCURVE",
"389 640 CURVE SMOOTH",
"523 640 OFFCURVE",
"650 521 OFFCURVE",
"650 360 CURVE SMOOTH",
"650 197 OFFCURVE",
"521 84 OFFCURVE",
"374 84 CURVE SMOOTH"
);
}
);
width = 781;
}
);
note = Q;
unicode = 0051;
},
{
glyphname = R;
lastChange = "2018-03-11 11:46:11 +0000";
layers = (
{
anchors = (
{
name = bottom;
position = "{326, 0}";
},
{
name = top;
position = "{326, 700}";
}
);
layerId = "0B1DFD06-3317-40CA-B510-4969A0718C16";
paths = (
{
closed = 1;
nodes = (
"428 293 OFFCURVE",
"564 356 OFFCURVE",
"564 498 CURVE SMOOTH",
"564 622 OFFCURVE",
"462 699 OFFCURVE",
"305 699 CURVE SMOOTH",
"243 699 OFFCURVE",
"195 687 OFFCURVE",
"116 652 CURVE SMOOTH",
"98 644 OFFCURVE",
"82 637 OFFCURVE",
"72 632 CURVE SMOOTH",
"64 628 OFFCURVE",
"60 624 OFFCURVE",
"60 618 CURVE SMOOTH",
"60 613 OFFCURVE",
"62 603 OFFCURVE",
"69 599 CURVE SMOOTH",
"72 597 OFFCURVE",
"76 597 OFFCURVE",
"79 598 CURVE SMOOTH",
"83 600 OFFCURVE",
"103 609 OFFCURVE",
"123 619 CURVE SMOOTH",
"195 653 OFFCURVE",
"247 668 OFFCURVE",
"307 668 CURVE SMOOTH",
"440 668 OFFCURVE",
"533 596 OFFCURVE",
"533 496 CURVE SMOOTH",
"533 379 OFFCURVE",
"406 324 OFFCURVE",
"286 324 CURVE SMOOTH",
"216 324 OFFCURVE",
"159 343 OFFCURVE",
"124 361 CURVE",
"124 331 LINE",
"185 305 OFFCURVE",
"233 293 OFFCURVE",
"292 293 CURVE SMOOTH"
);
},
{
closed = 1;
nodes = (
"128 -4 OFFCURVE",
"134 1 OFFCURVE",
"134 12 CURVE SMOOTH",
"134 136 OFFCURVE",
"135 181 OFFCURVE",
"135 277 CURVE SMOOTH",
"135 444 OFFCURVE",
"132 536 OFFCURVE",
"125 688 CURVE SMOOTH",
"125 699 OFFCURVE",
"118 701 OFFCURVE",
"109 701 CURVE SMOOTH",
"97 701 OFFCURVE",
"94 697 OFFCURVE",
"94 679 CURVE SMOOTH",
"94 646 OFFCURVE",
"104 582 OFFCURVE",
"104 303 CURVE SMOOTH",
"104 150 OFFCURVE",
"101 43 OFFCURVE",
"101 24 CURVE SMOOTH",
"101 1 OFFCURVE",
"105 -4 OFFCURVE",
"117 -4 CURVE SMOOTH"
);
},
{
closed = 1;
nodes = (
"542 15 OFFCURVE",
"550 24 OFFCURVE",
"550 33 CURVE SMOOTH",
"550 38 OFFCURVE",
"548 43 OFFCURVE",
"542 47 CURVE SMOOTH",
"124 342 LINE",
"124 303 LINE",
"517 23 LINE SMOOTH",
"521 20 OFFCURVE",
"529 15 OFFCURVE",
"534 15 CURVE SMOOTH"
);
}
);
width = 614;
},
{
anchors = (
{
name = bottom;
position = "{351, 0}";
},
{
name = top;
position = "{351, 700}";
}
);
layerId = "2F8C22CF-EC86-44F4-AF1A-A6C7F26A0C3C";
paths = (
{
closed = 1;
nodes = (
"514 269 OFFCURVE",
"642 342 OFFCURVE",
"642 480 CURVE SMOOTH",
"642 610 OFFCURVE",
"527 702 OFFCURVE",
"344 702 CURVE SMOOTH",
"293 702 OFFCURVE",
"234 695 OFFCURVE",
"174 667 CURVE SMOOTH",
"157 659 OFFCURVE",
"136 649 OFFCURVE",
"118 639 CURVE SMOOTH",
"87 622 OFFCURVE",
"70 607 OFFCURVE",
"70 579 CURVE SMOOTH",
"70 550 OFFCURVE",
"88 515 OFFCURVE",
"111 509 CURVE SMOOTH",
"118 507 OFFCURVE",
"128 507 OFFCURVE",
"135 509 CURVE SMOOTH",
"167 519 OFFCURVE",
"169 519 OFFCURVE",
"190 528 CURVE SMOOTH",
"255 555 OFFCURVE",
"294 571 OFFCURVE",
"349 571 CURVE SMOOTH",
"432 571 OFFCURVE",
"478 534 OFFCURVE",
"478 477 CURVE SMOOTH",
"478 416 OFFCURVE",
"425 379 OFFCURVE",
"335 379 CURVE SMOOTH",
"293 379 OFFCURVE",
"236 379 OFFCURVE",
"200 397 CURVE",
"200 287 LINE",
"242 275 OFFCURVE",
"296 269 OFFCURVE",
"345 269 CURVE SMOOTH"
);
},
{
closed = 1;
nodes = (
"226 -7 OFFCURVE",
"250 20 OFFCURVE",
"250 58 CURVE SMOOTH",
"250 156 OFFCURVE",
"250 295 OFFCURVE",
"250 390 CURVE SMOOTH",
"250 456 OFFCURVE",
"245 587 OFFCURVE",
"242 642 CURVE SMOOTH",
"240 684 OFFCURVE",
"213 704 OFFCURVE",
"170 704 CURVE SMOOTH",
"123 704 OFFCURVE",
"99 679 OFFCURVE",
"99 638 CURVE SMOOTH",
"99 572 OFFCURVE",
"100 510 OFFCURVE",
"102 390 CURVE SMOOTH",
"105 212 OFFCURVE",
"105 164 OFFCURVE",
"105 68 CURVE SMOOTH",
"105 23 OFFCURVE",
"130 -7 OFFCURVE",
"180 -7 CURVE SMOOTH"
);
},
{
closed = 1;
nodes = (
"604 9 OFFCURVE",
"630 40 OFFCURVE",
"630 77 CURVE SMOOTH",
"630 106 OFFCURVE",
"613 120 OFFCURVE",
"593 131 CURVE SMOOTH",
"200 357 LINE",
"200 216 LINE",
"507 26 LINE SMOOTH",
"519 18 OFFCURVE",
"542 9 OFFCURVE",
"564 9 CURVE SMOOTH"
);
}
);
width = 682;
},
{
anchors = (
{
name = bottom;
position = "{323, 0}";
},
{
name = top;
position = "{323, 700}";
}
);
layerId = "17B9D149-A542-49FB-8130-D430586D7342";
paths = (
{
closed = 1;
nodes = (
"448 283 OFFCURVE",
"582 350 OFFCURVE",
"582 491 CURVE SMOOTH",
"582 617 OFFCURVE",
"475 700 OFFCURVE",
"307 700 CURVE SMOOTH",
"252 700 OFFCURVE",
"198 691 OFFCURVE",
"126 658 CURVE SMOOTH",
"109 650 OFFCURVE",
"91 642 OFFCURVE",
"77 635 CURVE SMOOTH",
"58 625 OFFCURVE",
"51 616 OFFCURVE",
"51 603 CURVE SMOOTH",
"51 589 OFFCURVE",
"58 569 OFFCURVE",
"73 563 CURVE SMOOTH",
"77 561 OFFCURVE",
"85 561 OFFCURVE",
"88 562 CURVE SMOOTH",
"108 569 OFFCURVE",
"126 578 OFFCURVE",
"137 583 CURVE SMOOTH",
"205 614 OFFCURVE",
"255 629 OFFCURVE",
"312 629 CURVE SMOOTH",
"423 629 OFFCURVE",
"498 571 OFFCURVE",
"498 488 CURVE SMOOTH",
"498 400 OFFCURVE",
"418 351 OFFCURVE",
"294 351 CURVE SMOOTH",
"234 351 OFFCURVE",
"169 361 OFFCURVE",
"133 379 CURVE",
"133 322 LINE",
"186 302 OFFCURVE",
"245 283 OFFCURVE",
"302 283 CURVE SMOOTH"
);
},
{
closed = 1;
nodes = (
"152 -5 OFFCURVE",
"167 7 OFFCURVE",
"167 30 CURVE SMOOTH",
"167 144 OFFCURVE",
"168 223 OFFCURVE",
"168 298 CURVE SMOOTH",
"168 449 OFFCURVE",
"164 543 OFFCURVE",
"159 670 CURVE SMOOTH",
"158 693 OFFCURVE",
"143 702 OFFCURVE",
"120 702 CURVE SMOOTH",
"94 702 OFFCURVE",
"83 690 OFFCURVE",
"83 659 CURVE SMOOTH",
"83 641 OFFCURVE",
"87 612 OFFCURVE",
"90 375 CURVE SMOOTH",
"92 187 OFFCURVE",
"90 171 OFFCURVE",
"90 36 CURVE SMOOTH",
"90 10 OFFCURVE",
"104 -5 OFFCURVE",
"130 -5 CURVE SMOOTH"
);
},
{
closed = 1;
nodes = (
"558 13 OFFCURVE",
"571 37 OFFCURVE",
"571 58 CURVE SMOOTH",
"571 71 OFFCURVE",
"564 80 OFFCURVE",
"551 88 CURVE SMOOTH",
"133 347 LINE",
"133 255 LINE",
"500 24 LINE SMOOTH",
"507 19 OFFCURVE",
"521 13 OFFCURVE",
"533 13 CURVE SMOOTH"
);
}
);
width = 641;
}
);
note = R;
unicode = 0052;
},
{
glyphname = S;
lastChange = "2018-03-11 11:48:48 +0000";
layers = (
{
anchors = (
{
name = bottom;
position = "{259, 0}";
},
{
name = top;
position = "{259, 700}";
}
);
layerId = "0B1DFD06-3317-40CA-B510-4969A0718C16";
paths = (
{
closed = 1;
nodes = (
"381 2 OFFCURVE",
"454 65 OFFCURVE",
"454 169 CURVE SMOOTH",
"454 301 OFFCURVE",
"344 338 OFFCURVE",
"267 361 CURVE SMOOTH",
"171 390 OFFCURVE",
"81 418 OFFCURVE",
"81 520 CURVE SMOOTH",
"81 605 OFFCURVE",
"144 675 OFFCURVE",
"255 675 CURVE SMOOTH",
"350 675 OFFCURVE",
"417 611 OFFCURVE",
"417 519 CURVE SMOOTH",
"417 509 OFFCURVE",
"421 505 OFFCURVE",
"433 505 CURVE SMOOTH",
"445 505 OFFCURVE",
"448 510 OFFCURVE",
"448 527 CURVE SMOOTH",
"448 613 OFFCURVE",
"382 706 OFFCURVE",
"248 706 CURVE SMOOTH",
"139 706 OFFCURVE",
"50 634 OFFCURVE",
"50 520 CURVE SMOOTH",
"50 389 OFFCURVE",
"167 356 OFFCURVE",
"242 336 CURVE SMOOTH",
"352 306 OFFCURVE",
"423 265 OFFCURVE",
"423 168 CURVE SMOOTH",
"423 80 OFFCURVE",
"359 33 OFFCURVE",
"265 33 CURVE SMOOTH",
"148 33 OFFCURVE",
"83 101 OFFCURVE",
"83 211 CURVE SMOOTH",
"83 219 OFFCURVE",
"81 227 OFFCURVE",
"68 227 CURVE SMOOTH",
"54 227 OFFCURVE",
"52 218 OFFCURVE",
"52 206 CURVE SMOOTH",
"52 98 OFFCURVE",
"129 2 OFFCURVE",
"270 2 CURVE SMOOTH"
);
}
);
width = 504;
},
{
anchors = (
{
name = bottom;
position = "{318, 0}";
},
{
name = top;
position = "{318, 700}";
}
);
layerId = "2F8C22CF-EC86-44F4-AF1A-A6C7F26A0C3C";
paths = (
{
closed = 1;
nodes = (
"460 -1 OFFCURVE",
"566 80 OFFCURVE",
"566 199 CURVE SMOOTH",
"566 340 OFFCURVE",
"417 388 OFFCURVE",
"345 410 CURVE SMOOTH",
"250 440 OFFCURVE",
"205 448 OFFCURVE",
"205 493 CURVE SMOOTH",
"205 548 OFFCURVE",
"253 580 OFFCURVE",
"309 580 CURVE SMOOTH",
"374 580 OFFCURVE",
"411 536 OFFCURVE",
"418 496 CURVE SMOOTH",
"425 454 OFFCURVE",
"429 432 OFFCURVE",
"489 432 CURVE SMOOTH",
"540 432 OFFCURVE",
"561 448 OFFCURVE",
"561 498 CURVE SMOOTH",
"561 607 OFFCURVE",
"459 709 OFFCURVE",
"313 709 CURVE SMOOTH",
"176 709 OFFCURVE",
"60 619 OFFCURVE",
"60 495 CURVE SMOOTH",
"60 347 OFFCURVE",
"223 307 OFFCURVE",
"287 289 CURVE SMOOTH",
"349 271 OFFCURVE",
"421 252 OFFCURVE",
"421 196 CURVE SMOOTH",
"421 148 OFFCURVE",
"367 129 OFFCURVE",
"323 129 CURVE SMOOTH",
"270 129 OFFCURVE",
"214 157 OFFCURVE",
"208 230 CURVE SMOOTH",
"206 254 OFFCURVE",
"202 296 OFFCURVE",
"132 296 CURVE SMOOTH",
"87 296 OFFCURVE",
"62 279 OFFCURVE",
"62 224 CURVE SMOOTH",
"62 107 OFFCURVE",
"171 -1 OFFCURVE",
"326 -1 CURVE SMOOTH"
);
}
);
width = 626;
},
{
anchors = (
{
name = bottom;
position = "{289, 0}";
},
{
name = top;
position = "{289, 700}";
}
);
layerId = "17B9D149-A542-49FB-8130-D430586D7342";
paths = (
{
closed = 1;
nodes = (
"420 1 OFFCURVE",
"505 70 OFFCURVE",
"505 181 CURVE SMOOTH",
"505 320 OFFCURVE",
"371 361 OFFCURVE",
"305 381 CURVE SMOOTH",
"214 408 OFFCURVE",
"137 430 OFFCURVE",
"137 509 CURVE SMOOTH",
"137 582 OFFCURVE",
"194 637 OFFCURVE",
"280 637 CURVE SMOOTH",
"368 637 OFFCURVE",
"416 579 OFFCURVE",
"424 510 CURVE SMOOTH",
"426 492 OFFCURVE",
"428 476 OFFCURVE",
"463 476 CURVE SMOOTH",
"492 476 OFFCURVE",
"500 487 OFFCURVE",
"500 516 CURVE SMOOTH",
"500 614 OFFCURVE",
"409 707 OFFCURVE",
"280 707 CURVE SMOOTH",
"161 707 OFFCURVE",
"60 628 OFFCURVE",
"60 510 CURVE SMOOTH",
"60 370 OFFCURVE",
"200 336 OFFCURVE",
"266 317 CURVE SMOOTH",
"355 291 OFFCURVE",
"429 263 OFFCURVE",
"429 180 CURVE SMOOTH",
"429 106 OFFCURVE",
"367 71 OFFCURVE",
"292 71 CURVE SMOOTH",
"211 71 OFFCURVE",
"146 122 OFFCURVE",
"139 219 CURVE SMOOTH",
"138 234 OFFCURVE",
"135 255 OFFCURVE",
"100 255 CURVE SMOOTH",
"67 255 OFFCURVE",
"62 237 OFFCURVE",
"62 211 CURVE SMOOTH",
"62 102 OFFCURVE",
"148 1 OFFCURVE",
"299 1 CURVE SMOOTH"
);
}
);
width = 563;
}
);
note = S;
unicode = 0053;
},
{
glyphname = T;
lastChange = "2018-03-11 11:54:27 +0000";
layers = (
{
anchors = (
{
name = bottom;
position = "{229, 0}";
},
{
name = center;
position = "{258, 350}";
},
{
name = top;
position = "{258, 700}";
}
);
layerId = "0B1DFD06-3317-40CA-B510-4969A0718C16";
paths = (
{
closed = 1;
nodes = (
"247 0 OFFCURVE",
"254 4 OFFCURVE",
"254 19 CURVE SMOOTH",
"255 85 OFFCURVE",
"259 186 OFFCURVE",
"264 331 CURVE SMOOTH",
"268 460 OFFCURVE",
"273 548 OFFCURVE",
"280 671 CURVE",
"248 671 LINE",
"245 618 OFFCURVE",
"240 517 OFFCURVE",
"232 330 CURVE SMOOTH",
"226 191 OFFCURVE",
"220 81 OFFCURVE",
"219 15 CURVE SMOOTH",
"219 4 OFFCURVE",
"227 0 OFFCURVE",
"237 0 CURVE SMOOTH"
);
},
{
closed = 1;
nodes = (
"123 659 OFFCURVE",
"164 663 OFFCURVE",
"272 663 CURVE SMOOTH",
"349 663 OFFCURVE",
"396 661 OFFCURVE",
"473 655 CURVE SMOOTH",
"484 654 OFFCURVE",
"487 663 OFFCURVE",
"487 670 CURVE SMOOTH",
"487 680 OFFCURVE",
"482 686 OFFCURVE",
"471 687 CURVE SMOOTH",
"411 692 OFFCURVE",
"353 694 OFFCURVE",
"279 694 CURVE SMOOTH",
"174 694 OFFCURVE",
"112 690 OFFCURVE",
"42 682 CURVE SMOOTH",
"33 681 OFFCURVE",
"30 675 OFFCURVE",
"30 667 CURVE SMOOTH",
"30 656 OFFCURVE",
"36 650 OFFCURVE",
"44 651 CURVE SMOOTH"
);
}
);
width = 517;
},
{
anchors = (
{
name = bottom;
position = "{280, 0}";
},
{
name = center;
position = "{295, 350}";
},
{
name = top;
position = "{280, 700}";
}
);
layerId = "2F8C22CF-EC86-44F4-AF1A-A6C7F26A0C3C";
paths = (
{
closed = 1;
nodes = (
"341 -10 OFFCURVE",
"354 9 OFFCURVE",
"354 56 CURVE SMOOTH",
"354 139 OFFCURVE",
"355 265 OFFCURVE",
"357 340 CURVE SMOOTH",
"359 450 OFFCURVE",
"363 508 OFFCURVE",
"374 624 CURVE",
"226 629 LINE",
"219 517 OFFCURVE",
"216 447 OFFCURVE",
"210 340 CURVE SMOOTH",
"204 221 OFFCURVE",
"203 189 OFFCURVE",
"203 55 CURVE SMOOTH",
"203 8 OFFCURVE",
"228 -10 OFFCURVE",
"284 -10 CURVE SMOOTH"
);
},
{
closed = 1;
nodes = (
"192 564 OFFCURVE",
"243 567 OFFCURVE",
"324 567 CURVE SMOOTH",
"391 567 OFFCURVE",
"423 565 OFFCURVE",
"486 561 CURVE SMOOTH",
"532 558 OFFCURVE",
"561 578 OFFCURVE",
"561 626 CURVE SMOOTH",
"561 675 OFFCURVE",
"531 688 OFFCURVE",
"497 692 CURVE SMOOTH",
"457 696 OFFCURVE",
"360 698 OFFCURVE",
"310 698 CURVE SMOOTH",
"248 698 OFFCURVE",
"142 695 OFFCURVE",
"89 687 CURVE SMOOTH",
"55 682 OFFCURVE",
"30 667 OFFCURVE",
"30 626 CURVE SMOOTH",
"30 580 OFFCURVE",
"61 552 OFFCURVE",
"107 558 CURVE"
);
}
);
width = 591;
},
{
anchors = (
{
name = bottom;
position = "{255, 0}";
},
{
name = center;
position = "{278, 350}";
},
{
name = top;
position = "{272, 700}";
}
);
layerId = "17B9D149-A542-49FB-8130-D430586D7342";
paths = (
{
closed = 1;
nodes = (
"289 -10 OFFCURVE",
"300 2 OFFCURVE",
"300 32 CURVE SMOOTH",
"300 92 OFFCURVE",
"302 189 OFFCURVE",
"307 335 CURVE SMOOTH",
"311 457 OFFCURVE",
"315 552 OFFCURVE",
"323 652 CURVE",
"245 654 LINE",
"244 637 OFFCURVE",
"237 510 OFFCURVE",
"229 334 CURVE SMOOTH",
"223 201 OFFCURVE",
"218 78 OFFCURVE",
"218 46 CURVE SMOOTH",
"218 4 OFFCURVE",
"227 -10 OFFCURVE",
"259 -10 CURVE SMOOTH"
);
},
{
closed = 1;
nodes = (
"152 621 OFFCURVE",
"198 625 OFFCURVE",
"298 625 CURVE SMOOTH",
"369 625 OFFCURVE",
"405 623 OFFCURVE",
"484 617 CURVE SMOOTH",
"509 615 OFFCURVE",
"522 630 OFFCURVE",
"522 653 CURVE SMOOTH",
"522 679 OFFCURVE",
"506 687 OFFCURVE",
"487 689 CURVE SMOOTH",
"444 694 OFFCURVE",
"351 696 OFFCURVE",
"288 696 CURVE SMOOTH",
"189 696 OFFCURVE",
"130 691 OFFCURVE",
"66 684 CURVE SMOOTH",
"46 682 OFFCURVE",
"36 670 OFFCURVE",
"36 650 CURVE SMOOTH",
"36 624 OFFCURVE",
"52 612 OFFCURVE",
"75 614 CURVE SMOOTH"
);
}
);
width = 557;
}
);
note = T;
unicode = 0054;
},
{
glyphname = U;
lastChange = "2018-03-11 11:59:25 +0000";
layers = (
{
anchors = (
{
name = bottom;
position = "{308, 0}";
},
{
name = ogonek;
position = "{534, 7}";
},
{
name = top;
position = "{308, 700}";
},
{
name = topright;
position = "{537, 544}";
}
);
layerId = "0B1DFD06-3317-40CA-B510-4969A0718C16";
paths = (
{
closed = 1;
nodes = (
"549 -1 OFFCURVE",
"553 5 OFFCURVE",
"553 15 CURVE SMOOTH",
"553 315 OFFCURVE",
"550 429 OFFCURVE",
"546 689 CURVE SMOOTH",
"546 701 OFFCURVE",
"541 707 OFFCURVE",
"529 707 CURVE SMOOTH",
"516 707 OFFCURVE",
"515 699 OFFCURVE",
"515 689 CURVE SMOOTH",
"515 662 OFFCURVE",
"522 297 OFFCURVE",
"519 245 CURVE SMOOTH",
"515 178 OFFCURVE",
"460 35 OFFCURVE",
"283 35 CURVE SMOOTH",
"164 35 OFFCURVE",
"92 111 OFFCURVE",
"92 294 CURVE SMOOTH",
"92 351 OFFCURVE",
"98 511 OFFCURVE",
"98 684 CURVE SMOOTH",
"98 694 OFFCURVE",
"94 700 OFFCURVE",
"82 700 CURVE SMOOTH",
"71 700 OFFCURVE",
"67 696 OFFCURVE",
"67 686 CURVE SMOOTH",
"66 627 OFFCURVE",
"60 390 OFFCURVE",
"60 260 CURVE SMOOTH",
"60 157 OFFCURVE",
"101 3 OFFCURVE",
"293 3 CURVE SMOOTH",
"423 3 OFFCURVE",
"492 73 OFFCURVE",
"528 166 CURVE",
"521 166 LINE",
"521 101 OFFCURVE",
"521 58 OFFCURVE",
"521 16 CURVE SMOOTH",
"521 3 OFFCURVE",
"526 -1 OFFCURVE",
"537 -1 CURVE"
);
}
);
width = 613;
},
{
anchors = (
{
name = bottom;
position = "{349, 0}";
},
{
name = ogonek;
position = "{581, 31}";
},
{
name = top;
position = "{349, 700}";
},
{
name = topright;
position = "{604, 532}";
}
);
layerId = "2F8C22CF-EC86-44F4-AF1A-A6C7F26A0C3C";
paths = (
{
closed = 1;
nodes = (
"618 -4 OFFCURVE",
"633 18 OFFCURVE",
"633 75 CURVE SMOOTH",
"633 266 OFFCURVE",
"628 482 OFFCURVE",
"628 645 CURVE SMOOTH",
"628 687 OFFCURVE",
"598 710 OFFCURVE",
"553 710 CURVE SMOOTH",
"506 710 OFFCURVE",
"485 685 OFFCURVE",
"485 645 CURVE SMOOTH",
"485 490 OFFCURVE",
"486 450 OFFCURVE",
"486 338 CURVE SMOOTH",
"486 220 OFFCURVE",
"401 131 OFFCURVE",
"324 131 CURVE SMOOTH",
"269 131 OFFCURVE",
"217 177 OFFCURVE",
"217 262 CURVE SMOOTH",
"217 457 OFFCURVE",
"221 604 OFFCURVE",
"221 628 CURVE SMOOTH",
"221 682 OFFCURVE",
"200 704 OFFCURVE",
"151 704 CURVE SMOOTH",
"97 704 OFFCURVE",
"77 678 OFFCURVE",
"76 643 CURVE SMOOTH",
"72 487 OFFCURVE",
"70 421 OFFCURVE",
"70 262 CURVE SMOOTH",
"70 108 OFFCURVE",
"158 0 OFFCURVE",
"303 0 CURVE SMOOTH",
"441 0 OFFCURVE",
"518 99 OFFCURVE",
"518 168 CURVE",
"488 168 LINE",
"488 119 OFFCURVE",
"488 89 OFFCURVE",
"488 70 CURVE SMOOTH",
"488 17 OFFCURVE",
"516 -4 OFFCURVE",
"566 -4 CURVE SMOOTH"
);
}
);
width = 704;
},
{
anchors = (
{
name = bottom;
position = "{332, 0}";
},
{
name = ogonek;
position = "{561, 17}";
},
{
name = top;
position = "{332, 700}";
},
{
name = topright;
position = "{574, 539}";
}
);
layerId = "17B9D149-A542-49FB-8130-D430586D7342";
paths = (
{
closed = 1;
nodes = (
"581 -2 OFFCURVE",
"593 10 OFFCURVE",
"593 31 CURVE SMOOTH",
"592 304 OFFCURVE",
"590 420 OFFCURVE",
"587 671 CURVE SMOOTH",
"587 694 OFFCURVE",
"573 708 OFFCURVE",
"547 708 CURVE SMOOTH",
"522 708 OFFCURVE",
"511 696 OFFCURVE",
"511 673 CURVE SMOOTH",
"513 495 OFFCURVE",
"515 386 OFFCURVE",
"514 282 CURVE SMOOTH",
"513 188 OFFCURVE",
"427 73 OFFCURVE",
"319 73 CURVE SMOOTH",
"210 73 OFFCURVE",
"150 137 OFFCURVE",
"150 262 CURVE SMOOTH",
"150 402 OFFCURVE",
"154 492 OFFCURVE",
"155 668 CURVE SMOOTH",
"155 689 OFFCURVE",
"142 702 OFFCURVE",
"116 702 CURVE SMOOTH",
"91 702 OFFCURVE",
"79 690 OFFCURVE",
"79 669 CURVE SMOOTH",
"77 492 OFFCURVE",
"72 406 OFFCURVE",
"72 261 CURVE SMOOTH",
"72 127 OFFCURVE",
"131 2 OFFCURVE",
"302 2 CURVE SMOOTH",
"429 2 OFFCURVE",
"518 81 OFFCURVE",
"535 167 CURVE",
"516 167 LINE",
"516 108 OFFCURVE",
"516 70 OFFCURVE",
"516 38 CURVE SMOOTH",
"516 9 OFFCURVE",
"529 -2 OFFCURVE",
"555 -2 CURVE"
);
}
);
width = 667;
}
);
note = U;
unicode = 0055;
},
{
glyphname = V;
lastChange = "2018-03-11 12:00:17 +0000";
layers = (
{
anchors = (
{
name = bottom;
position = "{325, 0}";
},
{
name = top;
position = "{325, 700}";
}
);
layerId = "0B1DFD06-3317-40CA-B510-4969A0718C16";
paths = (
{
closed = 1;
nodes = (
"353 1 OFFCURVE",
"373 15 OFFCURVE",
"385 40 CURVE SMOOTH",
"400 71 OFFCURVE",
"414 104 OFFCURVE",
"493 383 CURVE SMOOTH",
"523 490 OFFCURVE",
"542 550 OFFCURVE",
"578 689 CURVE SMOOTH",
"580 698 OFFCURVE",
"570 704 OFFCURVE",
"561 704 CURVE SMOOTH",
"556 704 OFFCURVE",
"550 701 OFFCURVE",
"548 695 CURVE SMOOTH",
"511 554 OFFCURVE",
"494 498 OFFCURVE",
"461 382 CURVE SMOOTH",
"369 63 OFFCURVE",
"358 33 OFFCURVE",
"327 32 CURVE SMOOTH",
"297 32 OFFCURVE",
"281 63 OFFCURVE",
"183 382 CURVE SMOOTH",
"141 518 OFFCURVE",
"132 558 OFFCURVE",
"90 699 CURVE SMOOTH",
"88 704 OFFCURVE",
"81 707 OFFCURVE",
"76 707 CURVE SMOOTH",
"67 707 OFFCURVE",
"58 700 OFFCURVE",
"60 693 CURVE SMOOTH",
"99 553 OFFCURVE",
"117 498 OFFCURVE",
"153 379 CURVE SMOOTH",
"238 100 OFFCURVE",
"254 67 OFFCURVE",
"268 40 CURVE SMOOTH",
"282 13 OFFCURVE",
"302 1 OFFCURVE",
"326 1 CURVE SMOOTH"
);
}
);
width = 638;
},
{
anchors = (
{
name = bottom;
position = "{347, 0}";
},
{
name = top;
position = "{347, 700}";
}
);
layerId = "2F8C22CF-EC86-44F4-AF1A-A6C7F26A0C3C";
paths = (
{
closed = 1;
nodes = (
"396 -2 OFFCURVE",
"442 23 OFFCURVE",
"460 61 CURVE SMOOTH",
"475 93 OFFCURVE",
"524 250 OFFCURVE",
"557 365 CURVE SMOOTH",
"587 470 OFFCURVE",
"610 552 OFFCURVE",
"629 625 CURVE SMOOTH",
"641 674 OFFCURVE",
"608 709 OFFCURVE",
"552 709 CURVE SMOOTH",
"521 709 OFFCURVE",
"496 700 OFFCURVE",
"488 674 CURVE SMOOTH",
"459 573 OFFCURVE",
"445 519 OFFCURVE",
"415 393 CURVE SMOOTH",
"382 255 OFFCURVE",
"361 185 OFFCURVE",
"344 185 CURVE SMOOTH",
"328 185 OFFCURVE",
"307 259 OFFCURVE",
"270 393 CURVE SMOOTH",
"237 513 OFFCURVE",
"220 580 OFFCURVE",
"190 674 CURVE SMOOTH",
"182 699 OFFCURVE",
"163 709 OFFCURVE",
"131 709 CURVE SMOOTH",
"83 709 OFFCURVE",
"40 676 OFFCURVE",
"52 635 CURVE SMOOTH",
"79 545 OFFCURVE",
"102 463 OFFCURVE",
"131 364 CURVE SMOOTH",
"167 241 OFFCURVE",
"217 95 OFFCURVE",
"236 59 CURVE SMOOTH",
"255 22 OFFCURVE",
"299 -2 OFFCURVE",
"347 -2 CURVE SMOOTH"
);
}
);
width = 681;
},
{
anchors = (
{
name = bottom;
position = "{334, 0}";
},
{
name = top;
position = "{335, 700}";
}
);
layerId = "17B9D149-A542-49FB-8130-D430586D7342";
paths = (
{
closed = 1;
nodes = (
"370 0 OFFCURVE",
"401 18 OFFCURVE",
"415 48 CURVE SMOOTH",
"430 80 OFFCURVE",
"458 162 OFFCURVE",
"519 376 CURVE SMOOTH",
"549 482 OFFCURVE",
"569 551 OFFCURVE",
"599 663 CURVE SMOOTH",
"605 688 OFFCURVE",
"585 706 OFFCURVE",
"558 706 CURVE SMOOTH",
"542 706 OFFCURVE",
"529 701 OFFCURVE",
"524 687 CURVE SMOOTH",
"490 562 OFFCURVE",
"475 506 OFFCURVE",
"443 386 CURVE SMOOTH",
"374 140 OFFCURVE",
"359 94 OFFCURVE",
"334 93 CURVE SMOOTH",
"310 93 OFFCURVE",
"292 141 OFFCURVE",
"218 386 CURVE SMOOTH",
"180 516 OFFCURVE",
"167 567 OFFCURVE",
"130 689 CURVE SMOOTH",
"126 702 OFFCURVE",
"114 708 OFFCURVE",
"98 708 CURVE SMOOTH",
"74 708 OFFCURVE",
"51 690 OFFCURVE",
"57 670 CURVE SMOOTH",
"91 550 OFFCURVE",
"111 484 OFFCURVE",
"144 373 CURVE SMOOTH",
"210 156 OFFCURVE",
"239 78 OFFCURVE",
"255 48 CURVE SMOOTH",
"271 17 OFFCURVE",
"301 0 OFFCURVE",
"335 0 CURVE SMOOTH"
);
}
);
width = 662;
}
);
note = V;
unicode = 0056;
},
{
glyphname = W;
lastChange = "2018-03-11 12:39:37 +0000";
layers = (
{
anchors = (
{
name = bottom;
position = "{423, 0}";
},
{
name = top;
position = "{423, 700}";
}
);
layerId = "0B1DFD06-3317-40CA-B510-4969A0718C16";
paths = (
{
closed = 1;
nodes = (
"274 4 OFFCURVE",
"284 19 OFFCURVE",
"300 54 CURVE SMOOTH",
"349 161 OFFCURVE",
"423 352 OFFCURVE",
"429 352 CURVE SMOOTH",
"434 352 OFFCURVE",
"480 249 OFFCURVE",
"571 54 CURVE SMOOTH",
"587 20 OFFCURVE",
"595 5 OFFCURVE",
"618 5 CURVE SMOOTH",
"631 5 OFFCURVE",
"643 10 OFFCURVE",
"648 30 CURVE SMOOTH",
"674 137 OFFCURVE",
"701 287 OFFCURVE",
"724 393 CURVE SMOOTH",
"758 547 OFFCURVE",
"760 556 OFFCURVE",
"790 679 CURVE SMOOTH",
"793 692 OFFCURVE",
"788 701 OFFCURVE",
"777 701 CURVE SMOOTH",
"771 701 OFFCURVE",
"763 698 OFFCURVE",
"761 689 CURVE SMOOTH",
"741 604 OFFCURVE",
"705 450 OFFCURVE",
"694 399 CURVE SMOOTH",
"678 324 OFFCURVE",
"623 37 OFFCURVE",
"614 37 CURVE SMOOTH",
"608 37 OFFCURVE",
"537 197 OFFCURVE",
"499 278 CURVE SMOOTH",
"479 321 OFFCURVE",
"445 390 OFFCURVE",
"427 390 CURVE SMOOTH",
"408 390 OFFCURVE",
"379 314 OFFCURVE",
"364 278 CURVE SMOOTH",
"294 111 OFFCURVE",
"261 38 OFFCURVE",
"254 38 CURVE SMOOTH",
"240 38 OFFCURVE",
"192 287 OFFCURVE",
"164 399 CURVE SMOOTH",
"151 452 OFFCURVE",
"138 523 OFFCURVE",
"90 686 CURVE SMOOTH",
"86 700 OFFCURVE",
"81 703 OFFCURVE",
"72 702 CURVE SMOOTH",
"59 701 OFFCURVE",
"58 692 OFFCURVE",
"61 679 CURVE SMOOTH",
"109 494 OFFCURVE",
"120 454 OFFCURVE",
"133 393 CURVE SMOOTH",
"162 259 OFFCURVE",
"200 86 OFFCURVE",
"223 25 CURVE SMOOTH",
"227 13 OFFCURVE",
"235 4 OFFCURVE",
"252 4 CURVE SMOOTH"
);
}
);
width = 851;
},
{
anchors = (
{
name = bottom;
position = "{442, 0}";
},
{
name = top;
position = "{442, 700}";
}
);
layerId = "2F8C22CF-EC86-44F4-AF1A-A6C7F26A0C3C";
paths = (
{
closed = 1;
nodes = (
"332 0 OFFCURVE",
"367 22 OFFCURVE",
"392 74 CURVE SMOOTH",
"412 115 OFFCURVE",
"435 193 OFFCURVE",
"441 193 CURVE SMOOTH",
"448 193 OFFCURVE",
"480 112 OFFCURVE",
"501 73 CURVE SMOOTH",
"527 24 OFFCURVE",
"558 2 OFFCURVE",
"606 2 CURVE SMOOTH",
"655 2 OFFCURVE",
"686 25 OFFCURVE",
"694 64 CURVE SMOOTH",
"714 164 OFFCURVE",
"736 276 OFFCURVE",
"759 375 CURVE SMOOTH",
"794 525 OFFCURVE",
"798 545 OFFCURVE",
"819 622 CURVE SMOOTH",
"832 671 OFFCURVE",
"794 705 OFFCURVE",
"741 705 CURVE SMOOTH",
"704 705 OFFCURVE",
"681 689 OFFCURVE",
"674 659 CURVE SMOOTH",
"644 529 OFFCURVE",
"631 461 OFFCURVE",
"620 405 CURVE SMOOTH",
"604 324 OFFCURVE",
"588 203 OFFCURVE",
"580 203 CURVE SMOOTH",
"572 203 OFFCURVE",
"527 324 OFFCURVE",
"521 341 CURVE SMOOTH",
"498 403 OFFCURVE",
"479 445 OFFCURVE",
"438 445 CURVE SMOOTH",
"395 445 OFFCURVE",
"376 397 OFFCURVE",
"359 343 CURVE SMOOTH",
"354 326 OFFCURVE",
"313 201 OFFCURVE",
"306 201 CURVE SMOOTH",
"298 201 OFFCURVE",
"277 331 OFFCURVE",
"260 407 CURVE SMOOTH",
"238 508 OFFCURVE",
"203 632 OFFCURVE",
"195 660 CURVE SMOOTH",
"185 695 OFFCURVE",
"160 710 OFFCURVE",
"120 705 CURVE SMOOTH",
"69 699 OFFCURVE",
"39 667 OFFCURVE",
"53 618 CURVE SMOOTH",
"81 519 OFFCURVE",
"109 418 OFFCURVE",
"121 374 CURVE SMOOTH",
"164 214 OFFCURVE",
"177 143 OFFCURVE",
"198 58 CURVE SMOOTH",
"206 25 OFFCURVE",
"245 0 OFFCURVE",
"290 0 CURVE SMOOTH"
);
}
);
width = 872;
},
{
anchors = (
{
name = bottom;
position = "{442, 0}";
},
{
name = top;
position = "{442, 700}";
}
);
layerId = "17B9D149-A542-49FB-8130-D430586D7342";
paths = (
{
closed = 1;
nodes = (
"310 2 OFFCURVE",
"329 23 OFFCURVE",
"348 62 CURVE SMOOTH",
"379 125 OFFCURVE",
"438 288 OFFCURVE",
"445 288 CURVE SMOOTH",
"452 288 OFFCURVE",
"528 113 OFFCURVE",
"554 62 CURVE SMOOTH",
"572 26 OFFCURVE",
"588 4 OFFCURVE",
"625 4 CURVE SMOOTH",
"654 4 OFFCURVE",
"671 18 OFFCURVE",
"677 44 CURVE SMOOTH",
"707 174 OFFCURVE",
"724 273 OFFCURVE",
"749 386 CURVE SMOOTH",
"788 558 OFFCURVE",
"783 539 OFFCURVE",
"813 656 CURVE SMOOTH",
"820 684 OFFCURVE",
"801 703 OFFCURVE",
"774 703 CURVE SMOOTH",
"755 703 OFFCURVE",
"741 694 OFFCURVE",
"737 677 CURVE SMOOTH",
"700 516 OFFCURVE",
"682 435 OFFCURVE",
"675 401 CURVE SMOOTH",
"657 313 OFFCURVE",
"620 119 OFFCURVE",
"612 119 CURVE SMOOTH",
"604 119 OFFCURVE",
"535 271 OFFCURVE",
"520 303 CURVE SMOOTH",
"495 354 OFFCURVE",
"462 412 OFFCURVE",
"441 412 CURVE SMOOTH",
"420 412 OFFCURVE",
"394 355 OFFCURVE",
"372 304 CURVE SMOOTH",
"341 232 OFFCURVE",
"296 119 OFFCURVE",
"287 119 CURVE SMOOTH",
"276 119 OFFCURVE",
"238 299 OFFCURVE",
"213 402 CURVE SMOOTH",
"198 464 OFFCURVE",
"193 484 OFFCURVE",
"140 676 CURVE SMOOTH",
"134 698 OFFCURVE",
"121 706 OFFCURVE",
"99 703 CURVE SMOOTH",
"68 699 OFFCURVE",
"59 680 OFFCURVE",
"66 655 CURVE SMOOTH",
"86 586 OFFCURVE",
"116 480 OFFCURVE",
"139 385 CURVE SMOOTH",
"167 270 OFFCURVE",
"196 131 OFFCURVE",
"224 38 CURVE SMOOTH",
"231 15 OFFCURVE",
"253 2 OFFCURVE",
"278 2 CURVE SMOOTH"
);
}
);
width = 878;
}
);
note = W;
unicode = 0057;
},
{
glyphname = X;
lastChange = "2018-03-11 12:40:50 +0000";
layers = (
{
anchors = (
{
name = bottom;
position = "{329, 0}";
},
{
name = top;
position = "{329, 700}";
}
);
layerId = "0B1DFD06-3317-40CA-B510-4969A0718C16";
paths = (
{
closed = 1;
nodes = (
"82 3 OFFCURVE",
"87 5 OFFCURVE",
"92 11 CURVE SMOOTH",
"255 228 OFFCURVE",
"437 470 OFFCURVE",
"581 662 CURVE SMOOTH",
"588 671 OFFCURVE",
"589 675 OFFCURVE",
"589 679 CURVE SMOOTH",
"589 686 OFFCURVE",
"583 695 OFFCURVE",
"572 695 CURVE SMOOTH",
"566 695 OFFCURVE",
"561 691 OFFCURVE",
"552 679 CURVE SMOOTH",
"418 498 OFFCURVE",
"231 247 OFFCURVE",
"67 32 CURVE SMOOTH",
"62 26 OFFCURVE",
"60 24 OFFCURVE",
"60 18 CURVE SMOOTH",
"60 11 OFFCURVE",
"66 3 OFFCURVE",
"74 3 CURVE SMOOTH"
);
},
{
closed = 1;
nodes = (
"583 0 OFFCURVE",
"591 8 OFFCURVE",
"591 16 CURVE SMOOTH",
"591 19 OFFCURVE",
"590 21 OFFCURVE",
"588 24 CURVE SMOOTH",
"406 271 OFFCURVE",
"212 532 OFFCURVE",
"104 682 CURVE SMOOTH",
"95 694 OFFCURVE",
"89 697 OFFCURVE",
"84 697 CURVE SMOOTH",
"75 697 OFFCURVE",
"68 691 OFFCURVE",
"68 682 CURVE SMOOTH",
"68 679 OFFCURVE",
"69 675 OFFCURVE",
"72 671 CURVE SMOOTH",
"182 518 OFFCURVE",
"379 252 OFFCURVE",
"558 8 CURVE SMOOTH",
"562 3 OFFCURVE",
"568 0 OFFCURVE",
"574 0 CURVE SMOOTH"
);
}
);
width = 651;
},
{
anchors = (
{
name = bottom;
position = "{347, 0}";
},
{
name = top;
position = "{347, 700}";
}
);
layerId = "2F8C22CF-EC86-44F4-AF1A-A6C7F26A0C3C";
paths = (
{
closed = 1;
nodes = (
"162 -1 OFFCURVE",
"182 11 OFFCURVE",
"203 39 CURVE SMOOTH",
"318 193 OFFCURVE",
"455 374 OFFCURVE",
"620 596 CURVE SMOOTH",
"632 612 OFFCURVE",
"634 625 OFFCURVE",
"634 637 CURVE SMOOTH",
"634 664 OFFCURVE",
"594 701 OFFCURVE",
"548 701 CURVE SMOOTH",
"526 701 OFFCURVE",
"516 685 OFFCURVE",
"504 669 CURVE SMOOTH",
"372 492 OFFCURVE",
"235 316 OFFCURVE",
"74 109 CURVE SMOOTH",
"65 98 OFFCURVE",
"56 89 OFFCURVE",
"56 64 CURVE SMOOTH",
"56 32 OFFCURVE",
"88 -1 OFFCURVE",
"132 -1 CURVE SMOOTH"
);
},
{
closed = 1;
nodes = (
"581 -10 OFFCURVE",
"619 26 OFFCURVE",
"619 63 CURVE SMOOTH",
"619 75 OFFCURVE",
"605 96 OFFCURVE",
"595 109 CURVE SMOOTH",
"439 322 OFFCURVE",
"316 489 OFFCURVE",
"194 656 CURVE SMOOTH",
"179 676 OFFCURVE",
"164 701 OFFCURVE",
"134 701 CURVE SMOOTH",
"87 701 OFFCURVE",
"50 669 OFFCURVE",
"50 629 CURVE SMOOTH",
"50 618 OFFCURVE",
"54 609 OFFCURVE",
"64 596 CURVE SMOOTH",
"184 429 OFFCURVE",
"355 198 OFFCURVE",
"494 16 CURVE SMOOTH",
"505 1 OFFCURVE",
"515 -10 OFFCURVE",
"538 -10 CURVE SMOOTH"
);
}
);
width = 684;
},
{
anchors = (
{
name = bottom;
position = "{335, 0}";
},
{
name = top;
position = "{335, 700}";
}
);
layerId = "17B9D149-A542-49FB-8130-D430586D7342";
paths = (
{
closed = 1;
nodes = (
"113 1 OFFCURVE",
"124 7 OFFCURVE",
"135 22 CURVE SMOOTH",
"279 214 OFFCURVE",
"443 432 OFFCURVE",
"595 636 CURVE SMOOTH",
"604 647 OFFCURVE",
"606 655 OFFCURVE",
"606 662 CURVE SMOOTH",
"606 677 OFFCURVE",
"586 697 OFFCURVE",
"561 697 CURVE SMOOTH",
"549 697 OFFCURVE",
"542 689 OFFCURVE",
"532 675 CURVE SMOOTH",
"398 496 OFFCURVE",
"231 275 OFFCURVE",
"69 63 CURVE SMOOTH",
"62 55 OFFCURVE",
"57 50 OFFCURVE",
"57 36 CURVE SMOOTH",
"57 19 OFFCURVE",
"74 1 OFFCURVE",
"96 1 CURVE SMOOTH"
);
},
{
closed = 1;
nodes = (
"581 -4 OFFCURVE",
"601 15 OFFCURVE",
"601 35 CURVE SMOOTH",
"601 41 OFFCURVE",
"595 51 OFFCURVE",
"590 58 CURVE SMOOTH",
"418 291 OFFCURVE",
"252 515 OFFCURVE",
"139 672 CURVE SMOOTH",
"127 687 OFFCURVE",
"118 699 OFFCURVE",
"103 699 CURVE SMOOTH",
"79 699 OFFCURVE",
"60 682 OFFCURVE",
"60 661 CURVE SMOOTH",
"60 655 OFFCURVE",
"62 649 OFFCURVE",
"68 641 CURVE SMOOTH",
"182 482 OFFCURVE",
"368 230 OFFCURVE",
"531 11 CURVE SMOOTH",
"538 2 OFFCURVE",
"546 -4 OFFCURVE",
"558 -4 CURVE SMOOTH"
);
}
);
width = 664;
}
);
note = X;
unicode = 0058;
},
{
glyphname = Y;
lastChange = "2018-03-11 12:41:53 +0000";
layers = (
{
anchors = (
{
name = bottom;
position = "{305, 0}";
},
{
name = top;
position = "{305, 700}";
},
{
name = topleft;
position = "{113, 588}";
}
);
layerId = "0B1DFD06-3317-40CA-B510-4969A0718C16";
paths = (
{
closed = 1;
nodes = (
"318 5 OFFCURVE",
"322 12 OFFCURVE",
"322 24 CURVE SMOOTH",
"318 326 LINE",
"359 340 OFFCURVE",
"404 397 OFFCURVE",
"450 473 CURVE SMOOTH",
"490 540 OFFCURVE",
"506 576 OFFCURVE",
"547 675 CURVE SMOOTH",
"552 687 OFFCURVE",
"543 696 OFFCURVE",
"532 696 CURVE SMOOTH",
"524 696 OFFCURVE",
"522 691 OFFCURVE",
"517 679 CURVE SMOOTH",
"484 599 OFFCURVE",
"460 544 OFFCURVE",
"425 486 CURVE SMOOTH",
"375 403 OFFCURVE",
"331 358 OFFCURVE",
"304 358 CURVE SMOOTH",
"270 358 OFFCURVE",
"221 426 OFFCURVE",
"185 485 CURVE SMOOTH",
"148 546 OFFCURVE",
"118 607 OFFCURVE",
"94 675 CURVE SMOOTH",
"90 687 OFFCURVE",
"86 698 OFFCURVE",
"73 698 CURVE SMOOTH",
"62 698 OFFCURVE",
"57 689 OFFCURVE",
"61 679 CURVE SMOOTH",
"92 595 OFFCURVE",
"112 550 OFFCURVE",
"160 471 CURVE SMOOTH",
"213 384 OFFCURVE",
"247 342 OFFCURVE",
"287 326 CURVE",
"290 23 LINE SMOOTH",
"290 11 OFFCURVE",
"294 5 OFFCURVE",
"306 5 CURVE SMOOTH"
);
}
);
width = 608;
},
{
anchors = (
{
name = bottom;
position = "{334, 0}";
},
{
name = top;
position = "{334, 700}";
},
{
name = topleft;
position = "{146, 582}";
}
);
layerId = "2F8C22CF-EC86-44F4-AF1A-A6C7F26A0C3C";
paths = (
{
closed = 1;
nodes = (
"379 1 OFFCURVE",
"403 28 OFFCURVE",
"403 71 CURVE SMOOTH",
"400 332 LINE",
"418 332 OFFCURVE",
"482 381 OFFCURVE",
"515 432 CURVE SMOOTH",
"536 465 OFFCURVE",
"591 574 OFFCURVE",
"601 609 CURVE SMOOTH",
"616 660 OFFCURVE",
"580 700 OFFCURVE",
"523 700 CURVE SMOOTH",
"484 700 OFFCURVE",
"472 681 OFFCURVE",
"458 654 CURVE SMOOTH",
"437 614 OFFCURVE",
"405 552 OFFCURVE",
"380 505 CURVE SMOOTH",
"366 479 OFFCURVE",
"344 439 OFFCURVE",
"331 439 CURVE SMOOTH",
"318 439 OFFCURVE",
"294 477 OFFCURVE",
"277 505 CURVE SMOOTH",
"251 548 OFFCURVE",
"227 597 OFFCURVE",
"202 650 CURVE SMOOTH",
"185 686 OFFCURVE",
"165 702 OFFCURVE",
"133 702 CURVE SMOOTH",
"79 702 OFFCURVE",
"38 656 OFFCURVE",
"53 619 CURVE SMOOTH",
"79 554 OFFCURVE",
"117 478 OFFCURVE",
"142 442 CURVE SMOOTH",
"169 402 OFFCURVE",
"235 332 OFFCURVE",
"255 332 CURVE",
"258 68 LINE SMOOTH",
"258 28 OFFCURVE",
"283 1 OFFCURVE",
"331 1 CURVE SMOOTH"
);
}
);
width = 655;
},
{
anchors = (
{
name = bottom;
position = "{330, 0}";
},
{
name = top;
position = "{330, 700}";
},
{
name = topleft;
position = "{139, 590}";
}
);
layerId = "17B9D149-A542-49FB-8130-D430586D7342";
paths = (
{
closed = 1;
nodes = (
"356 3 OFFCURVE",
"368 18 OFFCURVE",
"368 43 CURVE SMOOTH",
"365 328 LINE",
"390 336 OFFCURVE",
"438 374 OFFCURVE",
"490 457 CURVE SMOOTH",
"524 512 OFFCURVE",
"550 570 OFFCURVE",
"582 649 CURVE SMOOTH",
"592 673 OFFCURVE",
"573 698 OFFCURVE",
"542 698 CURVE SMOOTH",
"527 698 OFFCURVE",
"517 692 OFFCURVE",
"507 669 CURVE SMOOTH",
"478 602 OFFCURVE",
"455 551 OFFCURVE",
"421 494 CURVE SMOOTH",
"386 435 OFFCURVE",
"351 390 OFFCURVE",
"328 390 CURVE SMOOTH",
"301 390 OFFCURVE",
"262 451 OFFCURVE",
"236 493 CURVE SMOOTH",
"195 560 OFFCURVE",
"185 583 OFFCURVE",
"151 665 CURVE SMOOTH",
"142 687 OFFCURVE",
"130 700 OFFCURVE",
"110 700 CURVE SMOOTH",
"85 700 OFFCURVE",
"63 678 OFFCURVE",
"72 655 CURVE SMOOTH",
"102 579 OFFCURVE",
"122 530 OFFCURVE",
"167 459 CURVE SMOOTH",
"214 385 OFFCURVE",
"254 340 OFFCURVE",
"288 328 CURVE",
"291 41 LINE SMOOTH",
"291 18 OFFCURVE",
"303 3 OFFCURVE",
"330 3 CURVE SMOOTH"
);
}
);
width = 655;
}
);
note = Y;
unicode = 0059;
},
{
glyphname = Z;
lastChange = "2018-03-11 12:42:13 +0000";
layers = (
{
anchors = (
{
name = bottom;
position = "{311, 0}";
},
{
name = top;
position = "{311, 700}";
}
);
layerId = "0B1DFD06-3317-40CA-B510-4969A0718C16";
paths = (
{
closed = 1;
nodes = (
"567 17 OFFCURVE",
"571 26 OFFCURVE",
"571 33 CURVE SMOOTH",
"571 38 OFFCURVE",
"569 46 OFFCURVE",
"559 47 CURVE SMOOTH",
"474 58 OFFCURVE",
"410 61 OFFCURVE",
"326 61 CURVE SMOOTH",
"217 61 OFFCURVE",
"114 56 OFFCURVE",
"67 54 CURVE",
"92 97 OFFCURVE",
"207 212 OFFCURVE",
"349 360 CURVE SMOOTH",
"488 505 OFFCURVE",
"587 614 OFFCURVE",
"603 651 CURVE SMOOTH",
"608 663 OFFCURVE",
"608 676 OFFCURVE",
"598 685 CURVE SMOOTH",
"591 691 OFFCURVE",
"579 695 OFFCURVE",
"569 694 CURVE SMOOTH",
"466 685 OFFCURVE",
"405 679 OFFCURVE",
"323 679 CURVE SMOOTH",
"228 679 OFFCURVE",
"193 687 OFFCURVE",
"97 698 CURVE SMOOTH",
"82 700 OFFCURVE",
"71 697 OFFCURVE",
"71 685 CURVE SMOOTH",
"71 675 OFFCURVE",
"77 671 OFFCURVE",
"89 669 CURVE SMOOTH",
"186 653 OFFCURVE",
"257 648 OFFCURVE",
"342 648 CURVE SMOOTH",
"380 648 OFFCURVE",
"445 649 OFFCURVE",
"573 662 CURVE",
"531 604 OFFCURVE",
"520 591 OFFCURVE",
"320 376 CURVE SMOOTH",
"194 240 OFFCURVE",
"74 131 OFFCURVE",
"39 67 CURVE SMOOTH",
"35 60 OFFCURVE",
"30 49 OFFCURVE",
"30 40 CURVE SMOOTH",
"30 22 OFFCURVE",
"47 23 OFFCURVE",
"112 26 CURVE SMOOTH",
"173 29 OFFCURVE",
"242 31 OFFCURVE",
"314 31 CURVE SMOOTH",
"403 31 OFFCURVE",
"443 28 OFFCURVE",
"554 19 CURVE"
);
}
);
width = 636;
},
{
anchors = (
{
name = bottom;
position = "{352, 0}";
},
{
name = top;
position = "{352, 700}";
}
);
layerId = "2F8C22CF-EC86-44F4-AF1A-A6C7F26A0C3C";
paths = (
{
closed = 1;
nodes = (
"606 8 OFFCURVE",
"641 35 OFFCURVE",
"641 79 CURVE SMOOTH",
"641 114 OFFCURVE",
"618 136 OFFCURVE",
"577 141 CURVE SMOOTH",
"502 150 OFFCURVE",
"473 153 OFFCURVE",
"403 153 CURVE SMOOTH",
"345 153 OFFCURVE",
"317 151 OFFCURVE",
"244 146 CURVE",
"329 228 OFFCURVE",
"343 242 OFFCURVE",
"451 353 CURVE SMOOTH",
"559 464 OFFCURVE",
"642 545 OFFCURVE",
"662 588 CURVE SMOOTH",
"678 622 OFFCURVE",
"670 659 OFFCURVE",
"639 680 CURVE SMOOTH",
"619 694 OFFCURVE",
"587 701 OFFCURVE",
"563 699 CURVE SMOOTH",
"454 690 OFFCURVE",
"420 687 OFFCURVE",
"362 687 CURVE SMOOTH",
"273 687 OFFCURVE",
"230 694 OFFCURVE",
"153 703 CURVE SMOOTH",
"101 709 OFFCURVE",
"74 683 OFFCURVE",
"72 645 CURVE SMOOTH",
"70 612 OFFCURVE",
"87 587 OFFCURVE",
"140 575 CURVE SMOOTH",
"184 565 OFFCURVE",
"279 557 OFFCURVE",
"351 557 CURVE SMOOTH",
"402 557 OFFCURVE",
"440 561 OFFCURVE",
"479 564 CURVE",
"444 529 OFFCURVE",
"465 546 OFFCURVE",
"326 405 CURVE SMOOTH",
"212 290 OFFCURVE",
"96 171 OFFCURVE",
"69 138 CURVE SMOOTH",
"52 117 OFFCURVE",
"40 95 OFFCURVE",
"40 73 CURVE SMOOTH",
"40 17 OFFCURVE",
"114 18 OFFCURVE",
"169 20 CURVE SMOOTH",
"276 23 OFFCURVE",
"263 25 OFFCURVE",
"341 25 CURVE SMOOTH",
"436 25 OFFCURVE",
"471 22 OFFCURVE",
"568 14 CURVE"
);
}
);
width = 710;
},
{
anchors = (
{
name = bottom;
position = "{336, 0}";
},
{
name = top;
position = "{336, 700}";
}
);
layerId = "17B9D149-A542-49FB-8130-D430586D7342";
paths = (
{
closed = 1;
nodes = (
"591 13 OFFCURVE",
"608 30 OFFCURVE",
"608 51 CURVE SMOOTH",
"608 69 OFFCURVE",
"597 82 OFFCURVE",
"575 85 CURVE SMOOTH",
"494 95 OFFCURVE",
"444 98 OFFCURVE",
"366 98 CURVE SMOOTH",
"277 98 OFFCURVE",
"204 94 OFFCURVE",
"147 91 CURVE",
"187 143 OFFCURVE",
"344 300 OFFCURVE",
"399 357 CURVE SMOOTH",
"599 564 OFFCURVE",
"628 609 OFFCURVE",
"635 626 CURVE SMOOTH",
"646 653 OFFCURVE",
"640 671 OFFCURVE",
"623 683 CURVE SMOOTH",
"609 693 OFFCURVE",
"588 697 OFFCURVE",
"575 696 CURVE SMOOTH",
"456 686 OFFCURVE",
"417 682 OFFCURVE",
"351 682 CURVE SMOOTH",
"258 682 OFFCURVE",
"210 690 OFFCURVE",
"128 700 CURVE SMOOTH",
"96 704 OFFCURVE",
"81 690 OFFCURVE",
"80 669 CURVE SMOOTH",
"79 650 OFFCURVE",
"89 638 OFFCURVE",
"118 631 CURVE SMOOTH",
"166 620 OFFCURVE",
"283 612 OFFCURVE",
"358 612 CURVE SMOOTH",
"396 612 OFFCURVE",
"452 614 OFFCURVE",
"544 623 CURVE",
"507 574 OFFCURVE",
"480 545 OFFCURVE",
"331 388 CURVE SMOOTH",
"186 235 OFFCURVE",
"101 157 OFFCURVE",
"60 95 CURVE SMOOTH",
"50 80 OFFCURVE",
"43 68 OFFCURVE",
"43 53 CURVE SMOOTH",
"43 21 OFFCURVE",
"78 21 OFFCURVE",
"144 24 CURVE SMOOTH",
"200 26 OFFCURVE",
"260 29 OFFCURVE",
"333 29 CURVE SMOOTH",
"428 29 OFFCURVE",
"479 24 OFFCURVE",
"568 17 CURVE"
);
}
);
width = 673;
}
);
note = Z;
unicode = 005A;
},
{
glyphname = a;
lastChange = "2018-03-11 15:21:26 +0000";
layers = (
{
anchors = (
{
name = bottom;
position = "{298, 0}";
},
{
name = ogonek;
position = "{520, 10}";
},
{
name = top;
position = "{298, 500}";
}
);
layerId = "0B1DFD06-3317-40CA-B510-4969A0718C16";
paths = (
{
closed = 1;
nodes = (
"364 -7 OFFCURVE",
"424 36 OFFCURVE",
"448 98 CURVE",
"435 98 LINE",
"447 27 OFFCURVE",
"461 3 OFFCURVE",
"522 3 CURVE SMOOTH",
"532 3 OFFCURVE",
"537 8 OFFCURVE",
"537 19 CURVE SMOOTH",
"537 32 OFFCURVE",
"529 33 OFFCURVE",
"518 34 CURVE SMOOTH",
"472 37 OFFCURVE",
"468 63 OFFCURVE",
"468 167 CURVE SMOOTH",
"468 219 OFFCURVE",
"466 283 OFFCURVE",
"472 359 CURVE SMOOTH",
"477 422 OFFCURVE",
"479 433 OFFCURVE",
"486 470 CURVE SMOOTH",
"488 478 OFFCURVE",
"479 485 OFFCURVE",
"467 485 CURVE SMOOTH",
"456 485 OFFCURVE",
"454 479 OFFCURVE",
"452 467 CURVE SMOOTH",
"440 380 LINE",
"449 380 LINE",
"416 452 OFFCURVE",
"364 491 OFFCURVE",
"274 491 CURVE SMOOTH",
"115 491 OFFCURVE",
"50 352 OFFCURVE",
"50 236 CURVE SMOOTH",
"50 152 OFFCURVE",
"84 -7 OFFCURVE",
"270 -7 CURVE SMOOTH"
);
},
{
closed = 1;
nodes = (
"109 25 OFFCURVE",
"81 168 OFFCURVE",
"81 236 CURVE SMOOTH",
"81 313 OFFCURVE",
"127 460 OFFCURVE",
"274 460 CURVE SMOOTH",
"321 460 OFFCURVE",
"437 433 OFFCURVE",
"437 285 CURVE SMOOTH",
"437 244 OFFCURVE",
"437 219 OFFCURVE",
"436 168 CURVE SMOOTH",
"434 69 OFFCURVE",
"352 25 OFFCURVE",
"265 25 CURVE SMOOTH"
);
}
);
width = 607;
},
{
anchors = (
{
name = bottom;
position = "{287, 0}";
},
{
name = ogonek;
position = "{519, 26}";
},
{
name = top;
position = "{287, 500}";
}
);
layerId = "2F8C22CF-EC86-44F4-AF1A-A6C7F26A0C3C";
paths = (
{
closed = 1;
nodes = (
"346 -11 OFFCURVE",
"413 7 OFFCURVE",
"437 86 CURVE",
"397 86 LINE",
"435 18 OFFCURVE",
"455 0 OFFCURVE",
"528 0 CURVE SMOOTH",
"557 0 OFFCURVE",
"574 27 OFFCURVE",
"574 58 CURVE SMOOTH",
"574 98 OFFCURVE",
"556 108 OFFCURVE",
"534 111 CURVE SMOOTH",
"506 115 OFFCURVE",
"507 148 OFFCURVE",
"507 180 CURVE SMOOTH",
"507 227 OFFCURVE",
"506 263 OFFCURVE",
"510 319 CURVE SMOOTH",
"513 358 OFFCURVE",
"517 392 OFFCURVE",
"527 433 CURVE SMOOTH",
"534 463 OFFCURVE",
"503 490 OFFCURVE",
"452 490 CURVE SMOOTH",
"402 490 OFFCURVE",
"389 452 OFFCURVE",
"389 424 CURVE SMOOTH",
"389 399 LINE",
"420 399 LINE",
"416 444 OFFCURVE",
"355 495 OFFCURVE",
"285 495 CURVE SMOOTH",
"140 495 OFFCURVE",
"40 388 OFFCURVE",
"40 235 CURVE SMOOTH",
"40 84 OFFCURVE",
"117 -11 OFFCURVE",
"271 -11 CURVE SMOOTH"
);
},
{
closed = 1;
nodes = (
"222 100 OFFCURVE",
"185 153 OFFCURVE",
"185 236 CURVE SMOOTH",
"185 322 OFFCURVE",
"228 384 OFFCURVE",
"288 384 CURVE SMOOTH",
"334 384 OFFCURVE",
"368 353 OFFCURVE",
"368 307 CURVE SMOOTH",
"368 264 OFFCURVE",
"368 221 OFFCURVE",
"367 180 CURVE SMOOTH",
"366 128 OFFCURVE",
"335 100 OFFCURVE",
"281 100 CURVE SMOOTH"
);
}
);
width = 614;
},
{
anchors = (
{
name = bottom;
position = "{306, 0}";
},
{
name = ogonek;
position = "{533, 18}";
},
{
name = top;
position = "{306, 500}";
}
);
layerId = "17B9D149-A542-49FB-8130-D430586D7342";
paths = (
{
closed = 1;
nodes = (
"369 -9 OFFCURVE",
"432 24 OFFCURVE",
"456 93 CURVE",
"432 93 LINE",
"454 23 OFFCURVE",
"471 2 OFFCURVE",
"536 2 CURVE SMOOTH",
"554 2 OFFCURVE",
"564 16 OFFCURVE",
"564 35 CURVE SMOOTH",
"564 58 OFFCURVE",
"552 63 OFFCURVE",
"536 65 CURVE SMOOTH",
"498 68 OFFCURVE",
"496 97 OFFCURVE",
"496 172 CURVE SMOOTH",
"496 222 OFFCURVE",
"494 275 OFFCURVE",
"499 343 CURVE SMOOTH",
"503 396 OFFCURVE",
"506 417 OFFCURVE",
"514 455 CURVE SMOOTH",
"518 472 OFFCURVE",
"501 487 OFFCURVE",
"473 487 CURVE SMOOTH",
"446 487 OFFCURVE",
"440 468 OFFCURVE",
"439 450 CURVE SMOOTH",
"432 388 LINE",
"449 388 LINE",
"428 449 OFFCURVE",
"372 493 OFFCURVE",
"290 493 CURVE SMOOTH",
"137 493 OFFCURVE",
"58 366 OFFCURVE",
"58 236 CURVE SMOOTH",
"58 125 OFFCURVE",
"109 -9 OFFCURVE",
"282 -9 CURVE SMOOTH"
);
},
{
closed = 1;
nodes = (
"166 55 OFFCURVE",
"135 162 OFFCURVE",
"135 236 CURVE SMOOTH",
"135 317 OFFCURVE",
"179 430 OFFCURVE",
"292 430 CURVE SMOOTH",
"338 430 OFFCURVE",
"421 401 OFFCURVE",
"421 294 CURVE SMOOTH",
"421 252 OFFCURVE",
"421 220 OFFCURVE",
"420 173 CURVE SMOOTH",
"419 93 OFFCURVE",
"357 55 OFFCURVE",
"283 55 CURVE SMOOTH"
);
}
);
width = 623;
}
);
note = a;
unicode = 0061;
},
{
glyphname = b;
lastChange = "2018-03-11 15:21:30 +0000";
layers = (
{
anchors = (
{
name = bottom;
position = "{357, 0}";
},
{
name = top;
position = "{357, 500}";
}
);
layerId = "0B1DFD06-3317-40CA-B510-4969A0718C16";
paths = (
{
closed = 1;
nodes = (
"448 -5 OFFCURVE",
"599 41 OFFCURVE",
"599 242 CURVE SMOOTH",
"599 402 OFFCURVE",
"504 500 OFFCURVE",
"350 500 CURVE SMOOTH",
"250 500 OFFCURVE",
"183 459 OFFCURVE",
"143 412 CURVE",
"147 412 LINE",
"140 610 OFFCURVE",
"138 757 OFFCURVE",
"135 856 CURVE SMOOTH",
"135 864 OFFCURVE",
"131 871 OFFCURVE",
"119 871 CURVE SMOOTH",
"107 871 OFFCURVE",
"101 865 OFFCURVE",
"102 854 CURVE SMOOTH",
"105 817 OFFCURVE",
"105 757 OFFCURVE",
"116 390 CURVE SMOOTH",
"123 141 OFFCURVE",
"126 112 OFFCURVE",
"115 84 CURVE SMOOTH",
"96 35 OFFCURVE",
"87 48 OFFCURVE",
"75 37 CURVE SMOOTH",
"71 34 OFFCURVE",
"70 30 OFFCURVE",
"70 27 CURVE SMOOTH",
"70 22 OFFCURVE",
"74 11 OFFCURVE",
"86 11 CURVE SMOOTH",
"89 11 OFFCURVE",
"91 12 OFFCURVE",
"93 13 CURVE SMOOTH",
"123 28 OFFCURVE",
"145 58 OFFCURVE",
"147 96 CURVE",
"165 57 OFFCURVE",
"240 -5 OFFCURVE",
"356 -5 CURVE"
);
},
{
closed = 1;
nodes = (
"249 26 OFFCURVE",
"155 92 OFFCURVE",
"154 170 CURVE",
"154 182 OFFCURVE",
"151 228 OFFCURVE",
"150 273 CURVE SMOOTH",
"149 316 OFFCURVE",
"150 347 OFFCURVE",
"150 370 CURVE",
"192 426 OFFCURVE",
"260 469 OFFCURVE",
"352 469 CURVE SMOOTH",
"476 469 OFFCURVE",
"568 392 OFFCURVE",
"568 243 CURVE SMOOTH",
"568 70 OFFCURVE",
"443 26 OFFCURVE",
"356 26 CURVE SMOOTH"
);
}
);
width = 649;
},
{
anchors = (
{
name = bottom;
position = "{334, 0}";
},
{
name = top;
position = "{334, 500}";
}
);
layerId = "2F8C22CF-EC86-44F4-AF1A-A6C7F26A0C3C";
paths = (
{
closed = 1;
nodes = (
"486 -1 OFFCURVE",
"596 102 OFFCURVE",
"596 257 CURVE SMOOTH",
"596 416 OFFCURVE",
"480 514 OFFCURVE",
"341 514 CURVE SMOOTH",
"248 514 OFFCURVE",
"196 470 OFFCURVE",
"192 438 CURVE",
"214 438 LINE",
"210 609 OFFCURVE",
"210 726 OFFCURVE",
"207 819 CURVE SMOOTH",
"206 852 OFFCURVE",
"174 871 OFFCURVE",
"137 871 CURVE SMOOTH",
"98 871 OFFCURVE",
"63 850 OFFCURVE",
"63 812 CURVE SMOOTH",
"63 659 OFFCURVE",
"68 404 OFFCURVE",
"68 377 CURVE SMOOTH",
"71 189 OFFCURVE",
"72 141 OFFCURVE",
"65 127 CURVE SMOOTH",
"62 121 OFFCURVE",
"57 117 OFFCURVE",
"47 107 CURVE SMOOTH",
"35 95 OFFCURVE",
"30 85 OFFCURVE",
"30 72 CURVE SMOOTH",
"30 40 OFFCURVE",
"59 9 OFFCURVE",
"94 9 CURVE SMOOTH",
"100 9 OFFCURVE",
"113 10 OFFCURVE",
"125 16 CURVE SMOOTH",
"135 21 OFFCURVE",
"160 37 OFFCURVE",
"178 59 CURVE",
"201 32 OFFCURVE",
"274 0 OFFCURVE",
"333 -1 CURVE"
);
},
{
closed = 1;
nodes = (
"275 111 OFFCURVE",
"219 151 OFFCURVE",
"218 193 CURVE",
"216 235 OFFCURVE",
"215 261 OFFCURVE",
"215 279 CURVE SMOOTH",
"215 303 OFFCURVE",
"215 312 OFFCURVE",
"215 348 CURVE",
"229 368 OFFCURVE",
"267 403 OFFCURVE",
"327 403 CURVE SMOOTH",
"401 403 OFFCURVE",
"451 351 OFFCURVE",
"451 260 CURVE SMOOTH",
"451 169 OFFCURVE",
"401 111 OFFCURVE",
"332 111 CURVE SMOOTH"
);
}
);
width = 636;
},
{
anchors = (
{
name = bottom;
position = "{318, 0}";
},
{
name = top;
position = "{318, 500}";
}
);
layerId = "17B9D149-A542-49FB-8130-D430586D7342";
paths = (
{
closed = 1;
nodes = (
"440 -3 OFFCURVE",
"575 66 OFFCURVE",
"575 248 CURVE SMOOTH",
"575 408 OFFCURVE",
"471 506 OFFCURVE",
"324 506 CURVE SMOOTH",
"223 506 OFFCURVE",
"163 460 OFFCURVE",
"140 422 CURVE",
"151 422 LINE",
"148 606 OFFCURVE",
"148 683 OFFCURVE",
"140 841 CURVE SMOOTH",
"139 860 OFFCURVE",
"123 871 OFFCURVE",
"102 871 CURVE SMOOTH",
"80 871 OFFCURVE",
"63 859 OFFCURVE",
"64 839 CURVE SMOOTH",
"70 722 OFFCURVE",
"71 579 OFFCURVE",
"74 385 CURVE SMOOTH",
"77 177 OFFCURVE",
"84 136 OFFCURVE",
"72 101 CURVE SMOOTH",
"63 74 OFFCURVE",
"51 74 OFFCURVE",
"41 65 CURVE SMOOTH",
"34 59 OFFCURVE",
"31 50 OFFCURVE",
"31 44 CURVE SMOOTH",
"31 30 OFFCURVE",
"45 10 OFFCURVE",
"66 10 CURVE SMOOTH",
"71 10 OFFCURVE",
"77 11 OFFCURVE",
"83 14 CURVE SMOOTH",
"101 22 OFFCURVE",
"129 49 OFFCURVE",
"137 81 CURVE",
"157 47 OFFCURVE",
"231 -3 OFFCURVE",
"324 -3 CURVE"
);
},
{
closed = 1;
nodes = (
"237 60 OFFCURVE",
"158 116 OFFCURVE",
"157 179 CURVE",
"157 204 OFFCURVE",
"154 237 OFFCURVE",
"154 275 CURVE SMOOTH",
"154 299 OFFCURVE",
"154 323 OFFCURVE",
"154 351 CURVE",
"178 391 OFFCURVE",
"238 443 OFFCURVE",
"319 443 CURVE SMOOTH",
"422 443 OFFCURVE",
"498 377 OFFCURVE",
"498 250 CURVE SMOOTH",
"498 109 OFFCURVE",
"403 60 OFFCURVE",
"323 60 CURVE SMOOTH"
);
}
);
width = 637;
}
);
note = b;
unicode = 0062;
},
{
glyphname = c;
lastChange = "2018-03-11 15:54:38 +0000";
layers = (
{
anchors = (
{
name = bottom;
position = "{278, 0}";
},
{
name = top;
position = "{278, 500}";
}
);
layerId = "0B1DFD06-3317-40CA-B510-4969A0718C16";
paths = (
{
closed = 1;
nodes = (
"463 2 OFFCURVE",
"520 119 OFFCURVE",
"522 183 CURVE SMOOTH",
"523 202 OFFCURVE",
"515 205 OFFCURVE",
"507 205 CURVE SMOOTH",
"497 205 OFFCURVE",
"491 199 OFFCURVE",
"491 188 CURVE SMOOTH",
"491 139 OFFCURVE",
"438 33 OFFCURVE",
"293 33 CURVE SMOOTH",
"148 33 OFFCURVE",
"81 136 OFFCURVE",
"81 243 CURVE SMOOTH",
"81 357 OFFCURVE",
"157 481 OFFCURVE",
"301 481 CURVE SMOOTH",
"402 481 OFFCURVE",
"462 417 OFFCURVE",
"477 366 CURVE SMOOTH",
"481 354 OFFCURVE",
"489 350 OFFCURVE",
"498 352 CURVE SMOOTH",
"507 354 OFFCURVE",
"511 360 OFFCURVE",
"508 371 CURVE SMOOTH",
"495 420 OFFCURVE",
"430 512 OFFCURVE",
"295 512 CURVE SMOOTH",
"125 512 OFFCURVE",
"50 366 OFFCURVE",
"50 241 CURVE SMOOTH",
"50 122 OFFCURVE",
"121 2 OFFCURVE",
"291 2 CURVE SMOOTH"
);
}
);
width = 572;
},
{
anchors = (
{
name = bottom;
position = "{301, 0}";
},
{
name = top;
position = "{301, 500}";
}
);
layerId = "2F8C22CF-EC86-44F4-AF1A-A6C7F26A0C3C";
paths = (
{
closed = 1;
nodes = (
"494 0 OFFCURVE",
"558 105 OFFCURVE",
"558 196 CURVE SMOOTH",
"558 242 OFFCURVE",
"532 255 OFFCURVE",
"489 255 CURVE SMOOTH",
"450 255 OFFCURVE",
"428 232 OFFCURVE",
"428 212 CURVE SMOOTH",
"428 165 OFFCURVE",
"398 110 OFFCURVE",
"312 110 CURVE SMOOTH",
"227 110 OFFCURVE",
"185 162 OFFCURVE",
"185 244 CURVE SMOOTH",
"185 336 OFFCURVE",
"238 404 OFFCURVE",
"313 404 CURVE SMOOTH",
"364 404 OFFCURVE",
"394 373 OFFCURVE",
"415 340 CURVE SMOOTH",
"436 307 OFFCURVE",
"452 286 OFFCURVE",
"499 298 CURVE SMOOTH",
"547 310 OFFCURVE",
"552 336 OFFCURVE",
"537 375 CURVE SMOOTH",
"505 456 OFFCURVE",
"415 515 OFFCURVE",
"305 515 CURVE SMOOTH",
"151 515 OFFCURVE",
"40 398 OFFCURVE",
"40 246 CURVE SMOOTH",
"40 97 OFFCURVE",
"147 -2 OFFCURVE",
"298 -1 CURVE SMOOTH"
);
}
);
width = 598;
},
{
anchors = (
{
name = bottom;
position = "{310, 0}";
},
{
name = top;
position = "{310, 500}";
}
);
layerId = "17B9D149-A542-49FB-8130-D430586D7342";
paths = (
{
closed = 1;
nodes = (
"463 1 OFFCURVE",
"542 108 OFFCURVE",
"544 190 CURVE SMOOTH",
"545 218 OFFCURVE",
"528 225 OFFCURVE",
"506 225 CURVE SMOOTH",
"486 225 OFFCURVE",
"476 215 OFFCURVE",
"476 201 CURVE SMOOTH",
"472 142 OFFCURVE",
"421 64 OFFCURVE",
"306 64 CURVE SMOOTH",
"189 64 OFFCURVE",
"130 146 OFFCURVE",
"130 244 CURVE SMOOTH",
"130 349 OFFCURVE",
"198 450 OFFCURVE",
"313 450 CURVE SMOOTH",
"392 450 OFFCURVE",
"442 402 OFFCURVE",
"460 356 CURVE SMOOTH",
"471 334 OFFCURVE",
"484 325 OFFCURVE",
"506 330 CURVE SMOOTH",
"529 336 OFFCURVE",
"537 352 OFFCURVE",
"527 373 CURVE SMOOTH",
"500 439 OFFCURVE",
"433 513 OFFCURVE",
"308 513 CURVE SMOOTH",
"143 513 OFFCURVE",
"54 380 OFFCURVE",
"54 242 CURVE SMOOTH",
"54 112 OFFCURVE",
"139 1 OFFCURVE",
"304 1 CURVE SMOOTH"
);
}
);
width = 588;
}
);
note = c;
unicode = 0063;
},
{
glyphname = d;
lastChange = "2018-03-11 16:22:02 +0000";
layers = (
{
anchors = (
{
name = bottom;
position = "{300, 0}";
},
{
name = center;
position = "{300, 250}";
},
{
name = top;
position = "{535, 834}";
},
{
name = topright;
position = "{528, 700}";
}
);
layerId = "0B1DFD06-3317-40CA-B510-4969A0718C16";
paths = (
{
closed = 1;
nodes = (
"386 -7 OFFCURVE",
"471 37 OFFCURVE",
"505 99 CURVE",
"512 50 OFFCURVE",
"526 24 OFFCURVE",
"558 11 CURVE SMOOTH",
"563 9 OFFCURVE",
"571 6 OFFCURVE",
"577 16 CURVE SMOOTH",
"581 22 OFFCURVE",
"580 31 OFFCURVE",
"577 33 CURVE SMOOTH",
"571 37 OFFCURVE",
"549 48 OFFCURVE",
"539 84 CURVE SMOOTH",
"527 126 OFFCURVE",
"530 236 OFFCURVE",
"533 390 CURVE SMOOTH",
"539 705 OFFCURVE",
"536 672 OFFCURVE",
"551 856 CURVE SMOOTH",
"552 866 OFFCURVE",
"545 871 OFFCURVE",
"535 871 CURVE SMOOTH",
"524 871 OFFCURVE",
"520 865 OFFCURVE",
"519 854 CURVE SMOOTH",
"506 710 OFFCURVE",
"504 605 OFFCURVE",
"502 412 CURVE",
"509 412 LINE",
"489 449 OFFCURVE",
"417 501 OFFCURVE",
"303 501 CURVE SMOOTH",
"150 501 OFFCURVE",
"50 408 OFFCURVE",
"50 246 CURVE SMOOTH",
"50 61 OFFCURVE",
"179 -7 OFFCURVE",
"297 -7 CURVE"
);
},
{
closed = 1;
nodes = (
"208 24 OFFCURVE",
"81 79 OFFCURVE",
"81 245 CURVE SMOOTH",
"81 387 OFFCURVE",
"173 470 OFFCURVE",
"303 470 CURVE SMOOTH",
"413 470 OFFCURVE",
"486 410 OFFCURVE",
"501 376 CURVE",
"501 337 OFFCURVE",
"499 218 OFFCURVE",
"499 190 CURVE SMOOTH",
"498 92 OFFCURVE",
"397 24 OFFCURVE",
"297 24 CURVE SMOOTH"
);
}
);
width = 650;
},
{
anchors = (
{
name = bottom;
position = "{312, 0}";
},
{
name = center;
position = "{312, 267}";
},
{
name = top;
position = "{510, 828}";
},
{
name = topright;
position = "{508, 700}";
}
);
layerId = "2F8C22CF-EC86-44F4-AF1A-A6C7F26A0C3C";
paths = (
{
closed = 1;
nodes = (
"369 0 OFFCURVE",
"410 18 OFFCURVE",
"440 56 CURVE",
"452 27 OFFCURVE",
"468 12 OFFCURVE",
"484 0 CURVE SMOOTH",
"500 -12 OFFCURVE",
"540 -22 OFFCURVE",
"571 1 CURVE SMOOTH",
"600 22 OFFCURVE",
"611 52 OFFCURVE",
"597 74 CURVE SMOOTH",
"583 95 OFFCURVE",
"575 109 OFFCURVE",
"571 125 CURVE SMOOTH",
"566 146 OFFCURVE",
"565 195 OFFCURVE",
"568 378 CURVE SMOOTH",
"572 639 OFFCURVE",
"575 716 OFFCURVE",
"583 786 CURVE SMOOTH",
"587 822 OFFCURVE",
"553 847 OFFCURVE",
"510 847 CURVE SMOOTH",
"471 847 OFFCURVE",
"442 826 OFFCURVE",
"439 794 CURVE SMOOTH",
"432 715 OFFCURVE",
"423 469 OFFCURVE",
"423 409 CURVE",
"471 409 LINE",
"470 457 OFFCURVE",
"420 515 OFFCURVE",
"305 515 CURVE SMOOTH",
"145 515 OFFCURVE",
"40 419 OFFCURVE",
"40 260 CURVE SMOOTH",
"40 99 OFFCURVE",
"150 0 OFFCURVE",
"309 0 CURVE SMOOTH"
);
},
{
closed = 1;
nodes = (
"239 114 OFFCURVE",
"185 168 OFFCURVE",
"185 258 CURVE SMOOTH",
"185 352 OFFCURVE",
"231 404 OFFCURVE",
"312 404 CURVE SMOOTH",
"355 404 OFFCURVE",
"409 381 OFFCURVE",
"423 363 CURVE",
"423 307 OFFCURVE",
"424 266 OFFCURVE",
"423 211 CURVE SMOOTH",
"422 157 OFFCURVE",
"372 114 OFFCURVE",
"310 114 CURVE SMOOTH"
);
}
);
width = 633;
},
{
anchors = (
{
name = bottom;
position = "{316, 0}";
},
{
name = center;
position = "{316, 257}";
},
{
name = top;
position = "{536, 843}";
},
{
name = topright;
position = "{531, 700}";
}
);
layerId = "17B9D149-A542-49FB-8130-D430586D7342";
paths = (
{
closed = 1;
nodes = (
"390 -4 OFFCURVE",
"457 29 OFFCURVE",
"490 82 CURVE",
"498 32 OFFCURVE",
"525 11 OFFCURVE",
"538 4 CURVE SMOOTH",
"549 -3 OFFCURVE",
"569 -5 OFFCURVE",
"585 10 CURVE SMOOTH",
"599 22 OFFCURVE",
"603 39 OFFCURVE",
"596 49 CURVE SMOOTH",
"585 61 OFFCURVE",
"570 73 OFFCURVE",
"563 100 CURVE SMOOTH",
"553 134 OFFCURVE",
"555 219 OFFCURVE",
"558 385 CURVE SMOOTH",
"562 619 OFFCURVE",
"564 726 OFFCURVE",
"575 840 CURVE SMOOTH",
"577 860 OFFCURVE",
"559 874 OFFCURVE",
"536 874 CURVE SMOOTH",
"514 874 OFFCURVE",
"500 861 OFFCURVE",
"498 842 CURVE SMOOTH",
"487 724 OFFCURVE",
"482 551 OFFCURVE",
"481 411 CURVE",
"505 411 LINE",
"492 453 OFFCURVE",
"427 507 OFFCURVE",
"316 507 CURVE SMOOTH",
"159 507 OFFCURVE",
"57 412 OFFCURVE",
"57 254 CURVE SMOOTH",
"57 75 OFFCURVE",
"178 -4 OFFCURVE",
"313 -4 CURVE"
);
},
{
closed = 1;
nodes = (
"232 64 OFFCURVE",
"133 115 OFFCURVE",
"133 251 CURVE SMOOTH",
"133 372 OFFCURVE",
"207 440 OFFCURVE",
"316 440 CURVE SMOOTH",
"401 440 OFFCURVE",
"462 391 OFFCURVE",
"481 354 CURVE",
"481 308 OFFCURVE",
"479 240 OFFCURVE",
"479 201 CURVE SMOOTH",
"479 125 OFFCURVE",
"397 64 OFFCURVE",
"311 64 CURVE SMOOTH"
);
}
);
width = 634;
}
);
note = d;
unicode = 0064;
},
{
glyphname = e;
lastChange = "2018-03-11 15:55:01 +0000";
layers = (
{
anchors = (
{
name = bottom;
position = "{297, 0}";
},
{
name = ogonek;
position = "{454, 68}";
},
{
name = top;
position = "{297, 500}";
}
);
layerId = "0B1DFD06-3317-40CA-B510-4969A0718C16";
paths = (
{
closed = 1;
nodes = (
"430 0 OFFCURVE",
"482 73 OFFCURVE",
"511 116 CURVE SMOOTH",
"519 127 OFFCURVE",
"519 135 OFFCURVE",
"510 141 CURVE SMOOTH",
"501 147 OFFCURVE",
"493 146 OFFCURVE",
"489 141 CURVE SMOOTH",
"455 94 OFFCURVE",
"413 31 OFFCURVE",
"302 31 CURVE SMOOTH",
"163 31 OFFCURVE",
"81 132 OFFCURVE",
"81 249 CURVE",
"352 257 OFFCURVE",
"245 254 OFFCURVE",
"494 261 CURVE SMOOTH",
"525 262 OFFCURVE",
"531 271 OFFCURVE",
"531 302 CURVE SMOOTH",
"531 422 OFFCURVE",
"439 512 OFFCURVE",
"302 512 CURVE SMOOTH",
"140 512 OFFCURVE",
"50 385 OFFCURVE",
"50 253 CURVE SMOOTH",
"50 129 OFFCURVE",
"129 0 OFFCURVE",
"301 0 CURVE SMOOTH"
);
},
{
closed = 1;
nodes = (
"81 358 OFFCURVE",
"160 481 OFFCURVE",
"305 481 CURVE SMOOTH",
"420 481 OFFCURVE",
"502 404 OFFCURVE",
"502 304 CURVE SMOOTH",
"502 293 OFFCURVE",
"501 292 OFFCURVE",
"495 292 CURVE SMOOTH",
"352 291 OFFCURVE",
"245 286 OFFCURVE",
"81 279 CURVE"
);
}
);
width = 581;
},
{
anchors = (
{
name = bottom;
position = "{309, 0}";
},
{
name = ogonek;
position = "{470, 79}";
},
{
name = top;
position = "{309, 500}";
}
);
layerId = "2F8C22CF-EC86-44F4-AF1A-A6C7F26A0C3C";
paths = (
{
closed = 1;
nodes = (
"442 -10 OFFCURVE",
"501 51 OFFCURVE",
"520 80 CURVE SMOOTH",
"545 118 OFFCURVE",
"526 145 OFFCURVE",
"508 158 CURVE SMOOTH",
"482 177 OFFCURVE",
"453 177 OFFCURVE",
"430 155 CURVE SMOOTH",
"403 129 OFFCURVE",
"377 105 OFFCURVE",
"314 105 CURVE SMOOTH",
"213 105 OFFCURVE",
"165 166 OFFCURVE",
"165 210 CURVE",
"308 214 OFFCURVE",
"336 212 OFFCURVE",
"488 212 CURVE SMOOTH",
"537 212 OFFCURVE",
"556 234 OFFCURVE",
"556 292 CURVE SMOOTH",
"556 431 OFFCURVE",
"446 515 OFFCURVE",
"310 515 CURVE SMOOTH",
"157 515 OFFCURVE",
"40 409 OFFCURVE",
"40 254 CURVE SMOOTH",
"40 105 OFFCURVE",
"148 -10 OFFCURVE",
"318 -10 CURVE SMOOTH"
);
},
{
closed = 1;
nodes = (
"165 341 OFFCURVE",
"214 407 OFFCURVE",
"308 407 CURVE SMOOTH",
"380 407 OFFCURVE",
"438 369 OFFCURVE",
"438 316 CURVE SMOOTH",
"438 306 OFFCURVE",
"436 302 OFFCURVE",
"424 302 CURVE SMOOTH",
"352 302 OFFCURVE",
"271 305 OFFCURVE",
"165 300 CURVE"
);
}
);
width = 596;
},
{
anchors = (
{
name = bottom;
position = "{314, 0}";
},
{
name = ogonek;
position = "{472, 72}";
},
{
name = top;
position = "{314, 500}";
}
);
layerId = "17B9D149-A542-49FB-8130-D430586D7342";
paths = (
{
closed = 1;
nodes = (
"449 -4 OFFCURVE",
"501 66 OFFCURVE",
"527 102 CURVE SMOOTH",
"543 124 OFFCURVE",
"531 141 OFFCURVE",
"521 148 CURVE SMOOTH",
"503 161 OFFCURVE",
"484 155 OFFCURVE",
"477 147 CURVE SMOOTH",
"445 109 OFFCURVE",
"409 61 OFFCURVE",
"317 61 CURVE SMOOTH",
"199 61 OFFCURVE",
"130 161 OFFCURVE",
"130 233 CURVE",
"328 239 OFFCURVE",
"201 238 OFFCURVE",
"504 241 CURVE SMOOTH",
"546 241 OFFCURVE",
"553 263 OFFCURVE",
"553 297 CURVE SMOOTH",
"553 424 OFFCURVE",
"455 513 OFFCURVE",
"317 513 CURVE SMOOTH",
"159 513 OFFCURVE",
"58 395 OFFCURVE",
"58 253 CURVE SMOOTH",
"58 119 OFFCURVE",
"149 -4 OFFCURVE",
"320 -4 CURVE SMOOTH"
);
},
{
closed = 1;
nodes = (
"130 341 OFFCURVE",
"201 451 OFFCURVE",
"319 451 CURVE SMOOTH",
"416 451 OFFCURVE",
"488 396 OFFCURVE",
"488 316 CURVE SMOOTH",
"488 307 OFFCURVE",
"486 302 OFFCURVE",
"479 302 CURVE SMOOTH",
"342 302 OFFCURVE",
"270 300 OFFCURVE",
"130 293 CURVE"
);
}
);
width = 619;
}
);
note = e;
unicode = 0065;
},
{
glyphname = f;
lastChange = "2018-03-11 15:16:32 +0000";
layers = (
{
anchors = (
{
name = bottom;
position = "{151, 0}";
},
{
name = top;
position = "{262, 740}";
}
);
layerId = "0B1DFD06-3317-40CA-B510-4969A0718C16";
paths = (
{
closed = 1;
nodes = (
"161 0 OFFCURVE",
"166 5 OFFCURVE",
"166 17 CURVE SMOOTH",
"166 187 OFFCURVE",
"158 421 OFFCURVE",
"158 505 CURVE SMOOTH",
"158 632 OFFCURVE",
"175 709 OFFCURVE",
"266 709 CURVE SMOOTH",
"339 709 OFFCURVE",
"355 649 OFFCURVE",
"355 588 CURVE SMOOTH",
"355 579 OFFCURVE",
"357 571 OFFCURVE",
"371 571 CURVE SMOOTH",
"381 571 OFFCURVE",
"386 575 OFFCURVE",
"386 597 CURVE SMOOTH",
"386 690 OFFCURVE",
"334 740 OFFCURVE",
"263 740 CURVE SMOOTH",
"158 740 OFFCURVE",
"127 653 OFFCURVE",
"127 505 CURVE SMOOTH",
"127 480 OFFCURVE",
"134 82 OFFCURVE",
"135 17 CURVE SMOOTH",
"135 8 OFFCURVE",
"138 0 OFFCURVE",
"151 0 CURVE SMOOTH"
);
},
{
closed = 1;
nodes = (
"103 355 OFFCURVE",
"161 359 OFFCURVE",
"259 359 CURVE SMOOTH",
"270 359 OFFCURVE",
"275 364 OFFCURVE",
"275 374 CURVE SMOOTH",
"275 385 OFFCURVE",
"269 389 OFFCURVE",
"255 389 CURVE SMOOTH",
"175 389 OFFCURVE",
"105 384 OFFCURVE",
"48 384 CURVE SMOOTH",
"34 384 OFFCURVE",
"30 377 OFFCURVE",
"30 368 CURVE SMOOTH",
"30 358 OFFCURVE",
"36 353 OFFCURVE",
"47 353 CURVE"
);
}
);
width = 386;
},
{
anchors = (
{
name = bottom;
position = "{182, 0}";
},
{
name = top;
position = "{278, 740}";
}
);
layerId = "2F8C22CF-EC86-44F4-AF1A-A6C7F26A0C3C";
paths = (
{
closed = 1;
nodes = (
"223 0 OFFCURVE",
"254 22 OFFCURVE",
"253 59 CURVE SMOOTH",
"250 164 OFFCURVE",
"244 378 OFFCURVE",
"247 524 CURVE SMOOTH",
"249 606 OFFCURVE",
"251 625 OFFCURVE",
"273 625 CURVE SMOOTH",
"302 625 OFFCURVE",
"296 590 OFFCURVE",
"298 569 CURVE SMOOTH",
"301 529 OFFCURVE",
"323 508 OFFCURVE",
"370 508 CURVE SMOOTH",
"419 508 OFFCURVE",
"441 531 OFFCURVE",
"441 586 CURVE SMOOTH",
"441 675 OFFCURVE",
"385 740 OFFCURVE",
"278 740 CURVE SMOOTH",
"164 740 OFFCURVE",
"100 665 OFFCURVE",
"102 526 CURVE SMOOTH",
"104 357 OFFCURVE",
"107 169 OFFCURVE",
"110 57 CURVE SMOOTH",
"111 23 OFFCURVE",
"140 0 OFFCURVE",
"182 0 CURVE SMOOTH"
);
},
{
closed = 1;
nodes = (
"101 317 OFFCURVE",
"249 320 OFFCURVE",
"298 321 CURVE SMOOTH",
"336 322 OFFCURVE",
"348 344 OFFCURVE",
"348 374 CURVE SMOOTH",
"348 406 OFFCURVE",
"335 425 OFFCURVE",
"300 428 CURVE SMOOTH",
"271 430 OFFCURVE",
"110 430 OFFCURVE",
"76 428 CURVE SMOOTH",
"30 425 OFFCURVE",
"20 404 OFFCURVE",
"20 373 CURVE SMOOTH",
"20 337 OFFCURVE",
"34 317 OFFCURVE",
"82 317 CURVE SMOOTH"
);
}
);
width = 428;
},
{
anchors = (
{
name = bottom;
position = "{155, 0}";
},
{
name = top;
position = "{263, 740}";
}
);
layerId = "17B9D149-A542-49FB-8130-D430586D7342";
paths = (
{
closed = 1;
nodes = (
"175 0 OFFCURVE",
"192 9 OFFCURVE",
"192 34 CURVE SMOOTH",
"192 205 OFFCURVE",
"184 349 OFFCURVE",
"188 530 CURVE SMOOTH",
"190 620 OFFCURVE",
"203 675 OFFCURVE",
"264 675 CURVE SMOOTH",
"320 675 OFFCURVE",
"326 628 OFFCURVE",
"326 580 CURVE SMOOTH",
"326 557 OFFCURVE",
"338 546 OFFCURVE",
"365 546 CURVE SMOOTH",
"392 546 OFFCURVE",
"402 559 OFFCURVE",
"402 595 CURVE SMOOTH",
"402 684 OFFCURVE",
"348 740 OFFCURVE",
"263 740 CURVE SMOOTH",
"155 740 OFFCURVE",
"109 651 OFFCURVE",
"111 531 CURVE SMOOTH",
"115 315 OFFCURVE",
"119 135 OFFCURVE",
"119 33 CURVE SMOOTH",
"119 14 OFFCURVE",
"130 0 OFFCURVE",
"155 0 CURVE SMOOTH"
);
},
{
closed = 1;
nodes = (
"133 341 OFFCURVE",
"75 339 OFFCURVE",
"268 344 CURVE SMOOTH",
"291 345 OFFCURVE",
"298 356 OFFCURVE",
"298 372 CURVE SMOOTH",
"298 393 OFFCURVE",
"287 405 OFFCURVE",
"268 405 CURVE SMOOTH",
"185 405 OFFCURVE",
"71 403 OFFCURVE",
"53 402 CURVE SMOOTH",
"25 400 OFFCURVE",
"20 387 OFFCURVE",
"20 371 CURVE SMOOTH",
"20 350 OFFCURVE",
"29 339 OFFCURVE",
"54 339 CURVE"
);
}
);
width = 389;
}
);
note = f;
unicode = 0066;
},
{
glyphname = g;
lastChange = "2018-03-11 16:14:57 +0000";
layers = (
{
anchors = (
{
name = bottom;
position = "{281, -273}";
},
{
name = top;
position = "{281, 497}";
}
);
layerId = "0B1DFD06-3317-40CA-B510-4969A0718C16";
paths = (
{
closed = 1;
nodes = (
"432 -279 OFFCURVE",
"514 -181 OFFCURVE",
"514 -34 CURVE SMOOTH",
"514 -2 OFFCURVE",
"510 30 OFFCURVE",
"490 171 CURVE SMOOTH",
"460 381 OFFCURVE",
"467 317 OFFCURVE",
"451 424 CURVE",
"456 443 OFFCURVE",
"472 509 OFFCURVE",
"473 513 CURVE SMOOTH",
"475 523 OFFCURVE",
"469 528 OFFCURVE",
"461 530 CURVE SMOOTH",
"454 532 OFFCURVE",
"448 532 OFFCURVE",
"443 519 CURVE SMOOTH",
"440 511 OFFCURVE",
"436 496 OFFCURVE",
"420 440 CURVE",
"430 441 LINE",
"418 462 OFFCURVE",
"358 508 OFFCURVE",
"268 508 CURVE SMOOTH",
"120 508 OFFCURVE",
"40 385 OFFCURVE",
"40 262 CURVE SMOOTH",
"40 148 OFFCURVE",
"109 10 OFFCURVE",
"273 10 CURVE SMOOTH",
"371 10 OFFCURVE",
"445 59 OFFCURVE",
"476 125 CURVE",
"465 125 LINE",
"472 97 OFFCURVE",
"483 8 OFFCURVE",
"483 -39 CURVE SMOOTH",
"483 -156 OFFCURVE",
"414 -248 OFFCURVE",
"283 -248 CURVE SMOOTH",
"168 -248 OFFCURVE",
"140 -177 OFFCURVE",
"120 -122 CURVE SMOOTH",
"117 -113 OFFCURVE",
"113 -105 OFFCURVE",
"100 -109 CURVE SMOOTH",
"91 -112 OFFCURVE",
"88 -116 OFFCURVE",
"92 -134 CURVE SMOOTH",
"107 -202 OFFCURVE",
"166 -279 OFFCURVE",
"291 -279 CURVE SMOOTH"
);
},
{
closed = 1;
nodes = (
"137 41 OFFCURVE",
"71 151 OFFCURVE",
"71 256 CURVE SMOOTH",
"71 373 OFFCURVE",
"154 477 OFFCURVE",
"270 477 CURVE SMOOTH",
"332 477 OFFCURVE",
"400 447 OFFCURVE",
"423 399 CURVE",
"433 337 OFFCURVE",
"451 247 OFFCURVE",
"460 160 CURVE",
"425 80 OFFCURVE",
"358 41 OFFCURVE",
"276 41 CURVE SMOOTH"
);
}
);
width = 584;
},
{
anchors = (
{
name = bottom;
position = "{301, -250}";
},
{
name = top;
position = "{301, 500}";
}
);
layerId = "2F8C22CF-EC86-44F4-AF1A-A6C7F26A0C3C";
paths = (
{
closed = 1;
nodes = (
"457 -280 OFFCURVE",
"556 -168 OFFCURVE",
"556 -1 CURVE SMOOTH",
"556 44 OFFCURVE",
"549 107 OFFCURVE",
"541 172 CURVE SMOOTH",
"530 261 OFFCURVE",
"517 352 OFFCURVE",
"509 409 CURVE",
"514 427 OFFCURVE",
"517 433 OFFCURVE",
"527 462 CURVE SMOOTH",
"535 487 OFFCURVE",
"521 510 OFFCURVE",
"484 523 CURVE SMOOTH",
"440 538 OFFCURVE",
"413 522 OFFCURVE",
"404 504 CURVE SMOOTH",
"394 485 OFFCURVE",
"380 455 OFFCURVE",
"372 439 CURVE",
"414 439 LINE",
"406 468 OFFCURVE",
"368 504 OFFCURVE",
"285 504 CURVE SMOOTH",
"142 504 OFFCURVE",
"40 398 OFFCURVE",
"40 250 CURVE SMOOTH",
"40 105 OFFCURVE",
"139 -4 OFFCURVE",
"279 -4 CURVE SMOOTH",
"366 -4 OFFCURVE",
"429 38 OFFCURVE",
"442 74 CURVE",
"409 74 LINE",
"412 36 OFFCURVE",
"413 23 OFFCURVE",
"413 4 CURVE SMOOTH",
"413 -125 OFFCURVE",
"370 -164 OFFCURVE",
"299 -164 CURVE SMOOTH",
"220 -164 OFFCURVE",
"210 -116 OFFCURVE",
"206 -89 CURVE SMOOTH",
"202 -66 OFFCURVE",
"185 -47 OFFCURVE",
"139 -52 CURVE SMOOTH",
"97 -57 OFFCURVE",
"82 -76 OFFCURVE",
"87 -120 CURVE SMOOTH",
"99 -223 OFFCURVE",
"194 -280 OFFCURVE",
"304 -280 CURVE SMOOTH"
);
},
{
closed = 1;
nodes = (
"219 105 OFFCURVE",
"184 175 OFFCURVE",
"184 246 CURVE SMOOTH",
"184 329 OFFCURVE",
"232 393 OFFCURVE",
"299 393 CURVE SMOOTH",
"333 393 OFFCURVE",
"358 377 OFFCURVE",
"371 357 CURVE",
"383 282 OFFCURVE",
"392 241 OFFCURVE",
"398 158 CURVE",
"388 129 OFFCURVE",
"342 105 OFFCURVE",
"297 105 CURVE SMOOTH"
);
}
);
width = 596;
},
{
anchors = (
{
name = bottom;
position = "{288, -250}";
},
{
name = top;
position = "{288, 500}";
}
);
layerId = "17B9D149-A542-49FB-8130-D430586D7342";
paths = (
{
closed = 1;
nodes = (
"447 -279 OFFCURVE",
"537 -176 OFFCURVE",
"537 -22 CURVE SMOOTH",
"537 24 OFFCURVE",
"529 79 OFFCURVE",
"516 171 CURVE SMOOTH",
"485 393 OFFCURVE",
"487 369 OFFCURVE",
"480 418 CURVE",
"489 452 OFFCURVE",
"500 489 OFFCURVE",
"501 493 CURVE SMOOTH",
"505 509 OFFCURVE",
"497 520 OFFCURVE",
"476 527 CURVE SMOOTH",
"455 534 OFFCURVE",
"442 529 OFFCURVE",
"433 513 CURVE SMOOTH",
"431 509 OFFCURVE",
"430 506 OFFCURVE",
"407 440 CURVE",
"430 440 LINE",
"420 463 OFFCURVE",
"370 506 OFFCURVE",
"281 506 CURVE SMOOTH",
"135 506 OFFCURVE",
"46 390 OFFCURVE",
"46 257 CURVE SMOOTH",
"46 130 OFFCURVE",
"128 4 OFFCURVE",
"282 4 CURVE SMOOTH",
"376 4 OFFCURVE",
"445 51 OFFCURVE",
"468 105 CURVE",
"449 105 LINE",
"454 73 OFFCURVE",
"461 16 OFFCURVE",
"461 -25 CURVE SMOOTH",
"461 -143 OFFCURVE",
"402 -214 OFFCURVE",
"295 -214 CURVE SMOOTH",
"210 -214 OFFCURVE",
"174 -158 OFFCURVE",
"160 -109 CURVE SMOOTH",
"156 -94 OFFCURVE",
"149 -82 OFFCURVE",
"122 -86 CURVE SMOOTH",
"95 -90 OFFCURVE",
"93 -106 OFFCURVE",
"96 -128 CURVE SMOOTH",
"106 -199 OFFCURVE",
"174 -279 OFFCURVE",
"302 -279 CURVE SMOOTH"
);
},
{
closed = 1;
nodes = (
"175 75 OFFCURVE",
"122 161 OFFCURVE",
"122 252 CURVE SMOOTH",
"122 356 OFFCURVE",
"187 437 OFFCURVE",
"283 437 CURVE SMOOTH",
"347 437 OFFCURVE",
"399 399 OFFCURVE",
"408 375 CURVE",
"419 308 OFFCURVE",
"433 249 OFFCURVE",
"441 163 CURVE",
"430 122 OFFCURVE",
"357 75 OFFCURVE",
"290 75 CURVE SMOOTH"
);
}
);
width = 580;
}
);
note = g;
unicode = 0067;
},
{
glyphname = h;
lastChange = "2018-03-11 15:14:48 +0000";
layers = (
{
anchors = (
{
name = bottom;
position = "{291, 0}";
},
{
name = center;
position = "{291, 500}";
},
{
name = top;
position = "{119, 785}";
}
);
layerId = "0B1DFD06-3317-40CA-B510-4969A0718C16";
paths = (
{
closed = 1;
nodes = (
"481 -2 OFFCURVE",
"487 3 OFFCURVE",
"487 12 CURVE SMOOTH",
"487 337 OFFCURVE",
"480 510 OFFCURVE",
"308 510 CURVE SMOOTH",
"176 510 OFFCURVE",
"109 407 OFFCURVE",
"99 357 CURVE",
"112 357 LINE",
"127 665 OFFCURVE",
"116 516 OFFCURVE",
"134 767 CURVE SMOOTH",
"135 779 OFFCURVE",
"130 785 OFFCURVE",
"118 785 CURVE SMOOTH",
"107 785 OFFCURVE",
"104 780 OFFCURVE",
"103 766 CURVE SMOOTH",
"95 633 OFFCURVE",
"89 546 OFFCURVE",
"85 408 CURVE SMOOTH",
"82 301 OFFCURVE",
"80 179 OFFCURVE",
"80 12 CURVE SMOOTH",
"80 4 OFFCURVE",
"84 -1 OFFCURVE",
"94 -1 CURVE SMOOTH",
"104 -1 OFFCURVE",
"112 4 OFFCURVE",
"112 11 CURVE SMOOTH",
"112 125 OFFCURVE",
"109 262 OFFCURVE",
"121 321 CURVE SMOOTH",
"139 411 OFFCURVE",
"215 479 OFFCURVE",
"308 479 CURVE SMOOTH",
"454 479 OFFCURVE",
"454 309 OFFCURVE",
"456 13 CURVE SMOOTH",
"456 3 OFFCURVE",
"461 -2 OFFCURVE",
"471 -2 CURVE SMOOTH"
);
}
);
width = 567;
},
{
anchors = (
{
name = bottom;
position = "{323, 0}";
},
{
name = center;
position = "{323, 500}";
},
{
name = top;
position = "{171, 786}";
}
);
layerId = "2F8C22CF-EC86-44F4-AF1A-A6C7F26A0C3C";
paths = (
{
closed = 1;
nodes = (
"509 4 OFFCURVE",
"541 26 OFFCURVE",
"541 58 CURVE SMOOTH",
"541 406 OFFCURVE",
"511 522 OFFCURVE",
"342 522 CURVE SMOOTH",
"303 522 OFFCURVE",
"229 516 OFFCURVE",
"185 411 CURVE",
"218 411 LINE",
"222 452 OFFCURVE",
"230 619 OFFCURVE",
"235 731 CURVE SMOOTH",
"237 765 OFFCURVE",
"210 786 OFFCURVE",
"169 786 CURVE SMOOTH",
"125 786 OFFCURVE",
"99 761 OFFCURVE",
"97 727 CURVE SMOOTH",
"89 586 OFFCURVE",
"86 548 OFFCURVE",
"83 438 CURVE SMOOTH",
"80 324 OFFCURVE",
"78 209 OFFCURVE",
"78 56 CURVE SMOOTH",
"78 26 OFFCURVE",
"111 4 OFFCURVE",
"150 4 CURVE SMOOTH",
"189 4 OFFCURVE",
"223 25 OFFCURVE",
"223 55 CURVE SMOOTH",
"223 239 OFFCURVE",
"218 266 OFFCURVE",
"227 313 CURVE SMOOTH",
"241 382 OFFCURVE",
"290 411 OFFCURVE",
"330 411 CURVE SMOOTH",
"392 411 OFFCURVE",
"393 344 OFFCURVE",
"396 65 CURVE SMOOTH",
"396 24 OFFCURVE",
"430 4 OFFCURVE",
"469 4 CURVE SMOOTH"
);
}
);
width = 581;
},
{
anchors = (
{
name = bottom;
position = "{319, 0}";
},
{
name = center;
position = "{319, 500}";
},
{
name = top;
position = "{155, 785}";
}
);
layerId = "17B9D149-A542-49FB-8130-D430586D7342";
paths = (
{
closed = 1;
nodes = (
"508 0 OFFCURVE",
"524 12 OFFCURVE",
"524 30 CURVE SMOOTH",
"524 359 OFFCURVE",
"508 515 OFFCURVE",
"341 515 CURVE SMOOTH",
"210 515 OFFCURVE",
"161 419 OFFCURVE",
"149 379 CURVE",
"170 379 LINE",
"177 511 OFFCURVE",
"189 732 OFFCURVE",
"190 753 CURVE SMOOTH",
"191 775 OFFCURVE",
"175 785 OFFCURVE",
"154 785 CURVE SMOOTH",
"131 785 OFFCURVE",
"118 774 OFFCURVE",
"116 750 CURVE SMOOTH",
"108 622 OFFCURVE",
"102 502 OFFCURVE",
"100 420 CURVE SMOOTH",
"97 310 OFFCURVE",
"95 191 OFFCURVE",
"95 30 CURVE SMOOTH",
"95 13 OFFCURVE",
"110 1 OFFCURVE",
"133 1 CURVE SMOOTH",
"154 1 OFFCURVE",
"172 12 OFFCURVE",
"172 29 CURVE SMOOTH",
"172 155 OFFCURVE",
"165 247 OFFCURVE",
"179 304 CURVE SMOOTH",
"193 361 OFFCURVE",
"255 446 OFFCURVE",
"331 446 CURVE SMOOTH",
"443 446 OFFCURVE",
"445 327 OFFCURVE",
"448 34 CURVE SMOOTH",
"448 11 OFFCURVE",
"464 0 OFFCURVE",
"486 0 CURVE SMOOTH"
);
}
);
width = 564;
}
);
note = h;
unicode = 0068;
},
{
glyphname = i;
lastChange = "2018-03-11 16:10:32 +0000";
layers = (
{
anchors = (
{
name = bottom;
position = "{98, 0}";
}
);
layerId = "0B1DFD06-3317-40CA-B510-4969A0718C16";
paths = (
{
closed = 1;
nodes = (
"107 6 OFFCURVE",
"113 11 OFFCURVE",
"113 22 CURVE SMOOTH",
"124 484 LINE SMOOTH",
"124 499 OFFCURVE",
"119 504 OFFCURVE",
"108 504 CURVE SMOOTH",
"98 504 OFFCURVE",
"92 499 OFFCURVE",
"92 484 CURVE SMOOTH",
"82 21 LINE SMOOTH",
"82 11 OFFCURVE",
"88 6 OFFCURVE",
"98 6 CURVE SMOOTH"
);
},
{
closed = 1;
nodes = (
"137 595 OFFCURVE",
"159 611 OFFCURVE",
"159 639 CURVE SMOOTH",
"159 665 OFFCURVE",
"141 684 OFFCURVE",
"116 684 CURVE SMOOTH",
"89 684 OFFCURVE",
"70 663 OFFCURVE",
"70 638 CURVE SMOOTH",
"70 613 OFFCURVE",
"90 595 OFFCURVE",
"114 595 CURVE SMOOTH"
);
}
);
width = 229;
},
{
anchors = (
{
name = bottom;
position = "{155, 0}";
}
);
layerId = "2F8C22CF-EC86-44F4-AF1A-A6C7F26A0C3C";
paths = (
{
closed = 1;
nodes = (
"196 6 OFFCURVE",
"228 27 OFFCURVE",
"229 64 CURVE SMOOTH",
"237 432 LINE SMOOTH",
"238 470 OFFCURVE",
"205 492 OFFCURVE",
"163 492 CURVE SMOOTH",
"121 492 OFFCURVE",
"91 470 OFFCURVE",
"90 434 CURVE SMOOTH",
"82 65 LINE SMOOTH",
"81 28 OFFCURVE",
"113 6 OFFCURVE",
"155 6 CURVE SMOOTH"
);
},
{
closed = 1;
nodes = (
"223 522 OFFCURVE",
"260 561 OFFCURVE",
"260 613 CURVE SMOOTH",
"260 664 OFFCURVE",
"223 700 OFFCURVE",
"170 700 CURVE SMOOTH",
"116 700 OFFCURVE",
"78 664 OFFCURVE",
"78 612 CURVE SMOOTH",
"78 561 OFFCURVE",
"115 522 OFFCURVE",
"169 522 CURVE SMOOTH"
);
}
);
width = 338;
},
{
anchors = (
{
name = bottom;
position = "{154, 0}";
}
);
layerId = "17B9D149-A542-49FB-8130-D430586D7342";
paths = (
{
closed = 1;
nodes = (
"175 6 OFFCURVE",
"191 17 OFFCURVE",
"192 39 CURVE SMOOTH",
"202 463 LINE SMOOTH",
"202 487 OFFCURVE",
"186 499 OFFCURVE",
"163 499 CURVE SMOOTH",
"140 499 OFFCURVE",
"124 487 OFFCURVE",
"124 464 CURVE SMOOTH",
"114 39 LINE SMOOTH",
"114 18 OFFCURVE",
"130 6 OFFCURVE",
"153 6 CURVE SMOOTH"
);
},
{
closed = 1;
nodes = (
"204 566 OFFCURVE",
"232 592 OFFCURVE",
"232 629 CURVE SMOOTH",
"232 665 OFFCURVE",
"206 690 OFFCURVE",
"170 690 CURVE SMOOTH",
"132 690 OFFCURVE",
"106 663 OFFCURVE",
"106 628 CURVE SMOOTH",
"106 592 OFFCURVE",
"133 566 OFFCURVE",
"168 566 CURVE SMOOTH"
);
}
);
width = 306;
}
);
note = i;
unicode = 0069;
},
{
glyphname = j;
lastChange = "2018-03-11 15:19:53 +0000";
layers = (
{
layerId = "0B1DFD06-3317-40CA-B510-4969A0718C16";
paths = (
{
closed = 1;
nodes = (
"130 -236 OFFCURVE",
"201 -153 OFFCURVE",
"203 23 CURVE SMOOTH",
"205 202 OFFCURVE",
"210 357 OFFCURVE",
"210 472 CURVE SMOOTH",
"210 494 OFFCURVE",
"206 498 OFFCURVE",
"195 498 CURVE SMOOTH",
"182 498 OFFCURVE",
"179 493 OFFCURVE",
"179 474 CURVE SMOOTH",
"179 359 OFFCURVE",
"174 201 OFFCURVE",
"171 23 CURVE SMOOTH",
"169 -122 OFFCURVE",
"124 -206 OFFCURVE",
"40 -206 CURVE SMOOTH",
"3 -206 OFFCURVE",
"-44 -190 OFFCURVE",
"-49 -101 CURVE SMOOTH",
"-49 -93 OFFCURVE",
"-50 -79 OFFCURVE",
"-66 -79 CURVE SMOOTH",
"-77 -79 OFFCURVE",
"-80 -85 OFFCURVE",
"-80 -103 CURVE SMOOTH",
"-80 -184 OFFCURVE",
"-22 -236 OFFCURVE",
"45 -236 CURVE SMOOTH"
);
},
{
closed = 1;
nodes = (
"218 594 OFFCURVE",
"240 610 OFFCURVE",
"240 638 CURVE SMOOTH",
"240 664 OFFCURVE",
"222 683 OFFCURVE",
"197 683 CURVE SMOOTH",
"170 683 OFFCURVE",
"151 662 OFFCURVE",
"151 637 CURVE SMOOTH",
"151 612 OFFCURVE",
"171 594 OFFCURVE",
"195 594 CURVE SMOOTH"
);
}
);
width = 310;
},
{
layerId = "2F8C22CF-EC86-44F4-AF1A-A6C7F26A0C3C";
paths = (
{
closed = 1;
nodes = (
"201 -236 OFFCURVE",
"270 -170 OFFCURVE",
"274 25 CURVE SMOOTH",
"277 172 OFFCURVE",
"278 284 OFFCURVE",
"278 448 CURVE SMOOTH",
"278 481 OFFCURVE",
"249 499 OFFCURVE",
"208 499 CURVE SMOOTH",
"167 499 OFFCURVE",
"136 480 OFFCURVE",
"136 451 CURVE SMOOTH",
"136 289 OFFCURVE",
"134 167 OFFCURVE",
"131 26 CURVE SMOOTH",
"129 -80 OFFCURVE",
"119 -124 OFFCURVE",
"86 -124 CURVE SMOOTH",
"66 -124 OFFCURVE",
"59 -108 OFFCURVE",
"54 -68 CURVE SMOOTH",
"52 -47 OFFCURVE",
"45 -18 OFFCURVE",
"-14 -18 CURVE SMOOTH",
"-57 -18 OFFCURVE",
"-80 -34 OFFCURVE",
"-80 -83 CURVE SMOOTH",
"-80 -156 OFFCURVE",
"-30 -236 OFFCURVE",
"91 -236 CURVE SMOOTH"
);
},
{
closed = 1;
nodes = (
"263 526 OFFCURVE",
"305 562 OFFCURVE",
"305 613 CURVE SMOOTH",
"305 663 OFFCURVE",
"266 699 OFFCURVE",
"214 699 CURVE SMOOTH",
"160 699 OFFCURVE",
"121 660 OFFCURVE",
"121 614 CURVE SMOOTH",
"121 567 OFFCURVE",
"163 526 OFFCURVE",
"215 526 CURVE SMOOTH"
);
}
);
width = 375;
},
{
layerId = "17B9D149-A542-49FB-8130-D430586D7342";
paths = (
{
closed = 1;
nodes = (
"156 -236 OFFCURVE",
"226 -163 OFFCURVE",
"231 24 CURVE SMOOTH",
"235 177 OFFCURVE",
"237 389 OFFCURVE",
"237 466 CURVE SMOOTH",
"237 486 OFFCURVE",
"225 498 OFFCURVE",
"200 498 CURVE SMOOTH",
"172 498 OFFCURVE",
"161 484 OFFCURVE",
"161 468 CURVE SMOOTH",
"161 398 OFFCURVE",
"159 186 OFFCURVE",
"155 24 CURVE SMOOTH",
"152 -97 OFFCURVE",
"125 -173 OFFCURVE",
"57 -173 CURVE SMOOTH",
"5 -173 OFFCURVE",
"-3 -129 OFFCURVE",
"-8 -88 CURVE SMOOTH",
"-9 -76 OFFCURVE",
"-11 -55 OFFCURVE",
"-45 -55 CURVE SMOOTH",
"-73 -55 OFFCURVE",
"-80 -69 OFFCURVE",
"-80 -96 CURVE SMOOTH",
"-80 -176 OFFCURVE",
"-21 -236 OFFCURVE",
"63 -236 CURVE SMOOTH"
);
},
{
closed = 1;
nodes = (
"236 567 OFFCURVE",
"266 591 OFFCURVE",
"266 628 CURVE SMOOTH",
"266 663 OFFCURVE",
"240 689 OFFCURVE",
"203 689 CURVE SMOOTH",
"166 689 OFFCURVE",
"139 662 OFFCURVE",
"139 628 CURVE SMOOTH",
"139 594 OFFCURVE",
"167 567 OFFCURVE",
"203 567 CURVE SMOOTH"
);
}
);
width = 336;
}
);
note = j;
unicode = 006A;
},
{
glyphname = k;
lastChange = "2018-03-11 16:13:16 +0000";
layers = (
{
anchors = (
{
name = bottom;
position = "{252, 0}";
},
{
name = top;
position = "{87, 780}";
}
);
layerId = "0B1DFD06-3317-40CA-B510-4969A0718C16";
paths = (
{
closed = 1;
nodes = (
"94 -3 OFFCURVE",
"101 0 OFFCURVE",
"101 10 CURVE SMOOTH",
"102 251 LINE",
"240 147 OFFCURVE",
"144 225 OFFCURVE",
"416 17 CURVE SMOOTH",
"424 11 OFFCURVE",
"431 6 OFFCURVE",
"436 6 CURVE SMOOTH",
"446 6 OFFCURVE",
"454 15 OFFCURVE",
"454 25 CURVE SMOOTH",
"454 32 OFFCURVE",
"450 36 OFFCURVE",
"447 38 CURVE SMOOTH",
"102 290 LINE",
"442 497 LINE SMOOTH",
"448 501 OFFCURVE",
"450 503 OFFCURVE",
"451 507 CURVE SMOOTH",
"453 517 OFFCURVE",
"443 531 OFFCURVE",
"436 531 CURVE SMOOTH",
"434 531 OFFCURVE",
"429 530 OFFCURVE",
"426 528 CURVE SMOOTH",
"362 489 OFFCURVE",
"205 392 OFFCURVE",
"101 328 CURVE",
"103 762 LINE SMOOTH",
"103 775 OFFCURVE",
"97 780 OFFCURVE",
"87 780 CURVE SMOOTH",
"75 780 OFFCURVE",
"71 774 OFFCURVE",
"71 762 CURVE SMOOTH",
"70 9 LINE SMOOTH",
"70 0 OFFCURVE",
"78 -3 OFFCURVE",
"86 -3 CURVE SMOOTH"
);
}
);
width = 494;
},
{
anchors = (
{
name = bottom;
position = "{275, 0}";
},
{
name = top;
position = "{131, 741}";
}
);
layerId = "2F8C22CF-EC86-44F4-AF1A-A6C7F26A0C3C";
paths = (
{
closed = 1;
nodes = (
"172 -8 OFFCURVE",
"202 14 OFFCURVE",
"202 45 CURVE SMOOTH",
"202 165 LINE",
"270 108 OFFCURVE",
"351 36 OFFCURVE",
"375 18 CURVE SMOOTH",
"390 7 OFFCURVE",
"406 0 OFFCURVE",
"425 0 CURVE SMOOTH",
"459 0 OFFCURVE",
"490 24 OFFCURVE",
"490 60 CURVE SMOOTH",
"490 79 OFFCURVE",
"482 92 OFFCURVE",
"473 99 CURVE SMOOTH",
"232 283 LINE",
"464 426 LINE SMOOTH",
"485 439 OFFCURVE",
"499 449 OFFCURVE",
"499 472 CURVE SMOOTH",
"499 503 OFFCURVE",
"475 535 OFFCURVE",
"449 539 CURVE SMOOTH",
"436 541 OFFCURVE",
"419 538 OFFCURVE",
"404 529 CURVE SMOOTH",
"317 476 OFFCURVE",
"287 456 OFFCURVE",
"202 402 CURVE",
"204 682 LINE SMOOTH",
"204 719 OFFCURVE",
"172 741 OFFCURVE",
"131 741 CURVE SMOOTH",
"90 741 OFFCURVE",
"60 719 OFFCURVE",
"60 682 CURVE SMOOTH",
"60 44 LINE SMOOTH",
"60 14 OFFCURVE",
"92 -8 OFFCURVE",
"132 -8 CURVE SMOOTH"
);
}
);
width = 539;
},
{
anchors = (
{
name = bottom;
position = "{288, 0}";
},
{
name = top;
position = "{132, 764}";
}
);
layerId = "17B9D149-A542-49FB-8130-D430586D7342";
paths = (
{
closed = 1;
nodes = (
"153 -5 OFFCURVE",
"169 6 OFFCURVE",
"169 24 CURVE SMOOTH",
"170 194 LINE",
"270 125 OFFCURVE",
"385 44 OFFCURVE",
"424 15 CURVE SMOOTH",
"432 9 OFFCURVE",
"442 4 OFFCURVE",
"454 4 CURVE SMOOTH",
"471 4 OFFCURVE",
"492 24 OFFCURVE",
"492 44 CURVE SMOOTH",
"492 55 OFFCURVE",
"487 62 OFFCURVE",
"482 66 CURVE SMOOTH",
"170 288 LINE",
"478 471 LINE SMOOTH",
"496 482 OFFCURVE",
"500 489 OFFCURVE",
"500 495 CURVE SMOOTH",
"500 517 OFFCURVE",
"484 541 OFFCURVE",
"465 541 CURVE SMOOTH",
"458 541 OFFCURVE",
"452 538 OFFCURVE",
"442 532 CURVE SMOOTH",
"366 486 OFFCURVE",
"277 437 OFFCURVE",
"169 376 CURVE",
"171 730 LINE SMOOTH",
"171 753 OFFCURVE",
"155 764 OFFCURVE",
"132 764 CURVE SMOOTH",
"109 764 OFFCURVE",
"94 752 OFFCURVE",
"94 730 CURVE SMOOTH",
"94 23 LINE SMOOTH",
"94 6 OFFCURVE",
"111 -5 OFFCURVE",
"132 -5 CURVE SMOOTH"
);
}
);
width = 531;
}
);
note = k;
unicode = 006B;
},
{
glyphname = l;
lastChange = "2018-03-11 16:21:46 +0000";
layers = (
{
anchors = (
{
name = bottom;
position = "{110, 0}";
},
{
name = center;
position = "{110, 250}";
},
{
name = top;
position = "{107, 792}";
},
{
name = topright;
position = "{107, 590}";
}
);
layerId = "0B1DFD06-3317-40CA-B510-4969A0718C16";
paths = (
{
closed = 1;
nodes = (
"121 9 OFFCURVE",
"127 13 OFFCURVE",
"127 27 CURVE SMOOTH",
"122 773 LINE SMOOTH",
"122 787 OFFCURVE",
"117 792 OFFCURVE",
"107 792 CURVE SMOOTH",
"96 792 OFFCURVE",
"90 787 OFFCURVE",
"90 773 CURVE SMOOTH",
"96 27 LINE SMOOTH",
"96 13 OFFCURVE",
"103 9 OFFCURVE",
"112 9 CURVE SMOOTH"
);
}
);
width = 217;
},
{
anchors = (
{
name = bottom;
position = "{135, 0}";
},
{
name = center;
position = "{139, 260}";
},
{
name = top;
position = "{135, 792}";
},
{
name = topright;
position = "{136, 633}";
}
);
layerId = "2F8C22CF-EC86-44F4-AF1A-A6C7F26A0C3C";
paths = (
{
closed = 1;
nodes = (
"176 9 OFFCURVE",
"210 32 OFFCURVE",
"210 70 CURVE SMOOTH",
"205 732 LINE SMOOTH",
"205 768 OFFCURVE",
"176 792 OFFCURVE",
"134 792 CURVE SMOOTH",
"92 792 OFFCURVE",
"60 768 OFFCURVE",
"60 731 CURVE SMOOTH",
"66 69 LINE SMOOTH",
"66 35 OFFCURVE",
"93 9 OFFCURVE",
"136 9 CURVE SMOOTH"
);
}
);
width = 270;
},
{
anchors = (
{
name = bottom;
position = "{118, 0}";
},
{
name = center;
position = "{128, 254}";
},
{
name = top;
position = "{116, 792}";
},
{
name = topright;
position = "{120, 607}";
}
);
layerId = "17B9D149-A542-49FB-8130-D430586D7342";
paths = (
{
closed = 1;
nodes = (
"142 9 OFFCURVE",
"158 21 OFFCURVE",
"158 44 CURVE SMOOTH",
"153 757 LINE SMOOTH",
"153 779 OFFCURVE",
"139 792 OFFCURVE",
"116 792 CURVE SMOOTH",
"93 792 OFFCURVE",
"76 779 OFFCURVE",
"76 756 CURVE SMOOTH",
"82 44 LINE SMOOTH",
"82 21 OFFCURVE",
"98 9 OFFCURVE",
"120 9 CURVE SMOOTH"
);
}
);
width = 251;
}
);
note = l;
unicode = 006C;
},
{
glyphname = m;
lastChange = "2018-03-11 16:21:34 +0000";
layers = (
{
anchors = (
{
name = bottom;
position = "{408, 0}";
},
{
name = top;
position = "{408, 500}";
}
);
layerId = "0B1DFD06-3317-40CA-B510-4969A0718C16";
paths = (
{
closed = 1;
nodes = (
"706 0 OFFCURVE",
"709 9 OFFCURVE",
"709 18 CURVE SMOOTH",
"710 102 OFFCURVE",
"708 243 OFFCURVE",
"709 312 CURVE SMOOTH",
"711 416 OFFCURVE",
"687 517 OFFCURVE",
"563 517 CURVE SMOOTH",
"470 517 OFFCURVE",
"419 447 OFFCURVE",
"416 311 CURVE",
"422 311 LINE",
"411 447 OFFCURVE",
"356 513 OFFCURVE",
"271 513 CURVE SMOOTH",
"212 513 OFFCURVE",
"143 476 OFFCURVE",
"126 311 CURVE",
"132 311 LINE",
"131 423 LINE SMOOTH",
"131 448 OFFCURVE",
"127 464 OFFCURVE",
"112 483 CURVE SMOOTH",
"104 493 OFFCURVE",
"94 504 OFFCURVE",
"88 504 CURVE SMOOTH",
"79 504 OFFCURVE",
"70 495 OFFCURVE",
"70 485 CURVE SMOOTH",
"70 481 OFFCURVE",
"74 479 OFFCURVE",
"77 476 CURVE SMOOTH",
"82 471 OFFCURVE",
"99 462 OFFCURVE",
"100 420 CURVE SMOOTH",
"102 287 OFFCURVE",
"104 157 OFFCURVE",
"104 20 CURVE SMOOTH",
"104 11 OFFCURVE",
"105 3 OFFCURVE",
"120 3 CURVE SMOOTH",
"128 3 OFFCURVE",
"135 8 OFFCURVE",
"135 19 CURVE SMOOTH",
"135 35 OFFCURVE",
"135 51 OFFCURVE",
"135 66 CURVE SMOOTH",
"135 157 OFFCURVE",
"134 230 OFFCURVE",
"146 297 CURVE SMOOTH",
"170 429 OFFCURVE",
"206 483 OFFCURVE",
"269 483 CURVE SMOOTH",
"357 483 OFFCURVE",
"402 380 OFFCURVE",
"403 267 CURVE SMOOTH",
"404 185 OFFCURVE",
"403 96 OFFCURVE",
"403 21 CURVE SMOOTH",
"403 9 OFFCURVE",
"403 2 OFFCURVE",
"418 2 CURVE SMOOTH",
"431 2 OFFCURVE",
"435 8 OFFCURVE",
"435 19 CURVE SMOOTH",
"435 99 OFFCURVE",
"435 183 OFFCURVE",
"436 267 CURVE SMOOTH",
"437 380 OFFCURVE",
"464 487 OFFCURVE",
"563 487 CURVE SMOOTH",
"661 487 OFFCURVE",
"679 413 OFFCURVE",
"679 312 CURVE SMOOTH",
"679 244 OFFCURVE",
"678 99 OFFCURVE",
"678 19 CURVE SMOOTH",
"678 9 OFFCURVE",
"679 0 OFFCURVE",
"693 0 CURVE SMOOTH"
);
}
);
width = 779;
},
{
anchors = (
{
name = bottom;
position = "{406, 0}";
},
{
name = top;
position = "{406, 500}";
}
);
layerId = "2F8C22CF-EC86-44F4-AF1A-A6C7F26A0C3C";
paths = (
{
closed = 1;
nodes = (
"716 0 OFFCURVE",
"742 21 OFFCURVE",
"742 53 CURVE SMOOTH",
"742 139 OFFCURVE",
"744 182 OFFCURVE",
"744 250 CURVE SMOOTH",
"744 397 OFFCURVE",
"695 503 OFFCURVE",
"561 503 CURVE SMOOTH",
"470 503 OFFCURVE",
"406 444 OFFCURVE",
"395 350 CURVE",
"439 350 LINE",
"427 424 OFFCURVE",
"406 500 OFFCURVE",
"301 500 CURVE SMOOTH",
"196 500 OFFCURVE",
"163 401 OFFCURVE",
"157 355 CURVE",
"187 355 LINE",
"186 374 LINE SMOOTH",
"184 419 OFFCURVE",
"171 445 OFFCURVE",
"160 462 CURVE SMOOTH",
"148 480 OFFCURVE",
"129 494 OFFCURVE",
"113 494 CURVE SMOOTH",
"83 494 OFFCURVE",
"50 472 OFFCURVE",
"50 435 CURVE SMOOTH",
"50 422 OFFCURVE",
"58 416 OFFCURVE",
"66 408 CURVE SMOOTH",
"79 395 OFFCURVE",
"82 384 OFFCURVE",
"82 353 CURVE SMOOTH",
"82 234 OFFCURVE",
"82 150 OFFCURVE",
"82 49 CURVE SMOOTH",
"82 17 OFFCURVE",
"114 2 OFFCURVE",
"147 1 CURVE SMOOTH",
"182 0 OFFCURVE",
"218 16 OFFCURVE",
"218 48 CURVE SMOOTH",
"218 62 OFFCURVE",
"218 84 OFFCURVE",
"218 123 CURVE SMOOTH",
"218 211 OFFCURVE",
"214 244 OFFCURVE",
"224 289 CURVE SMOOTH",
"240 361 OFFCURVE",
"269 393 OFFCURVE",
"293 393 CURVE SMOOTH",
"332 393 OFFCURVE",
"352 353 OFFCURVE",
"352 258 CURVE SMOOTH",
"352 182 OFFCURVE",
"351 148 OFFCURVE",
"351 58 CURVE SMOOTH",
"351 22 OFFCURVE",
"377 2 OFFCURVE",
"424 2 CURVE SMOOTH",
"463 2 OFFCURVE",
"491 16 OFFCURVE",
"491 57 CURVE SMOOTH",
"491 134 OFFCURVE",
"490 183 OFFCURVE",
"491 258 CURVE SMOOTH",
"492 356 OFFCURVE",
"520 398 OFFCURVE",
"547 398 CURVE SMOOTH",
"586 398 OFFCURVE",
"604 358 OFFCURVE",
"604 250 CURVE SMOOTH",
"604 183 OFFCURVE",
"604 146 OFFCURVE",
"604 57 CURVE SMOOTH",
"604 20 OFFCURVE",
"636 0 OFFCURVE",
"676 0 CURVE SMOOTH"
);
}
);
width = 794;
},
{
anchors = (
{
name = bottom;
position = "{410, 0}";
},
{
name = top;
position = "{410, 500}";
}
);
layerId = "17B9D149-A542-49FB-8130-D430586D7342";
paths = (
{
closed = 1;
nodes = (
"708 0 OFFCURVE",
"720 14 OFFCURVE",
"720 32 CURVE SMOOTH",
"721 117 OFFCURVE",
"720 213 OFFCURVE",
"721 281 CURVE SMOOTH",
"722 412 OFFCURVE",
"688 511 OFFCURVE",
"560 511 CURVE SMOOTH",
"468 511 OFFCURVE",
"412 446 OFFCURVE",
"406 327 CURVE",
"427 327 LINE",
"416 438 OFFCURVE",
"374 508 OFFCURVE",
"281 508 CURVE SMOOTH",
"204 508 OFFCURVE",
"149 446 OFFCURVE",
"137 329 CURVE",
"152 329 LINE",
"151 403 LINE SMOOTH",
"150 436 OFFCURVE",
"143 456 OFFCURVE",
"129 475 CURVE SMOOTH",
"120 488 OFFCURVE",
"106 500 OFFCURVE",
"96 500 CURVE SMOOTH",
"79 500 OFFCURVE",
"60 486 OFFCURVE",
"60 465 CURVE SMOOTH",
"60 457 OFFCURVE",
"66 454 OFFCURVE",
"71 449 CURVE SMOOTH",
"79 441 OFFCURVE",
"90 431 OFFCURVE",
"91 393 CURVE SMOOTH",
"92 266 OFFCURVE",
"93 154 OFFCURVE",
"93 32 CURVE SMOOTH",
"93 13 OFFCURVE",
"107 3 OFFCURVE",
"129 2 CURVE SMOOTH",
"148 2 OFFCURVE",
"166 11 OFFCURVE",
"166 31 CURVE SMOOTH",
"166 46 OFFCURVE",
"166 64 OFFCURVE",
"166 89 CURVE SMOOTH",
"166 179 OFFCURVE",
"164 236 OFFCURVE",
"175 294 CURVE SMOOTH",
"196 402 OFFCURVE",
"229 447 OFFCURVE",
"277 447 CURVE SMOOTH",
"345 447 OFFCURVE",
"380 349 OFFCURVE",
"381 263 CURVE SMOOTH",
"382 184 OFFCURVE",
"380 117 OFFCURVE",
"380 36 CURVE SMOOTH",
"380 14 OFFCURVE",
"391 2 OFFCURVE",
"419 2 CURVE SMOOTH",
"442 2 OFFCURVE",
"456 11 OFFCURVE",
"456 34 CURVE SMOOTH",
"456 113 OFFCURVE",
"455 183 OFFCURVE",
"456 263 CURVE SMOOTH",
"457 350 OFFCURVE",
"482 451 OFFCURVE",
"555 451 CURVE SMOOTH",
"629 451 OFFCURVE",
"647 395 OFFCURVE",
"647 281 CURVE SMOOTH",
"647 214 OFFCURVE",
"647 118 OFFCURVE",
"647 34 CURVE SMOOTH",
"647 13 OFFCURVE",
"660 0 OFFCURVE",
"684 0 CURVE SMOOTH"
);
}
);
width = 797;
}
);
note = m;
unicode = 006D;
},
{
glyphname = n;
lastChange = "2018-03-11 16:21:20 +0000";
layers = (
{
anchors = (
{
name = bottom;
position = "{289, 0}";
},
{
name = top;
position = "{289, 500}";
}
);
layerId = "0B1DFD06-3317-40CA-B510-4969A0718C16";
paths = (
{
closed = 1;
nodes = (
"133 2 OFFCURVE",
"139 6 OFFCURVE",
"139 14 CURVE SMOOTH",
"139 84 OFFCURVE",
"138 151 OFFCURVE",
"138 174 CURVE SMOOTH",
"138 215 OFFCURVE",
"141 248 OFFCURVE",
"147 284 CURVE SMOOTH",
"172 435 OFFCURVE",
"226 477 OFFCURVE",
"306 477 CURVE SMOOTH",
"408 477 OFFCURVE",
"439 408 OFFCURVE",
"439 272 CURVE SMOOTH",
"439 20 LINE SMOOTH",
"439 12 OFFCURVE",
"442 3 OFFCURVE",
"455 3 CURVE SMOOTH",
"468 3 OFFCURVE",
"470 11 OFFCURVE",
"470 20 CURVE SMOOTH",
"470 271 LINE SMOOTH",
"470 435 OFFCURVE",
"417 507 OFFCURVE",
"311 507 CURVE SMOOTH",
"176 507 OFFCURVE",
"127 392 OFFCURVE",
"127 299 CURVE",
"133 299 LINE",
"133 412 LINE SMOOTH",
"133 436 OFFCURVE",
"112 474 OFFCURVE",
"103 488 CURVE SMOOTH",
"98 496 OFFCURVE",
"94 499 OFFCURVE",
"89 499 CURVE SMOOTH",
"82 499 OFFCURVE",
"70 494 OFFCURVE",
"70 484 CURVE SMOOTH",
"70 481 OFFCURVE",
"71 477 OFFCURVE",
"73 474 CURVE SMOOTH",
"87 447 OFFCURVE",
"100 438 OFFCURVE",
"101 398 CURVE SMOOTH",
"106 105 OFFCURVE",
"107 56 OFFCURVE",
"108 14 CURVE SMOOTH",
"108 6 OFFCURVE",
"115 2 OFFCURVE",
"124 2 CURVE SMOOTH"
);
}
);
width = 540;
},
{
anchors = (
{
name = bottom;
position = "{301, 0}";
},
{
name = top;
position = "{301, 500}";
}
);
layerId = "2F8C22CF-EC86-44F4-AF1A-A6C7F26A0C3C";
paths = (
{
closed = 1;
nodes = (
"203 -2 OFFCURVE",
"232 16 OFFCURVE",
"232 51 CURVE SMOOTH",
"232 107 OFFCURVE",
"231 149 OFFCURVE",
"231 180 CURVE SMOOTH",
"231 211 OFFCURVE",
"232 237 OFFCURVE",
"238 273 CURVE SMOOTH",
"255 379 OFFCURVE",
"277 400 OFFCURVE",
"313 400 CURVE SMOOTH",
"357 400 OFFCURVE",
"379 369 OFFCURVE",
"379 269 CURVE SMOOTH",
"379 51 LINE SMOOTH",
"379 17 OFFCURVE",
"411 -1 OFFCURVE",
"452 -1 CURVE SMOOTH",
"494 -1 OFFCURVE",
"524 17 OFFCURVE",
"524 51 CURVE SMOOTH",
"524 268 LINE SMOOTH",
"524 432 OFFCURVE",
"453 511 OFFCURVE",
"339 511 CURVE SMOOTH",
"202 511 OFFCURVE",
"173 398 OFFCURVE",
"173 360 CURVE",
"198 360 LINE",
"198 392 LINE SMOOTH",
"198 434 OFFCURVE",
"180 464 OFFCURVE",
"167 481 CURVE SMOOTH",
"150 503 OFFCURVE",
"137 511 OFFCURVE",
"122 511 CURVE SMOOTH",
"94 511 OFFCURVE",
"50 483 OFFCURVE",
"50 453 CURVE SMOOTH",
"50 446 OFFCURVE",
"52 438 OFFCURVE",
"56 431 CURVE SMOOTH",
"64 417 OFFCURVE",
"80 399 OFFCURVE",
"81 375 CURVE SMOOTH",
"86 278 OFFCURVE",
"87 257 OFFCURVE",
"87 51 CURVE SMOOTH",
"87 18 OFFCURVE",
"115 -2 OFFCURVE",
"160 -2 CURVE SMOOTH"
);
}
);
width = 574;
},
{
anchors = (
{
name = bottom;
position = "{282, 0}";
},
{
name = top;
position = "{282, 500}";
}
);
layerId = "17B9D149-A542-49FB-8130-D430586D7342";
paths = (
{
closed = 1;
nodes = (
"157 0 OFFCURVE",
"171 10 OFFCURVE",
"171 29 CURVE SMOOTH",
"171 92 OFFCURVE",
"170 152 OFFCURVE",
"170 174 CURVE SMOOTH",
"170 206 OFFCURVE",
"171 249 OFFCURVE",
"179 290 CURVE SMOOTH",
"194 370 OFFCURVE",
"239 442 OFFCURVE",
"320 442 CURVE SMOOTH",
"391 442 OFFCURVE",
"410 379 OFFCURVE",
"410 271 CURVE SMOOTH",
"410 32 LINE SMOOTH",
"410 14 OFFCURVE",
"425 1 OFFCURVE",
"450 1 CURVE SMOOTH",
"474 1 OFFCURVE",
"487 13 OFFCURVE",
"487 32 CURVE SMOOTH",
"487 270 LINE SMOOTH",
"487 429 OFFCURVE",
"430 509 OFFCURVE",
"317 509 CURVE SMOOTH",
"180 509 OFFCURVE",
"141 384 OFFCURVE",
"141 323 CURVE",
"154 323 LINE",
"154 404 LINE SMOOTH",
"154 435 OFFCURVE",
"134 470 OFFCURVE",
"124 485 CURVE SMOOTH",
"114 499 OFFCURVE",
"106 504 OFFCURVE",
"97 504 CURVE SMOOTH",
"81 504 OFFCURVE",
"57 488 OFFCURVE",
"57 471 CURVE SMOOTH",
"57 466 OFFCURVE",
"59 461 OFFCURVE",
"61 457 CURVE SMOOTH",
"81 425 OFFCURVE",
"88 412 OFFCURVE",
"88 388 CURVE SMOOTH",
"88 366 OFFCURVE",
"94 78 OFFCURVE",
"95 29 CURVE SMOOTH",
"95 13 OFFCURVE",
"108 0 OFFCURVE",
"134 0 CURVE SMOOTH"
);
}
);
width = 554;
}
);
note = n;
unicode = 006E;
},
{
glyphname = o;
lastChange = "2018-03-11 15:21:18 +0000";
layers = (
{
anchors = (
{
name = bottom;
position = "{302, 0}";
},
{
name = center;
position = "{302, 250}";
},
{
name = ogonek;
position = "{327, 10}";
},
{
name = top;
position = "{302, 500}";
},
{
name = topright;
position = "{529, 338}";
}
);
layerId = "0B1DFD06-3317-40CA-B510-4969A0718C16";
paths = (
{
closed = 1;
nodes = (
"441 0 OFFCURVE",
"555 75 OFFCURVE",
"555 250 CURVE SMOOTH",
"555 424 OFFCURVE",
"442 515 OFFCURVE",
"298 515 CURVE SMOOTH",
"137 515 OFFCURVE",
"50 402 OFFCURVE",
"50 246 CURVE SMOOTH",
"50 49 OFFCURVE",
"190 0 OFFCURVE",
"302 0 CURVE SMOOTH"
);
},
{
closed = 1;
nodes = (
"204 31 OFFCURVE",
"81 79 OFFCURVE",
"81 249 CURVE SMOOTH",
"81 391 OFFCURVE",
"167 484 OFFCURVE",
"299 484 CURVE SMOOTH",
"427 484 OFFCURVE",
"524 396 OFFCURVE",
"524 251 CURVE SMOOTH",
"524 99 OFFCURVE",
"416 31 OFFCURVE",
"301 31 CURVE SMOOTH"
);
}
);
width = 605;
},
{
anchors = (
{
name = bottom;
position = "{304, 0}";
},
{
name = center;
position = "{304, 238}";
},
{
name = ogonek;
position = "{377, 28}";
},
{
name = top;
position = "{304, 500}";
},
{
name = topright;
position = "{530, 346}";
}
);
layerId = "2F8C22CF-EC86-44F4-AF1A-A6C7F26A0C3C";
paths = (
{
closed = 1;
nodes = (
"470 -3 OFFCURVE",
"577 85 OFFCURVE",
"577 243 CURVE SMOOTH",
"577 403 OFFCURVE",
"468 518 OFFCURVE",
"299 518 CURVE SMOOTH",
"133 518 OFFCURVE",
"30 407 OFFCURVE",
"30 250 CURVE SMOOTH",
"30 87 OFFCURVE",
"140 -3 OFFCURVE",
"306 -3 CURVE SMOOTH"
);
},
{
closed = 1;
nodes = (
"225 108 OFFCURVE",
"175 153 OFFCURVE",
"175 249 CURVE SMOOTH",
"175 345 OFFCURVE",
"225 407 OFFCURVE",
"304 407 CURVE SMOOTH",
"393 407 OFFCURVE",
"432 327 OFFCURVE",
"432 245 CURVE SMOOTH",
"432 153 OFFCURVE",
"384 108 OFFCURVE",
"304 108 CURVE SMOOTH"
);
}
);
width = 607;
},
{
anchors = (
{
name = bottom;
position = "{297, 0}";
},
{
name = center;
position = "{297, 245}";
},
{
name = ogonek;
position = "{341, 20}";
},
{
name = top;
position = "{297, 500}";
},
{
name = topright;
position = "{523, 341}";
}
);
layerId = "17B9D149-A542-49FB-8130-D430586D7342";
paths = (
{
closed = 1;
nodes = (
"447 -1 OFFCURVE",
"558 79 OFFCURVE",
"558 248 CURVE SMOOTH",
"558 420 OFFCURVE",
"442 516 OFFCURVE",
"292 516 CURVE SMOOTH",
"131 516 OFFCURVE",
"36 406 OFFCURVE",
"36 247 CURVE SMOOTH",
"36 64 OFFCURVE",
"163 -1 OFFCURVE",
"298 -1 CURVE SMOOTH"
);
},
{
closed = 1;
nodes = (
"207 62 OFFCURVE",
"113 108 OFFCURVE",
"113 249 CURVE SMOOTH",
"113 372 OFFCURVE",
"184 453 OFFCURVE",
"294 453 CURVE SMOOTH",
"404 453 OFFCURVE",
"481 371 OFFCURVE",
"481 249 CURVE SMOOTH",
"481 120 OFFCURVE",
"396 62 OFFCURVE",
"296 62 CURVE SMOOTH"
);
}
);
width = 593;
}
);
note = o;
unicode = 006F;
},
{
glyphname = p;
lastChange = "2018-03-11 16:22:21 +0000";
layers = (
{
anchors = (
{
name = bottom;
position = "{117, -224}";
},
{
name = top;
position = "{342, 500}";
}
);
layerId = "0B1DFD06-3317-40CA-B510-4969A0718C16";
paths = (
{
closed = 1;
nodes = (
"129 -224 OFFCURVE",
"131 -218 OFFCURVE",
"132 -207 CURVE SMOOTH",
"140 -114 OFFCURVE",
"137 -36 OFFCURVE",
"142 70 CURVE",
"160 52 OFFCURVE",
"236 2 OFFCURVE",
"344 2 CURVE SMOOTH",
"487 2 OFFCURVE",
"592 89 OFFCURVE",
"592 260 CURVE SMOOTH",
"592 445 OFFCURVE",
"469 513 OFFCURVE",
"351 513 CURVE SMOOTH",
"211 513 OFFCURVE",
"138 417 OFFCURVE",
"138 395 CURVE",
"142 395 LINE",
"143 421 OFFCURVE",
"112 474 OFFCURVE",
"101 485 CURVE SMOOTH",
"97 489 OFFCURVE",
"95 491 OFFCURVE",
"91 492 CURVE SMOOTH",
"83 494 OFFCURVE",
"70 486 OFFCURVE",
"70 476 CURVE SMOOTH",
"70 472 OFFCURVE",
"72 470 OFFCURVE",
"75 466 CURVE SMOOTH",
"95 439 OFFCURVE",
"112 417 OFFCURVE",
"112 359 CURVE SMOOTH",
"112 187 OFFCURVE",
"110 118 OFFCURVE",
"109 33 CURVE SMOOTH",
"108 -57 OFFCURVE",
"101 -185 OFFCURVE",
"101 -204 CURVE SMOOTH",
"101 -217 OFFCURVE",
"104 -224 OFFCURVE",
"117 -224 CURVE SMOOTH"
);
},
{
closed = 1;
nodes = (
"256 33 OFFCURVE",
"168 75 OFFCURVE",
"142 117 CURVE",
"143 201 OFFCURVE",
"143 251 OFFCURVE",
"143 349 CURVE",
"143 378 OFFCURVE",
"221 482 OFFCURVE",
"353 482 CURVE SMOOTH",
"445 482 OFFCURVE",
"561 431 OFFCURVE",
"561 260 CURVE SMOOTH",
"561 110 OFFCURVE",
"471 33 OFFCURVE",
"347 33 CURVE SMOOTH"
);
}
);
width = 642;
},
{
anchors = (
{
name = bottom;
position = "{126, -224}";
},
{
name = top;
position = "{322, 500}";
}
);
layerId = "2F8C22CF-EC86-44F4-AF1A-A6C7F26A0C3C";
paths = (
{
closed = 1;
nodes = (
"168 -224 OFFCURVE",
"197 -202 OFFCURVE",
"200 -170 CURVE SMOOTH",
"202 -143 OFFCURVE",
"203 -24 OFFCURVE",
"203 21 CURVE",
"220 13 OFFCURVE",
"276 -5 OFFCURVE",
"339 -5 CURVE SMOOTH",
"487 -5 OFFCURVE",
"590 93 OFFCURVE",
"590 253 CURVE SMOOTH",
"590 410 OFFCURVE",
"490 513 OFFCURVE",
"342 513 CURVE SMOOTH",
"209 513 OFFCURVE",
"152 430 OFFCURVE",
"152 389 CURVE",
"192 389 LINE",
"188 434 OFFCURVE",
"156 475 OFFCURVE",
"136 492 CURVE SMOOTH",
"130 497 OFFCURVE",
"122 502 OFFCURVE",
"109 502 CURVE SMOOTH",
"74 502 OFFCURVE",
"30 466 OFFCURVE",
"30 435 CURVE SMOOTH",
"30 422 OFFCURVE",
"37 414 OFFCURVE",
"47 403 CURVE SMOOTH",
"57 392 OFFCURVE",
"65 378 OFFCURVE",
"65 340 CURVE SMOOTH",
"65 177 OFFCURVE",
"62 100 OFFCURVE",
"62 65 CURVE SMOOTH",
"61 -60 OFFCURVE",
"61 -84 OFFCURVE",
"56 -164 CURVE SMOOTH",
"54 -199 OFFCURVE",
"81 -224 OFFCURVE",
"126 -224 CURVE SMOOTH"
);
},
{
closed = 1;
nodes = (
"273 106 OFFCURVE",
"215 126 OFFCURVE",
"209 135 CURVE",
"210 206 OFFCURVE",
"210 229 OFFCURVE",
"211 312 CURVE",
"211 345 OFFCURVE",
"255 399 OFFCURVE",
"331 399 CURVE SMOOTH",
"407 399 OFFCURVE",
"445 345 OFFCURVE",
"445 256 CURVE SMOOTH",
"445 159 OFFCURVE",
"399 106 OFFCURVE",
"321 106 CURVE SMOOTH"
);
}
);
width = 630;
},
{
anchors = (
{
name = bottom;
position = "{98, -224}";
},
{
name = top;
position = "{312, 500}";
}
);
layerId = "17B9D149-A542-49FB-8130-D430586D7342";
paths = (
{
closed = 1;
nodes = (
"121 -224 OFFCURVE",
"136 -212 OFFCURVE",
"137 -192 CURVE SMOOTH",
"141 -111 OFFCURVE",
"141 -40 OFFCURVE",
"144 50 CURVE",
"165 34 OFFCURVE",
"233 -1 OFFCURVE",
"322 -1 CURVE SMOOTH",
"465 -1 OFFCURVE",
"569 91 OFFCURVE",
"569 257 CURVE SMOOTH",
"569 431 OFFCURVE",
"455 513 OFFCURVE",
"325 513 CURVE SMOOTH",
"188 513 OFFCURVE",
"121 421 OFFCURVE",
"121 393 CURVE",
"140 393 LINE",
"139 427 OFFCURVE",
"104 478 OFFCURVE",
"93 488 CURVE SMOOTH",
"88 492 OFFCURVE",
"83 495 OFFCURVE",
"76 496 CURVE SMOOTH",
"60 498 OFFCURVE",
"32 479 OFFCURVE",
"32 460 CURVE SMOOTH",
"32 448 OFFCURVE",
"41 443 OFFCURVE",
"42 441 CURVE SMOOTH",
"60 419 OFFCURVE",
"71 394 OFFCURVE",
"71 351 CURVE SMOOTH",
"71 190 OFFCURVE",
"69 125 OFFCURVE",
"68 46 CURVE SMOOTH",
"66 -68 OFFCURVE",
"68 -30 OFFCURVE",
"61 -189 CURVE SMOOTH",
"60 -210 OFFCURVE",
"73 -224 OFFCURVE",
"98 -224 CURVE SMOOTH"
);
},
{
closed = 1;
nodes = (
"240 63 OFFCURVE",
"156 109 OFFCURVE",
"147 135 CURVE",
"148 214 OFFCURVE",
"148 232 OFFCURVE",
"148 324 CURVE",
"148 355 OFFCURVE",
"212 447 OFFCURVE",
"322 447 CURVE SMOOTH",
"408 447 OFFCURVE",
"492 397 OFFCURVE",
"492 258 CURVE SMOOTH",
"492 130 OFFCURVE",
"418 63 OFFCURVE",
"321 63 CURVE SMOOTH"
);
}
);
width = 617;
}
);
note = p;
unicode = 0070;
},
{
glyphname = q;
lastChange = "2018-03-11 16:20:26 +0000";
layers = (
{
anchors = (
{
name = bottom;
position = "{494, -237}";
},
{
name = top;
position = "{305, 500}";
}
);
layerId = "0B1DFD06-3317-40CA-B510-4969A0718C16";
paths = (
{
closed = 1;
nodes = (
"503 -237 OFFCURVE",
"509 -233 OFFCURVE",
"509 -223 CURVE SMOOTH",
"509 -164 OFFCURVE",
"511 -119 OFFCURVE",
"513 -45 CURVE SMOOTH",
"518 112 OFFCURVE",
"517 173 OFFCURVE",
"523 368 CURVE",
"539 402 OFFCURVE",
"546 415 OFFCURVE",
"570 455 CURVE SMOOTH",
"573 460 OFFCURVE",
"574 464 OFFCURVE",
"573 467 CURVE SMOOTH",
"571 474 OFFCURVE",
"562 479 OFFCURVE",
"554 479 CURVE SMOOTH",
"549 479 OFFCURVE",
"546 476 OFFCURVE",
"543 471 CURVE SMOOTH",
"533 456 OFFCURVE",
"537 463 OFFCURVE",
"493 389 CURVE",
"507 389 LINE",
"468 462 OFFCURVE",
"371 512 OFFCURVE",
"284 512 CURVE SMOOTH",
"197 512 OFFCURVE",
"40 462 OFFCURVE",
"40 257 CURVE SMOOTH",
"40 80 OFFCURVE",
"157 1 OFFCURVE",
"285 1 CURVE SMOOTH",
"368 1 OFFCURVE",
"450 35 OFFCURVE",
"485 82 CURVE",
"484 60 OFFCURVE",
"477 -194 OFFCURVE",
"477 -214 CURVE SMOOTH",
"477 -236 OFFCURVE",
"485 -237 OFFCURVE",
"491 -237 CURVE SMOOTH"
);
},
{
closed = 1;
nodes = (
"177 33 OFFCURVE",
"71 101 OFFCURVE",
"71 255 CURVE SMOOTH",
"71 419 OFFCURVE",
"190 480 OFFCURVE",
"279 480 CURVE SMOOTH",
"372 480 OFFCURVE",
"490 412 OFFCURVE",
"490 332 CURVE",
"489 275 OFFCURVE",
"488 218 OFFCURVE",
"486 131 CURVE",
"443 72 OFFCURVE",
"364 33 OFFCURVE",
"283 33 CURVE SMOOTH"
);
}
);
width = 643;
},
{
anchors = (
{
name = bottom;
position = "{485, -237}";
},
{
name = top;
position = "{306, 500}";
}
);
layerId = "2F8C22CF-EC86-44F4-AF1A-A6C7F26A0C3C";
paths = (
{
closed = 1;
nodes = (
"530 -237 OFFCURVE",
"556 -212 OFFCURVE",
"556 -183 CURVE SMOOTH",
"556 -172 OFFCURVE",
"559 -16 OFFCURVE",
"559 -3 CURVE SMOOTH",
"564 278 OFFCURVE",
"558 198 OFFCURVE",
"563 347 CURVE",
"578 374 OFFCURVE",
"592 393 OFFCURVE",
"596 400 CURVE SMOOTH",
"607 417 OFFCURVE",
"612 430 OFFCURVE",
"608 446 CURVE SMOOTH",
"600 477 OFFCURVE",
"565 498 OFFCURVE",
"534 495 CURVE SMOOTH",
"512 493 OFFCURVE",
"500 476 OFFCURVE",
"488 457 CURVE SMOOTH",
"468 426 OFFCURVE",
"460 404 OFFCURVE",
"458 389 CURVE",
"485 389 LINE",
"485 439 OFFCURVE",
"423 512 OFFCURVE",
"300 512 CURVE SMOOTH",
"152 512 OFFCURVE",
"40 406 OFFCURVE",
"40 251 CURVE SMOOTH",
"40 99 OFFCURVE",
"149 -6 OFFCURVE",
"304 -6 CURVE SMOOTH",
"356 -6 OFFCURVE",
"387 6 OFFCURVE",
"414 25 CURVE",
"413 -54 OFFCURVE",
"413 -140 OFFCURVE",
"413 -186 CURVE SMOOTH",
"413 -215 OFFCURVE",
"439 -237 OFFCURVE",
"483 -237 CURVE SMOOTH"
);
},
{
closed = 1;
nodes = (
"231 106 OFFCURVE",
"185 161 OFFCURVE",
"185 251 CURVE SMOOTH",
"185 344 OFFCURVE",
"234 400 OFFCURVE",
"304 400 CURVE SMOOTH",
"367 400 OFFCURVE",
"422 354 OFFCURVE",
"422 299 CURVE",
"421 250 OFFCURVE",
"420 221 OFFCURVE",
"418 148 CURVE",
"405 131 OFFCURVE",
"366 106 OFFCURVE",
"312 106 CURVE SMOOTH"
);
}
);
width = 645;
},
{
anchors = (
{
name = bottom;
position = "{490, -237}";
},
{
name = top;
position = "{314, 500}";
}
);
layerId = "17B9D149-A542-49FB-8130-D430586D7342";
paths = (
{
closed = 1;
nodes = (
"511 -237 OFFCURVE",
"528 -226 OFFCURVE",
"528 -207 CURVE SMOOTH",
"528 -152 OFFCURVE",
"529 -98 OFFCURVE",
"531 -28 CURVE SMOOTH",
"535 97 OFFCURVE",
"533 177 OFFCURVE",
"539 360 CURVE",
"555 391 OFFCURVE",
"568 412 OFFCURVE",
"580 433 CURVE SMOOTH",
"587 444 OFFCURVE",
"589 450 OFFCURVE",
"587 459 CURVE SMOOTH",
"584 473 OFFCURVE",
"565 487 OFFCURVE",
"546 485 CURVE SMOOTH",
"533 485 OFFCURVE",
"527 474 OFFCURVE",
"521 465 CURVE SMOOTH",
"510 448 OFFCURVE",
"492 418 OFFCURVE",
"479 389 CURVE",
"498 389 LINE",
"474 453 OFFCURVE",
"391 512 OFFCURVE",
"292 512 CURVE SMOOTH",
"179 512 OFFCURVE",
"40 440 OFFCURVE",
"40 256 CURVE SMOOTH",
"40 87 OFFCURVE",
"153 -2 OFFCURVE",
"294 -2 CURVE SMOOTH",
"363 -2 OFFCURVE",
"425 23 OFFCURVE",
"457 59 CURVE",
"454 -50 OFFCURVE",
"453 -114 OFFCURVE",
"451 -209 CURVE SMOOTH",
"451 -225 OFFCURVE",
"466 -237 OFFCURVE",
"490 -237 CURVE SMOOTH"
);
},
{
closed = 1;
nodes = (
"198 64 OFFCURVE",
"117 125 OFFCURVE",
"117 255 CURVE SMOOTH",
"117 388 OFFCURVE",
"208 448 OFFCURVE",
"289 448 CURVE SMOOTH",
"392 448 OFFCURVE",
"453 366 OFFCURVE",
"463 324 CURVE",
"462 270 OFFCURVE",
"461 228 OFFCURVE",
"459 147 CURVE",
"445 111 OFFCURVE",
"365 64 OFFCURVE",
"295 64 CURVE SMOOTH"
);
}
);
width = 641;
}
);
note = q;
unicode = 0071;
},
{
glyphname = r;
lastChange = "2018-03-11 15:58:52 +0000";
layers = (
{
anchors = (
{
name = bottom;
position = "{109, 0}";
},
{
name = top;
position = "{269, 500}";
}
);
layerId = "0B1DFD06-3317-40CA-B510-4969A0718C16";
paths = (
{
closed = 1;
nodes = (
"120 -7 OFFCURVE",
"125 0 OFFCURVE",
"125 14 CURVE SMOOTH",
"125 74 OFFCURVE",
"124 153 OFFCURVE",
"129 228 CURVE SMOOTH",
"140 378 OFFCURVE",
"180 479 OFFCURVE",
"283 479 CURVE SMOOTH",
"366 479 OFFCURVE",
"383 418 OFFCURVE",
"383 377 CURVE SMOOTH",
"383 312 OFFCURVE",
"340 307 OFFCURVE",
"314 304 CURVE SMOOTH",
"303 303 OFFCURVE",
"298 299 OFFCURVE",
"298 288 CURVE SMOOTH",
"298 277 OFFCURVE",
"302 273 OFFCURVE",
"319 273 CURVE SMOOTH",
"365 273 OFFCURVE",
"414 303 OFFCURVE",
"414 378 CURVE SMOOTH",
"414 439 OFFCURVE",
"381 510 OFFCURVE",
"284 510 CURVE SMOOTH",
"195 510 OFFCURVE",
"114 450 OFFCURVE",
"114 275 CURVE",
"119 275 LINE",
"116 348 OFFCURVE",
"115 408 OFFCURVE",
"107 507 CURVE SMOOTH",
"106 517 OFFCURVE",
"102 524 OFFCURVE",
"92 524 CURVE SMOOTH",
"83 524 OFFCURVE",
"75 519 OFFCURVE",
"75 507 CURVE SMOOTH",
"75 491 OFFCURVE",
"91 327 OFFCURVE",
"92 226 CURVE SMOOTH",
"93 137 OFFCURVE",
"93 107 OFFCURVE",
"94 13 CURVE SMOOTH",
"94 -1 OFFCURVE",
"98 -7 OFFCURVE",
"109 -7 CURVE SMOOTH"
);
}
);
width = 464;
},
{
anchors = (
{
name = bottom;
position = "{147, 0}";
},
{
name = top;
position = "{275, 500}";
}
);
layerId = "2F8C22CF-EC86-44F4-AF1A-A6C7F26A0C3C";
paths = (
{
closed = 1;
nodes = (
"201 -9 OFFCURVE",
"221 10 OFFCURVE",
"221 84 CURVE SMOOTH",
"221 100 OFFCURVE",
"222 202 OFFCURVE",
"228 240 CURVE SMOOTH",
"235 286 OFFCURVE",
"276 410 OFFCURVE",
"335 410 CURVE SMOOTH",
"354 410 OFFCURVE",
"367 397 OFFCURVE",
"367 373 CURVE SMOOTH",
"367 344 OFFCURVE",
"346 328 OFFCURVE",
"308 324 CURVE SMOOTH",
"286 322 OFFCURVE",
"270 313 OFFCURVE",
"270 279 CURVE SMOOTH",
"270 247 OFFCURVE",
"285 233 OFFCURVE",
"333 233 CURVE SMOOTH",
"419 233 OFFCURVE",
"485 279 OFFCURVE",
"485 369 CURVE SMOOTH",
"485 461 OFFCURVE",
"417 519 OFFCURVE",
"337 519 CURVE SMOOTH",
"221 519 OFFCURVE",
"171 397 OFFCURVE",
"171 315 CURVE",
"195 315 LINE",
"193 373 OFFCURVE",
"192 418 OFFCURVE",
"188 481 CURVE SMOOTH",
"186 509 OFFCURVE",
"170 531 OFFCURVE",
"128 531 CURVE SMOOTH",
"84 531 OFFCURVE",
"57 507 OFFCURVE",
"60 474 CURVE SMOOTH",
"71 347 OFFCURVE",
"77 319 OFFCURVE",
"77 210 CURVE SMOOTH",
"77 166 OFFCURVE",
"76 80 OFFCURVE",
"77 48 CURVE SMOOTH",
"79 9 OFFCURVE",
"103 -9 OFFCURVE",
"151 -9 CURVE SMOOTH"
);
}
);
width = 521;
},
{
anchors = (
{
name = bottom;
position = "{125, 0}";
},
{
name = top;
position = "{270, 500}";
}
);
layerId = "17B9D149-A542-49FB-8130-D430586D7342";
paths = (
{
closed = 1;
nodes = (
"155 -8 OFFCURVE",
"163 4 OFFCURVE",
"163 59 CURVE SMOOTH",
"163 79 OFFCURVE",
"164 156 OFFCURVE",
"169 233 CURVE SMOOTH",
"175 324 OFFCURVE",
"220 451 OFFCURVE",
"305 451 CURVE SMOOTH",
"360 451 OFFCURVE",
"377 411 OFFCURVE",
"377 376 CURVE SMOOTH",
"377 329 OFFCURVE",
"347 315 OFFCURVE",
"312 312 CURVE SMOOTH",
"294 311 OFFCURVE",
"287 302 OFFCURVE",
"287 285 CURVE SMOOTH",
"287 264 OFFCURVE",
"297 257 OFFCURVE",
"324 257 CURVE SMOOTH",
"392 257 OFFCURVE",
"442 300 OFFCURVE",
"442 375 CURVE SMOOTH",
"442 447 OFFCURVE",
"396 514 OFFCURVE",
"306 514 CURVE SMOOTH",
"205 514 OFFCURVE",
"137 429 OFFCURVE",
"137 291 CURVE",
"149 291 LINE",
"146 389 OFFCURVE",
"146 408 OFFCURVE",
"139 497 CURVE SMOOTH",
"138 511 OFFCURVE",
"132 527 OFFCURVE",
"106 527 CURVE SMOOTH",
"83 527 OFFCURVE",
"68 515 OFFCURVE",
"69 494 CURVE SMOOTH",
"70 476 OFFCURVE",
"86 328 OFFCURVE",
"86 230 CURVE SMOOTH",
"86 163 OFFCURVE",
"87 51 OFFCURVE",
"87 39 CURVE SMOOTH",
"87 4 OFFCURVE",
"96 -8 OFFCURVE",
"126 -8 CURVE SMOOTH"
);
}
);
width = 502;
}
);
note = r;
unicode = 0072;
},
{
glyphname = s;
lastChange = "2018-03-11 15:20:11 +0000";
layers = (
{
anchors = (
{
name = bottom;
position = "{254, 0}";
},
{
name = top;
position = "{254, 500}";
}
);
layerId = "0B1DFD06-3317-40CA-B510-4969A0718C16";
paths = (
{
closed = 1;
nodes = (
"360 -2 OFFCURVE",
"418 60 OFFCURVE",
"418 128 CURVE SMOOTH",
"418 283 OFFCURVE",
"118 246 OFFCURVE",
"118 379 CURVE SMOOTH",
"118 411 OFFCURVE",
"136 486 OFFCURVE",
"241 486 CURVE SMOOTH",
"305 486 OFFCURVE",
"373 458 OFFCURVE",
"379 370 CURVE SMOOTH",
"380 357 OFFCURVE",
"381 351 OFFCURVE",
"395 351 CURVE SMOOTH",
"408 351 OFFCURVE",
"411 357 OFFCURVE",
"411 374 CURVE SMOOTH",
"411 458 OFFCURVE",
"340 517 OFFCURVE",
"242 517 CURVE SMOOTH",
"133 517 OFFCURVE",
"86 443 OFFCURVE",
"86 378 CURVE SMOOTH",
"86 214 OFFCURVE",
"387 257 OFFCURVE",
"387 127 CURVE SMOOTH",
"387 74 OFFCURVE",
"337 29 OFFCURVE",
"261 29 CURVE SMOOTH",
"192 29 OFFCURVE",
"145 66 OFFCURVE",
"111 126 CURVE SMOOTH",
"102 142 OFFCURVE",
"98 149 OFFCURVE",
"92 150 CURVE SMOOTH",
"81 152 OFFCURVE",
"70 143 OFFCURVE",
"70 133 CURVE SMOOTH",
"70 129 OFFCURVE",
"72 125 OFFCURVE",
"77 117 CURVE SMOOTH",
"113 58 OFFCURVE",
"161 -2 OFFCURVE",
"260 -2 CURVE SMOOTH"
);
}
);
width = 488;
},
{
anchors = (
{
name = bottom;
position = "{256, 0}";
},
{
name = top;
position = "{256, 500}";
}
);
layerId = "2F8C22CF-EC86-44F4-AF1A-A6C7F26A0C3C";
paths = (
{
closed = 1;
nodes = (
"337 -9 OFFCURVE",
"459 31 OFFCURVE",
"459 154 CURVE SMOOTH",
"459 333 OFFCURVE",
"203 291 OFFCURVE",
"203 372 CURVE SMOOTH",
"203 395 OFFCURVE",
"224 410 OFFCURVE",
"262 410 CURVE SMOOTH",
"319 410 OFFCURVE",
"324 377 OFFCURVE",
"327 355 CURVE SMOOTH",
"330 335 OFFCURVE",
"338 317 OFFCURVE",
"384 317 CURVE SMOOTH",
"432 317 OFFCURVE",
"449 337 OFFCURVE",
"449 372 CURVE SMOOTH",
"449 450 OFFCURVE",
"367 526 OFFCURVE",
"246 526 CURVE SMOOTH",
"141 526 OFFCURVE",
"59 469 OFFCURVE",
"59 368 CURVE SMOOTH",
"59 191 OFFCURVE",
"314 223 OFFCURVE",
"314 146 CURVE SMOOTH",
"314 119 OFFCURVE",
"283 106 OFFCURVE",
"253 106 CURVE SMOOTH",
"214 106 OFFCURVE",
"193 127 OFFCURVE",
"159 168 CURVE SMOOTH",
"153 175 OFFCURVE",
"143 191 OFFCURVE",
"121 194 CURVE SMOOTH",
"86 198 OFFCURVE",
"48 167 OFFCURVE",
"45 139 CURVE SMOOTH",
"44 131 OFFCURVE",
"46 122 OFFCURVE",
"51 110 CURVE SMOOTH",
"81 38 OFFCURVE",
"158 -9 OFFCURVE",
"251 -9 CURVE SMOOTH"
);
}
);
width = 504;
},
{
anchors = (
{
name = bottom;
position = "{245, 0}";
},
{
name = top;
position = "{245, 500}";
}
);
layerId = "17B9D149-A542-49FB-8130-D430586D7342";
paths = (
{
closed = 1;
nodes = (
"338 -5 OFFCURVE",
"422 48 OFFCURVE",
"422 138 CURVE SMOOTH",
"422 304 OFFCURVE",
"139 264 OFFCURVE",
"139 376 CURVE SMOOTH",
"139 404 OFFCURVE",
"157 456 OFFCURVE",
"238 456 CURVE SMOOTH",
"296 456 OFFCURVE",
"340 429 OFFCURVE",
"346 364 CURVE SMOOTH",
"347 353 OFFCURVE",
"349 337 OFFCURVE",
"380 337 CURVE SMOOTH",
"405 337 OFFCURVE",
"414 348 OFFCURVE",
"414 375 CURVE SMOOTH",
"414 454 OFFCURVE",
"338 521 OFFCURVE",
"231 521 CURVE SMOOTH",
"123 521 OFFCURVE",
"63 453 OFFCURVE",
"63 375 CURVE SMOOTH",
"63 205 OFFCURVE",
"345 244 OFFCURVE",
"345 134 CURVE SMOOTH",
"345 92 OFFCURVE",
"303 60 OFFCURVE",
"245 60 CURVE SMOOTH",
"175 60 OFFCURVE",
"142 107 OFFCURVE",
"118 143 CURVE SMOOTH",
"108 157 OFFCURVE",
"102 166 OFFCURVE",
"91 168 CURVE SMOOTH",
"72 171 OFFCURVE",
"47 153 OFFCURVE",
"47 133 CURVE SMOOTH",
"47 129 OFFCURVE",
"48 126 OFFCURVE",
"54 114 CURVE SMOOTH",
"86 52 OFFCURVE",
"145 -5 OFFCURVE",
"243 -5 CURVE SMOOTH"
);
}
);
width = 486;
}
);
note = s;
unicode = 0073;
},
{
glyphname = t;
lastChange = "2018-03-11 16:16:19 +0000";
layers = (
{
anchors = (
{
name = bottom;
position = "{267, 0}";
},
{
name = center;
position = "{157, 250}";
},
{
name = top;
position = "{196, 670}";
},
{
name = topright;
position = "{267, 424}";
}
);
layerId = "0B1DFD06-3317-40CA-B510-4969A0718C16";
paths = (
{
closed = 1;
nodes = (
"333 0 OFFCURVE",
"372 57 OFFCURVE",
"372 112 CURVE SMOOTH",
"372 132 OFFCURVE",
"367 138 OFFCURVE",
"356 138 CURVE SMOOTH",
"342 138 OFFCURVE",
"341 128 OFFCURVE",
"341 117 CURVE SMOOTH",
"341 49 OFFCURVE",
"297 31 OFFCURVE",
"268 31 CURVE SMOOTH",
"193 31 OFFCURVE",
"174 148 OFFCURVE",
"174 269 CURVE SMOOTH",
"174 391 OFFCURVE",
"198 566 OFFCURVE",
"210 653 CURVE SMOOTH",
"212 666 OFFCURVE",
"203 670 OFFCURVE",
"195 670 CURVE SMOOTH",
"186 670 OFFCURVE",
"181 666 OFFCURVE",
"179 653 CURVE SMOOTH",
"167 572 OFFCURVE",
"143 403 OFFCURVE",
"143 274 CURVE SMOOTH",
"143 117 OFFCURVE",
"173 0 OFFCURVE",
"267 0 CURVE SMOOTH"
);
},
{
closed = 1;
nodes = (
"295 410 OFFCURVE",
"301 414 OFFCURVE",
"301 424 CURVE SMOOTH",
"301 435 OFFCURVE",
"294 440 OFFCURVE",
"284 440 CURVE SMOOTH",
"157 440 OFFCURVE",
"135 442 OFFCURVE",
"65 450 CURVE SMOOTH",
"58 451 OFFCURVE",
"50 447 OFFCURVE",
"50 435 CURVE SMOOTH",
"50 426 OFFCURVE",
"56 420 OFFCURVE",
"62 419 CURVE SMOOTH",
"133 407 OFFCURVE",
"210 408 OFFCURVE",
"284 410 CURVE SMOOTH"
);
}
);
width = 432;
},
{
anchors = (
{
name = bottom;
position = "{258, 0}";
},
{
name = center;
position = "{191, 245}";
},
{
name = top;
position = "{201, 670}";
},
{
name = topright;
position = "{304, 405}";
}
);
layerId = "2F8C22CF-EC86-44F4-AF1A-A6C7F26A0C3C";
paths = (
{
closed = 1;
nodes = (
"350 -2 OFFCURVE",
"414 54 OFFCURVE",
"414 144 CURVE SMOOTH",
"414 182 OFFCURVE",
"395 199 OFFCURVE",
"351 199 CURVE SMOOTH",
"315 199 OFFCURVE",
"296 185 OFFCURVE",
"296 152 CURVE SMOOTH",
"296 123 OFFCURVE",
"293 111 OFFCURVE",
"274 111 CURVE SMOOTH",
"242 111 OFFCURVE",
"242 193 OFFCURVE",
"242 292 CURVE SMOOTH",
"242 426 OFFCURVE",
"260 532 OFFCURVE",
"272 607 CURVE SMOOTH",
"277 638 OFFCURVE",
"253 670 OFFCURVE",
"201 670 CURVE SMOOTH",
"162 670 OFFCURVE",
"137 653 OFFCURVE",
"131 621 CURVE SMOOTH",
"117 546 OFFCURVE",
"99 432 OFFCURVE",
"99 292 CURVE SMOOTH",
"99 87 OFFCURVE",
"151 -2 OFFCURVE",
"266 -2 CURVE SMOOTH"
);
},
{
closed = 1;
nodes = (
"337 354 OFFCURVE",
"354 372 OFFCURVE",
"354 405 CURVE SMOOTH",
"354 436 OFFCURVE",
"344 460 OFFCURVE",
"300 461 CURVE SMOOTH",
"219 462 OFFCURVE",
"163 466 OFFCURVE",
"86 470 CURVE SMOOTH",
"34 473 OFFCURVE",
"20 449 OFFCURVE",
"20 415 CURVE SMOOTH",
"20 383 OFFCURVE",
"34 361 OFFCURVE",
"77 360 CURVE SMOOTH",
"151 358 OFFCURVE",
"230 353 OFFCURVE",
"291 356 CURVE"
);
}
);
width = 444;
},
{
anchors = (
{
name = bottom;
position = "{265, 0}";
},
{
name = center;
position = "{162, 248}";
},
{
name = top;
position = "{198, 670}";
},
{
name = topright;
position = "{282, 416}";
}
);
layerId = "17B9D149-A542-49FB-8130-D430586D7342";
paths = (
{
closed = 1;
nodes = (
"340 0 OFFCURVE",
"389 56 OFFCURVE",
"389 124 CURVE SMOOTH",
"389 153 OFFCURVE",
"380 163 OFFCURVE",
"356 163 CURVE SMOOTH",
"326 163 OFFCURVE",
"325 148 OFFCURVE",
"324 132 CURVE SMOOTH",
"321 85 OFFCURVE",
"302 64 OFFCURVE",
"274 64 CURVE SMOOTH",
"215 64 OFFCURVE",
"202 157 OFFCURVE",
"202 271 CURVE SMOOTH",
"202 390 OFFCURVE",
"218 503 OFFCURVE",
"237 635 CURVE SMOOTH",
"240 655 OFFCURVE",
"224 670 OFFCURVE",
"198 670 CURVE SMOOTH",
"170 670 OFFCURVE",
"164 654 OFFCURVE",
"160 640 CURVE SMOOTH",
"144 583 OFFCURVE",
"126 407 OFFCURVE",
"126 288 CURVE SMOOTH",
"126 107 OFFCURVE",
"164 0 OFFCURVE",
"266 0 CURVE SMOOTH"
);
},
{
closed = 1;
nodes = (
"314 389 OFFCURVE",
"323 395 OFFCURVE",
"323 421 CURVE SMOOTH",
"323 443 OFFCURVE",
"316 448 OFFCURVE",
"259 448 CURVE SMOOTH",
"182 448 OFFCURVE",
"93 457 OFFCURVE",
"74 458 CURVE SMOOTH",
"51 459 OFFCURVE",
"39 451 OFFCURVE",
"39 428 CURVE SMOOTH",
"39 400 OFFCURVE",
"57 396 OFFCURVE",
"69 395 CURVE SMOOTH",
"151 387 OFFCURVE",
"195 386 OFFCURVE",
"287 388 CURVE SMOOTH"
);
}
);
width = 440;
}
);
note = t;
unicode = 0074;
},
{
glyphname = u;
lastChange = "2018-03-11 16:20:17 +0000";
layers = (
{
anchors = (
{
name = bottom;
position = "{255, 0}";
},
{
name = ogonek;
position = "{443, 23}";
},
{
name = top;
position = "{255, 500}";
},
{
name = topright;
position = "{428, 332}";
}
);
layerId = "0B1DFD06-3317-40CA-B510-4969A0718C16";
paths = (
{
closed = 1;
nodes = (
"332 2 OFFCURVE",
"401 80 OFFCURVE",
"415 187 CURVE",
"405 187 LINE",
"407 91 LINE SMOOTH",
"408 47 OFFCURVE",
"429 9 OFFCURVE",
"446 9 CURVE SMOOTH",
"455 9 OFFCURVE",
"462 18 OFFCURVE",
"462 25 CURVE SMOOTH",
"462 38 OFFCURVE",
"440 49 OFFCURVE",
"439 96 CURVE SMOOTH",
"434 490 LINE SMOOTH",
"434 502 OFFCURVE",
"428 507 OFFCURVE",
"418 507 CURVE SMOOTH",
"408 507 OFFCURVE",
"403 502 OFFCURVE",
"403 490 CURVE SMOOTH",
"403 429 OFFCURVE",
"403 400 OFFCURVE",
"403 336 CURVE SMOOTH",
"403 184 OFFCURVE",
"365 33 OFFCURVE",
"228 33 CURVE SMOOTH",
"138 33 OFFCURVE",
"101 99 OFFCURVE",
"101 235 CURVE SMOOTH",
"101 487 LINE SMOOTH",
"101 496 OFFCURVE",
"94 501 OFFCURVE",
"85 501 CURVE SMOOTH",
"75 501 OFFCURVE",
"70 496 OFFCURVE",
"70 487 CURVE SMOOTH",
"70 237 LINE SMOOTH",
"70 80 OFFCURVE",
"118 2 OFFCURVE",
"229 2 CURVE SMOOTH"
);
}
);
width = 532;
},
{
anchors = (
{
name = bottom;
position = "{271, 0}";
},
{
name = ogonek;
position = "{464, 38}";
},
{
name = top;
position = "{271, 500}";
},
{
name = topright;
position = "{461, 326}";
}
);
layerId = "2F8C22CF-EC86-44F4-AF1A-A6C7F26A0C3C";
paths = (
{
closed = 1;
nodes = (
"370 -2 OFFCURVE",
"412 81 OFFCURVE",
"421 168 CURVE",
"374 168 LINE",
"376 139 LINE SMOOTH",
"378 106 OFFCURVE",
"399 7 OFFCURVE",
"451 4 CURVE SMOOTH",
"480 2 OFFCURVE",
"513 32 OFFCURVE",
"513 59 CURVE SMOOTH",
"513 82 OFFCURVE",
"489 99 OFFCURVE",
"489 132 CURVE SMOOTH",
"486 452 LINE SMOOTH",
"486 488 OFFCURVE",
"455 511 OFFCURVE",
"412 511 CURVE SMOOTH",
"370 511 OFFCURVE",
"341 489 OFFCURVE",
"341 452 CURVE SMOOTH",
"341 393 OFFCURVE",
"341 321 OFFCURVE",
"341 267 CURVE SMOOTH",
"341 145 OFFCURVE",
"314 109 OFFCURVE",
"265 109 CURVE SMOOTH",
"217 109 OFFCURVE",
"204 143 OFFCURVE",
"204 238 CURVE SMOOTH",
"204 454 LINE SMOOTH",
"204 485 OFFCURVE",
"170 506 OFFCURVE",
"131 506 CURVE SMOOTH",
"91 506 OFFCURVE",
"60 485 OFFCURVE",
"60 454 CURVE SMOOTH",
"60 240 LINE SMOOTH",
"60 81 OFFCURVE",
"119 -2 OFFCURVE",
"245 -2 CURVE SMOOTH"
);
}
);
width = 573;
},
{
anchors = (
{
name = bottom;
position = "{261, 0}";
},
{
name = ogonek;
position = "{451, 29}";
},
{
name = top;
position = "{261, 500}";
},
{
name = topright;
position = "{441, 330}";
}
);
layerId = "17B9D149-A542-49FB-8130-D430586D7342";
paths = (
{
closed = 1;
nodes = (
"336 0 OFFCURVE",
"416 61 OFFCURVE",
"416 179 CURVE",
"393 179 LINE",
"393 107 LINE SMOOTH",
"393 64 OFFCURVE",
"418 7 OFFCURVE",
"449 7 CURVE SMOOTH",
"465 7 OFFCURVE",
"482 23 OFFCURVE",
"482 38 CURVE SMOOTH",
"482 56 OFFCURVE",
"460 72 OFFCURVE",
"459 110 CURVE SMOOTH",
"455 475 LINE SMOOTH",
"455 496 OFFCURVE",
"439 509 OFFCURVE",
"415 509 CURVE SMOOTH",
"393 509 OFFCURVE",
"378 497 OFFCURVE",
"378 475 CURVE SMOOTH",
"378 415 OFFCURVE",
"378 368 OFFCURVE",
"378 308 CURVE SMOOTH",
"378 169 OFFCURVE",
"345 63 OFFCURVE",
"243 63 CURVE SMOOTH",
"170 63 OFFCURVE",
"142 117 OFFCURVE",
"142 236 CURVE SMOOTH",
"142 474 LINE SMOOTH",
"142 492 OFFCURVE",
"125 503 OFFCURVE",
"103 503 CURVE SMOOTH",
"82 503 OFFCURVE",
"66 492 OFFCURVE",
"66 474 CURVE SMOOTH",
"66 238 LINE SMOOTH",
"66 81 OFFCURVE",
"118 0 OFFCURVE",
"235 0 CURVE SMOOTH"
);
}
);
width = 547;
}
);
note = u;
unicode = 0075;
},
{
glyphname = v;
lastChange = "2018-03-11 16:12:09 +0000";
layers = (
{
anchors = (
{
name = bottom;
position = "{254, 0}";
},
{
name = top;
position = "{254, 500}";
}
);
layerId = "0B1DFD06-3317-40CA-B510-4969A0718C16";
paths = (
{
closed = 1;
nodes = (
"299 10 OFFCURVE",
"356 119 OFFCURVE",
"400 235 CURVE SMOOTH",
"438 335 OFFCURVE",
"466 438 OFFCURVE",
"466 481 CURVE SMOOTH",
"466 495 OFFCURVE",
"463 505 OFFCURVE",
"451 505 CURVE SMOOTH",
"441 505 OFFCURVE",
"437 499 OFFCURVE",
"436 486 CURVE SMOOTH",
"430 431 OFFCURVE",
"418 365 OFFCURVE",
"370 245 CURVE SMOOTH",
"322 125 OFFCURVE",
"275 41 OFFCURVE",
"257 41 CURVE SMOOTH",
"239 41 OFFCURVE",
"191 131 OFFCURVE",
"150 246 CURVE SMOOTH",
"108 365 OFFCURVE",
"97 434 OFFCURVE",
"90 482 CURVE SMOOTH",
"88 494 OFFCURVE",
"86 500 OFFCURVE",
"76 500 CURVE SMOOTH",
"66 500 OFFCURVE",
"60 495 OFFCURVE",
"60 477 CURVE SMOOTH",
"60 438 OFFCURVE",
"86 330 OFFCURVE",
"122 230 CURVE SMOOTH",
"162 119 OFFCURVE",
"217 10 OFFCURVE",
"258 10 CURVE SMOOTH"
);
}
);
width = 526;
},
{
anchors = (
{
name = bottom;
position = "{263, 0}";
},
{
name = top;
position = "{263, 500}";
}
);
layerId = "2F8C22CF-EC86-44F4-AF1A-A6C7F26A0C3C";
paths = (
{
closed = 1;
nodes = (
"336 0 OFFCURVE",
"389 74 OFFCURVE",
"443 218 CURVE SMOOTH",
"479 314 OFFCURVE",
"502 406 OFFCURVE",
"502 444 CURVE SMOOTH",
"502 487 OFFCURVE",
"473 510 OFFCURVE",
"431 510 CURVE SMOOTH",
"389 510 OFFCURVE",
"361 487 OFFCURVE",
"357 455 CURVE SMOOTH",
"351 402 OFFCURVE",
"347 382 OFFCURVE",
"322 278 CURVE SMOOTH",
"310 228 OFFCURVE",
"277 150 OFFCURVE",
"267 150 CURVE SMOOTH",
"258 150 OFFCURVE",
"236 216 OFFCURVE",
"220 275 CURVE SMOOTH",
"201 346 OFFCURVE",
"193 393 OFFCURVE",
"184 452 CURVE SMOOTH",
"178 489 OFFCURVE",
"147 505 OFFCURVE",
"112 505 CURVE SMOOTH",
"70 505 OFFCURVE",
"40 483 OFFCURVE",
"40 442 CURVE SMOOTH",
"40 404 OFFCURVE",
"66 300 OFFCURVE",
"96 215 CURVE SMOOTH",
"147 70 OFFCURVE",
"199 0 OFFCURVE",
"267 0 CURVE SMOOTH"
);
}
);
width = 542;
},
{
anchors = (
{
name = bottom;
position = "{256, 0}";
},
{
name = top;
position = "{256, 500}";
}
);
layerId = "17B9D149-A542-49FB-8130-D430586D7342";
paths = (
{
closed = 1;
nodes = (
"313 6 OFFCURVE",
"367 100 OFFCURVE",
"416 228 CURVE SMOOTH",
"453 326 OFFCURVE",
"479 426 OFFCURVE",
"479 467 CURVE SMOOTH",
"479 491 OFFCURVE",
"465 507 OFFCURVE",
"441 507 CURVE SMOOTH",
"419 507 OFFCURVE",
"405 494 OFFCURVE",
"403 474 CURVE SMOOTH",
"398 424 OFFCURVE",
"383 356 OFFCURVE",
"347 258 CURVE SMOOTH",
"313 166 OFFCURVE",
"275 93 OFFCURVE",
"259 93 CURVE SMOOTH",
"246 93 OFFCURVE",
"206 169 OFFCURVE",
"176 258 CURVE SMOOTH",
"144 359 OFFCURVE",
"132 422 OFFCURVE",
"126 470 CURVE SMOOTH",
"123 490 OFFCURVE",
"110 502 OFFCURVE",
"89 502 CURVE SMOOTH",
"66 502 OFFCURVE",
"50 490 OFFCURVE",
"50 464 CURVE SMOOTH",
"50 425 OFFCURVE",
"76 319 OFFCURVE",
"110 224 CURVE SMOOTH",
"154 100 OFFCURVE",
"207 6 OFFCURVE",
"260 6 CURVE SMOOTH"
);
}
);
width = 529;
}
);
note = v;
unicode = 0076;
},
{
glyphname = w;
lastChange = "2018-03-11 16:20:03 +0000";
layers = (
{
anchors = (
{
name = bottom;
position = "{377, 0}";
},
{
name = top;
position = "{377, 500}";
}
);
layerId = "0B1DFD06-3317-40CA-B510-4969A0718C16";
paths = (
{
closed = 1;
nodes = (
"286 3 OFFCURVE",
"356 174 OFFCURVE",
"381 353 CURVE",
"417 174 OFFCURVE",
"502 3 OFFCURVE",
"551 3 CURVE SMOOTH",
"591 3 OFFCURVE",
"619 82 OFFCURVE",
"647 177 CURVE SMOOTH",
"674 269 OFFCURVE",
"696 408 OFFCURVE",
"696 493 CURVE SMOOTH",
"696 507 OFFCURVE",
"692 512 OFFCURVE",
"680 512 CURVE SMOOTH",
"670 512 OFFCURVE",
"665 507 OFFCURVE",
"665 493 CURVE SMOOTH",
"662 394 OFFCURVE",
"654 326 OFFCURVE",
"619 196 CURVE SMOOTH",
"597 114 OFFCURVE",
"570 41 OFFCURVE",
"549 41 CURVE SMOOTH",
"521 41 OFFCURVE",
"434 227 OFFCURVE",
"400 396 CURVE SMOOTH",
"398 406 OFFCURVE",
"393 415 OFFCURVE",
"379 416 CURVE SMOOTH",
"368 417 OFFCURVE",
"361 407 OFFCURVE",
"359 396 CURVE SMOOTH",
"335 229 OFFCURVE",
"258 35 OFFCURVE",
"234 35 CURVE SMOOTH",
"210 35 OFFCURVE",
"175 117 OFFCURVE",
"153 189 CURVE SMOOTH",
"111 327 OFFCURVE",
"106 398 OFFCURVE",
"101 497 CURVE SMOOTH",
"100 511 OFFCURVE",
"94 513 OFFCURVE",
"85 513 CURVE SMOOTH",
"76 513 OFFCURVE",
"70 507 OFFCURVE",
"70 498 CURVE SMOOTH",
"70 394 OFFCURVE",
"96 266 OFFCURVE",
"128 169 CURVE SMOOTH",
"160 73 OFFCURVE",
"194 3 OFFCURVE",
"234 3 CURVE SMOOTH"
);
}
);
width = 766;
},
{
anchors = (
{
name = bottom;
position = "{388, 0}";
},
{
name = top;
position = "{388, 500}";
}
);
layerId = "2F8C22CF-EC86-44F4-AF1A-A6C7F26A0C3C";
paths = (
{
closed = 1;
nodes = (
"326 0 OFFCURVE",
"361 95 OFFCURVE",
"384 263 CURVE",
"417 83 OFFCURVE",
"463 0 OFFCURVE",
"536 0 CURVE SMOOTH",
"608 0 OFFCURVE",
"646 82 OFFCURVE",
"670 175 CURVE SMOOTH",
"694 269 OFFCURVE",
"710 390 OFFCURVE",
"710 440 CURVE SMOOTH",
"710 500 OFFCURVE",
"687 523 OFFCURVE",
"639 523 CURVE SMOOTH",
"597 523 OFFCURVE",
"569 506 OFFCURVE",
"567 468 CURVE SMOOTH",
"565 419 OFFCURVE",
"562 381 OFFCURVE",
"548 272 CURVE SMOOTH",
"538 196 OFFCURVE",
"533 166 OFFCURVE",
"528 166 CURVE SMOOTH",
"518 166 OFFCURVE",
"482 283 OFFCURVE",
"457 368 CURVE SMOOTH",
"442 418 OFFCURVE",
"419 440 OFFCURVE",
"382 440 CURVE SMOOTH",
"341 440 OFFCURVE",
"324 412 OFFCURVE",
"311 369 CURVE SMOOTH",
"296 320 OFFCURVE",
"264 166 OFFCURVE",
"254 166 CURVE SMOOTH",
"249 166 OFFCURVE",
"240 207 OFFCURVE",
"230 263 CURVE SMOOTH",
"214 350 OFFCURVE",
"209 395 OFFCURVE",
"201 470 CURVE SMOOTH",
"197 508 OFFCURVE",
"172 523 OFFCURVE",
"128 523 CURVE SMOOTH",
"94 523 OFFCURVE",
"60 514 OFFCURVE",
"60 450 CURVE SMOOTH",
"60 400 OFFCURVE",
"81 263 OFFCURVE",
"110 169 CURVE SMOOTH",
"147 50 OFFCURVE",
"199 0 OFFCURVE",
"252 0 CURVE SMOOTH"
);
}
);
width = 770;
},
{
anchors = (
{
name = bottom;
position = "{389, 0}";
},
{
name = top;
position = "{389, 500}";
}
);
layerId = "17B9D149-A542-49FB-8130-D430586D7342";
paths = (
{
closed = 1;
nodes = (
"313 2 OFFCURVE",
"366 147 OFFCURVE",
"390 317 CURVE",
"424 143 OFFCURVE",
"490 2 OFFCURVE",
"554 2 CURVE SMOOTH",
"599 2 OFFCURVE",
"636 73 OFFCURVE",
"664 176 CURVE SMOOTH",
"690 272 OFFCURVE",
"709 400 OFFCURVE",
"709 466 CURVE SMOOTH",
"709 497 OFFCURVE",
"705 516 OFFCURVE",
"671 516 CURVE SMOOTH",
"637 516 OFFCURVE",
"635 496 OFFCURVE",
"634 483 CURVE SMOOTH",
"629 388 OFFCURVE",
"627 354 OFFCURVE",
"598 226 CURVE SMOOTH",
"581 151 OFFCURVE",
"566 91 OFFCURVE",
"546 91 CURVE SMOOTH",
"510 91 OFFCURVE",
"460 300 OFFCURVE",
"430 385 CURVE SMOOTH",
"421 411 OFFCURVE",
"413 426 OFFCURVE",
"389 426 CURVE SMOOTH",
"365 426 OFFCURVE",
"355 411 OFFCURVE",
"348 385 CURVE SMOOTH",
"281 119 OFFCURVE",
"272 87 OFFCURVE",
"254 87 CURVE SMOOTH",
"232 87 OFFCURVE",
"214 137 OFFCURVE",
"192 219 CURVE SMOOTH",
"161 336 OFFCURVE",
"156 384 OFFCURVE",
"149 486 CURVE SMOOTH",
"147 512 OFFCURVE",
"129 517 OFFCURVE",
"112 517 CURVE SMOOTH",
"77 517 OFFCURVE",
"74 497 OFFCURVE",
"74 472 CURVE SMOOTH",
"74 401 OFFCURVE",
"97 268 OFFCURVE",
"129 169 CURVE SMOOTH",
"161 70 OFFCURVE",
"202 2 OFFCURVE",
"247 2 CURVE SMOOTH"
);
}
);
width = 776;
}
);
note = w;
unicode = 0077;
},
